<svg width="20" height="18" viewBox="0 0 20 18" fill="none" xmlns="http://www.w3.org/2000/svg">
<path d="M0.353259 8.63094L4.96167 10.4089L6.7454 16.3386C6.85953 16.7184 7.3088 16.8588 7.607 16.6068L10.1758 14.4421C10.4451 14.2153 10.8286 14.204 11.11 14.4151L15.7432 17.8923C16.0622 18.1319 16.5141 17.9512 16.5941 17.5528L19.9882 0.676686C20.0756 0.241433 19.6618 -0.121668 19.2609 0.0386231L0.347859 7.5805C-0.118874 7.76656 -0.114808 8.44963 0.353259 8.63094ZM6.45793 9.46243L15.4645 3.72842C15.6263 3.62567 15.7929 3.85191 15.6539 3.98519L8.22087 11.1273C7.9596 11.3787 7.79107 11.7151 7.74334 12.0803L7.49014 14.0199C7.4566 14.2789 7.10467 14.3046 7.03553 14.054L6.06173 10.517C5.9502 10.1136 6.11273 9.68268 6.45793 9.46243Z" fill="#29A9EB"/>
</svg>
