<svg width="21" height="17" viewBox="0 0 21 17" fill="none" xmlns="http://www.w3.org/2000/svg">
<path d="M20.5436 1.97249C19.7796 2.30245 18.9656 2.52116 18.1169 2.62736C18.99 2.11408 19.6564 1.30751 19.9697 0.335325C19.1556 0.813201 18.2568 1.15075 17.299 1.33912C16.526 0.528752 15.4244 0.0268555 14.2226 0.0268555C11.8909 0.0268555 10.0137 1.89032 10.0137 4.17477C10.0137 4.50346 10.042 4.81952 10.1113 5.1204C6.6099 4.95226 3.51167 3.29992 1.43035 0.78286C1.06698 1.40359 0.853843 2.11409 0.853843 2.87894C0.853843 4.31509 1.60497 5.58817 2.72459 6.32521C2.04794 6.31256 1.38412 6.11914 0.821744 5.81446C0.821744 5.8271 0.821744 5.84354 0.821744 5.85997C0.821744 7.87514 2.28162 9.54897 4.19603 9.93456C3.85321 10.0268 3.47957 10.0711 3.09181 10.0711C2.82218 10.0711 2.54997 10.0559 2.29446 10.0003C2.84015 11.6425 4.38863 12.8499 6.22985 12.889C4.79693 13.9927 2.97754 14.6577 1.00792 14.6577C0.662531 14.6577 0.331266 14.6425 0 14.6008C1.86562 15.7854 4.07662 16.4617 6.46096 16.4617C14.211 16.4617 18.4482 10.1406 18.4482 4.66149C18.4482 4.47818 18.4417 4.30119 18.4327 4.12546C19.2686 3.54139 19.9709 2.81194 20.5436 1.97249Z" fill="#1DA1F2"/>
</svg>
