<svg width="19" height="10" viewBox="0 0 19 10" fill="none" xmlns="http://www.w3.org/2000/svg">
<path d="M18.8306 8.91937C18.7796 8.8405 18.4637 8.20732 16.9436 6.90591C15.3522 5.54315 15.566 5.76443 17.4827 3.40809C18.6501 1.97303 19.1169 1.09665 18.9708 0.722004C18.8318 0.364883 17.9732 0.459093 17.9732 0.459093L15.1183 0.474429C15.1183 0.474429 14.9069 0.448138 14.7489 0.53468C14.5957 0.620126 14.4971 0.81731 14.4971 0.81731C14.4971 0.81731 14.0447 1.92811 13.4414 2.8724C12.1695 4.86505 11.66 4.97022 11.4522 4.84643C10.9688 4.55832 11.09 3.68743 11.09 3.06959C11.09 1.13828 11.407 0.333114 10.4712 0.124976C10.1601 0.0559615 9.93206 0.00995199 9.13756 0.00228373C8.11861 -0.00757546 7.25524 0.00557012 6.76714 0.225759C6.44174 0.372551 6.19116 0.700095 6.34436 0.718718C6.53318 0.741723 6.96071 0.824978 7.18754 1.1098C7.48088 1.47678 7.47019 2.30276 7.47019 2.30276C7.47019 2.30276 7.63883 4.57585 7.0771 4.85848C6.69113 5.05238 6.16265 4.65692 5.02851 2.8483C4.44778 1.92263 4.00837 0.898375 4.00837 0.898375C4.00837 0.898375 3.92405 0.707763 3.77323 0.605885C3.59034 0.482098 3.33382 0.442661 3.33382 0.442661L0.618998 0.457997C0.618998 0.457997 0.211656 0.468952 0.0620197 0.632177C-0.0709901 0.777873 0.0513314 1.07803 0.0513314 1.07803C0.0513314 1.07803 2.17711 5.66474 4.58316 7.97727C6.79089 10.097 9.2967 9.95787 9.2967 9.95787H10.432C10.432 9.95787 10.7752 9.92282 10.9498 9.74864C11.1113 9.5887 11.1054 9.28854 11.1054 9.28854C11.1054 9.28854 11.0828 7.88306 11.7906 7.67602C12.4877 7.47226 13.3832 9.03439 14.3321 9.6358C15.0494 10.0904 15.5945 9.99074 15.5945 9.99074L18.1323 9.95787C18.1323 9.95787 19.4601 9.88228 18.8306 8.91937Z" fill="#5181B8"/>
</svg>
