<svg width="144" height="37" viewBox="0 0 144 37" fill="none" xmlns="http://www.w3.org/2000/svg">
<g clip-path="url(#clip0_129_775)">
<path d="M16.9043 12.1222H19.3085C19.4754 12.1237 19.6416 12.145 19.8034 12.1857L19.9372 8.48828L16.9043 12.1222Z" fill="#1390CF"/>
<path d="M21.1836 9.23625L19.9347 8.48828L19.9198 8.63448L19.8115 12.19C19.8667 12.2027 19.9198 12.2196 19.9729 12.2366L20.4083 11.8319L21.1857 10.2724L21.3471 9.63672L21.1836 9.23625Z" fill="#33C0DD"/>
<path d="M21.8715 8.44825C21.6584 8.44801 21.4454 8.46288 21.2344 8.49275V9.29581L21.3363 9.43989L22.3409 9.56915L23.6535 9.5861L24.8811 9.53524C24.0375 8.83074 22.9717 8.44581 21.8715 8.44825Z" fill="#0099D6"/>
<path d="M24.8313 9.51183L21.2334 9.31689L19.8125 12.1541V12.188C19.8846 12.2046 19.9555 12.2258 20.0249 12.2516L21.7601 11.8447L23.5909 10.6772L25.1966 9.78517L24.8313 9.51183Z" fill="#96D8ED"/>
<path d="M24.9089 9.56046C24.8859 9.54336 24.8639 9.52497 24.843 9.50537L19.8115 12.1879C20.2851 12.3066 20.7055 12.5794 21.0063 12.9631C21.307 13.3468 21.4711 13.8196 21.4724 14.3068L21.5828 14.3174L23.0568 13.3448L24.4989 11.4378L24.9853 9.74269L24.9089 9.56046Z" fill="#1BA0DA"/>
<path d="M24.8431 9.50537L21.4746 14.3449L23.9043 14.8322L25.9475 13.9847L26.5422 13.7728C26.5704 13.5678 26.5846 13.3611 26.5847 13.1541C26.5838 12.4551 26.4271 11.7651 26.1259 11.134C25.8246 10.5029 25.3865 9.94663 24.8431 9.50537Z" fill="#1190CF"/>
<path d="M26.5845 13.1099L21.4872 14.3134L21.4575 14.3494C21.4562 14.4609 21.4462 14.5721 21.4277 14.6821L21.7484 15.6419L23.078 17.3604L23.7385 17.4938C24.5855 17.1282 25.3066 16.5233 25.8131 15.7537C26.3196 14.9841 26.5892 14.0835 26.5888 13.1628C26.5852 13.1454 26.5837 13.1276 26.5845 13.1099Z" fill="#056DB5"/>
<path d="M21.2369 15.2817C21.0696 15.6248 20.815 15.918 20.4986 16.1322C20.1822 16.3463 19.815 16.4739 19.4337 16.5022H16.6875L19.7608 19.9793L19.7735 19.992L19.9137 19.9814L20.1643 19.7229L21.1052 17.2417L21.3643 15.8136L21.2369 15.2817Z" fill="#1C3A69"/>
<path d="M21.4596 14.2729V14.3153C21.4585 14.7713 21.3153 15.2156 21.0497 15.5867L19.7754 19.9939C19.8798 19.983 19.9847 19.9773 20.0897 19.977C20.3237 19.9765 20.5566 20.0078 20.7821 20.0702H21.192L22.5216 18.9515L23.3966 18.1251L23.8469 17.5276L21.4596 14.2729Z" fill="#005893"/>
<path d="M24.448 18.2652L24.0848 17.5808C24.0105 17.5596 23.9382 17.5384 23.8724 17.5215L19.8115 19.9985C19.9036 19.99 19.9949 19.9857 20.0855 19.9857C20.7866 19.9874 21.4584 20.2666 21.9534 20.762C22.4484 21.2574 22.7261 21.9285 22.7255 22.628C22.7255 22.7043 22.7255 22.7806 22.7149 22.8547L23.8363 22.2191L24.5818 20.8714L24.448 18.2652Z" fill="#056DB5"/>
<path d="M23.8469 17.5146L22.7149 22.5873V22.6254C22.7148 22.7068 22.7106 22.7881 22.7021 22.8691L24.5457 23.4941L28.0947 23.545C28.1053 23.4094 28.1096 23.2738 28.1096 23.1361C28.1127 21.863 27.6976 20.624 26.9277 19.6088C26.1579 18.5935 25.0757 17.8579 23.8469 17.5146Z" fill="#005D9D"/>
<path d="M28.095 22.6808L22.7237 22.6172C22.7243 22.9122 22.6747 23.2053 22.5771 23.4838L22.7088 24.5433L23.2929 26.0371L24.5226 27.8212L25.2278 28.1602C26.1065 27.6437 26.8345 26.907 27.3397 26.0231C27.8449 25.1392 28.1097 24.139 28.1078 23.1215C28.1078 22.9795 28.095 22.8291 28.095 22.6808Z" fill="#1C3A69"/>
<path d="M22.7208 22.6191C22.7214 22.9656 22.6536 23.3087 22.5212 23.629C22.3888 23.9493 22.1945 24.2404 21.9494 24.4857C21.7042 24.7311 21.413 24.9259 21.0924 25.059C20.7718 25.192 20.4281 25.2608 20.0808 25.2614H19.707L19.8238 26.6175L23.2412 27.9312L24.7279 28.4185C24.9469 28.3159 25.1596 28.2006 25.3651 28.0732L22.7208 22.6191Z" fill="#134F7E"/>
<path d="M19.9586 25.2656H19.5742L18.9965 27.9503L18.7607 28.9546H22.3183C23.3967 28.9499 24.4523 28.6446 25.366 28.0732L19.9586 25.2656Z" fill="#1C3A69"/>
<path d="M19.9544 25.2681H16.4117L16.3438 25.3104L16.7261 26.4271L18.0875 28.565L18.7331 28.9592H19.4659L19.4637 28.9486L19.9544 25.2681Z" fill="#134F7E"/>
<path d="M16.4137 25.2617L16.1843 25.41L16.1524 25.4651L15.4728 26.9886L15.3135 27.3234V28.9528H19.4614L16.4137 25.2617Z" fill="#056DB5"/>
<path d="M15.3203 26.0009V28.9016L16.4184 25.272L15.3203 26.0009Z" fill="#1D4D82"/>
<path d="M9.92903 8.43311L7.94531 10.4185L11.1184 10.4969L9.92903 8.43311Z" fill="#4DA2D3"/>
<path d="M12.0704 8.43311L11.4375 10.2596L13.9734 10.0202L12.0704 8.43311Z" fill="#2D68B1"/>
<path d="M7.86914 27.232L9.60436 28.9865L10.6429 27.1621L7.86914 27.232Z" fill="#50A2D2"/>
<path d="M18.5713 6.23584V8.11741L20.1047 6.23584H18.5713Z" fill="#6AACD1"/>
<path d="M12.4043 6.43945L14.8531 7.85063L14.9084 6.5454L12.4043 6.43945Z" fill="#72CDE6"/>
<path d="M18.9682 29.2236L18.8896 31.0501H20.6334L18.9682 29.2236Z" fill="#42467F"/>
<path d="M19.9199 29.7007L21.5851 31.525V29.7007H19.9199Z" fill="#1C3A69"/>
<path d="M12.2616 29.3765L12.1533 31.0419L14.4493 31.1627L12.2616 29.3765Z" fill="#98CBE6"/>
<path d="M11.9111 23.4731L12.2446 26.715L15.0566 24.5834L11.9111 23.4731Z" fill="#056DB5"/>
<path d="M10.1309 25.4863L11.1015 27.2895L11.4902 25.5202L10.1309 25.4863Z" fill="#54A4D3"/>
<path d="M16.6603 21.9688L14.375 23.0049L16.7262 24.0919L16.6603 21.9688Z" fill="#0062A7"/>
<path d="M13.0619 21.708L12.3164 22.9094L14.4403 22.5534L13.0619 21.708Z" fill="#5CABD8"/>
<path d="M10.3887 20.7842L10.4227 22.2589H11.5568L10.3887 20.7842Z" fill="#1278B9"/>
<path d="M16.53 19.9072L15.8652 21.8079L17.5346 20.8501L16.53 19.9072Z" fill="#53A5D4"/>
<path d="M13.3232 17.979L14.279 21.3014L16.2245 19.5194L13.3232 17.979Z" fill="#0678BD"/>
<path d="M10.8428 19.8774L11.9281 20.5236L12.6736 19.2417L10.8428 19.8774Z" fill="#98CBE6"/>
<path d="M16.7891 17.4746L16.8209 19.0659L18.2312 19.1125L16.7891 17.4746Z" fill="#1279BB"/>
<path d="M12.3481 16.6968L11.832 17.913L12.7878 17.6524L12.3481 16.6968Z" fill="#54A4D3"/>
<path d="M16.2246 16.697L13.4189 16.0635L16.2565 18.5786L16.2246 16.697Z" fill="#4BA1D3"/>
<path d="M9.87012 16.0317L10.3883 16.8751L11.0871 16.4703L9.87012 16.0317Z" fill="#4DA2D3"/>
<path d="M11.5225 14.311L11.6372 16.4363L12.5441 15.8048L11.5225 14.311Z" fill="#92C7E6"/>
<path d="M12.7539 14.4105L16.3199 16.0315L17.0017 12.9019L12.7539 14.4105Z" fill="#21C1E4"/>
<path d="M10.2754 14.1012L10.6811 14.4572L10.6959 13.4189L10.2754 14.1012Z" fill="#92C6E4"/>
<path d="M11.0211 11.3784L10.5518 11.9293L11.4417 12.4463L11.0211 11.3784Z" fill="#4BA2D3"/>
<path d="M12.4971 10.4526L13.3041 13.3555L15.0564 11.4909L12.4971 10.4526Z" fill="#94D7EC"/>
<path d="M14.9266 26.3145L12.0254 28.4376L14.9436 30.8234L14.9266 26.3145Z" fill="#056DB5"/>
<path d="M11.2502 28.8828L10.373 29.5248H12.0424L11.2502 28.8828Z" fill="#2763A1"/>
<path d="M11.2627 6.26807L11.3455 7.75976L14.765 8.29584L11.2627 6.26807Z" fill="#38C3E3"/>
<path d="M19.4482 7.90573L20.9392 8.78295V6.20215L19.4482 7.90573Z" fill="#2D68B1"/>
<path d="M18.8604 8.42259L15.082 8.37598L15.8742 8.92477H15.8573L15.8827 8.94384L15.8084 9.06673C15.7774 9.08997 15.7387 9.10058 15.7001 9.0964L15.8679 9.85284L17.2633 10.177L17.3843 10.1537L17.6222 9.87615L18.8668 8.42471L18.8604 8.42259Z" fill="#6AACD1"/>
<path d="M15.8652 8.91211L15.4298 9.38038L15.4043 10.3741L16.3707 11.1475L16.4195 11.2281L16.4429 11.2408L17.6238 9.87408L15.8652 8.91211Z" fill="#72CDE6"/>
<path d="M15.8694 8.92474L12.6113 8.39502L16.4343 11.2322L15.8694 8.92474ZM15.8694 8.91203H15.8439L15.8736 8.92898L15.8694 8.91203Z" fill="#38C3E3"/>
<path d="M0 0V37H36.9409V0H0ZM34.3051 34.362H2.63575V2.63801H34.3051V34.362Z" fill="#0086FF"/>
<path d="M50.9803 7.50917C52.2717 7.07268 53.1871 6.02595 53.1871 4.31812C53.1871 1.8136 51.2501 0.624906 48.1471 0.624906H41.7754V15.2262H48.0472C50.5959 15.2262 53.7818 14.4528 53.7818 11.1367C53.769 8.99027 52.4161 7.92659 50.9803 7.50917ZM44.8954 3.20359H47.8688C49.243 3.20359 50.0777 3.72484 50.0777 4.87115C50.0777 6.01747 49.2281 6.54084 48.0345 6.54084H44.8933V3.20359H44.8954ZM47.9984 12.6941H44.8741V8.92458H48.1662C49.4172 8.92458 50.6448 9.25937 50.6448 10.804C50.6448 12.3911 49.3959 12.6835 47.9984 12.6835V12.6941ZM55.6657 15.2367H58.5626V0.00195312H55.6657V15.2367ZM66.0196 4.9326C63.1248 4.9326 60.4975 6.72518 60.4975 10.2298C60.4975 13.7345 63.1205 15.527 66.0196 15.527C68.9187 15.527 71.5417 13.7345 71.5417 10.2298C71.5417 6.72518 68.9357 4.92413 66.0196 4.92413V4.9326ZM66.0196 12.942C64.3736 12.942 63.4582 11.7745 63.4582 10.2298C63.4582 8.68515 64.3736 7.51764 66.0196 7.51764C67.6656 7.51764 68.6023 8.68727 68.6023 10.2298C68.6023 11.7724 67.6869 12.9335 66.0196 12.9335V12.942ZM75.8341 10.2298C75.8341 8.20628 77.3548 7.43501 78.9371 7.43501C79.8782 7.43547 80.8008 7.69582 81.6026 8.18721V5.64455C80.6516 5.14916 79.5937 4.89312 78.5209 4.8987C75.7492 4.8987 72.8756 6.52601 72.8756 10.3633C72.8756 13.9315 75.6026 15.5164 78.334 15.5164C79.4921 15.5279 80.6405 15.3037 81.7088 14.8575V12.2873C80.8515 12.7734 79.8808 13.0255 78.8947 13.0183C77.3315 13.0183 75.8341 12.1411 75.8341 10.2213V10.2298ZM93.541 5.21653H90.2915L87.7428 8.95001H86.5343V0.627025H83.6437V15.2283H86.5407V11.2554H87.7088L90.5825 15.2198H93.8341L90.1131 10.1599L93.541 5.21653ZM96.9584 10.2213C96.9584 8.19781 98.4791 7.42653 100.061 7.42653C101.003 7.4266 101.927 7.68696 102.729 8.17874V5.63607C101.776 5.14393 100.718 4.89084 99.6451 4.8987C96.8734 4.8987 93.9998 6.52601 93.9998 10.3633C93.9998 13.9315 96.729 15.5164 99.4582 15.5164C100.616 15.5279 101.765 15.3037 102.833 14.8575V12.2873C101.977 12.7736 101.007 13.0258 100.021 13.0183C98.4578 13.0183 96.9584 12.1411 96.9584 10.2213ZM110.666 4.92413C109.547 4.92472 108.472 5.35845 107.667 6.13401V0.624906H104.768V15.2283H107.665V8.69998C108.09 8.09398 108.873 7.42865 109.893 7.42865C111.019 7.42865 111.832 8.06432 111.832 9.41193V15.2283H114.729V9.03265C114.729 6.71671 113.291 4.92413 110.666 4.92413ZM126.007 12.6411V9.45007C126.007 6.1552 124.095 4.92413 121.09 4.92413C119.772 4.94932 118.465 5.17438 117.214 5.59158V8.09398C118.336 7.62129 119.539 7.36671 120.757 7.3439C122.318 7.3439 123.11 8.03253 123.11 9.039V9.39286C122.331 9.21645 121.534 9.1255 120.735 9.12164C118.735 9.12164 116.339 9.9141 116.339 12.4589C116.339 14.4422 117.966 15.5249 119.839 15.5249C121.15 15.5515 122.429 15.1156 123.45 14.2938C123.874 15.046 124.637 15.4211 125.656 15.4211C126.204 15.4146 126.747 15.3157 127.262 15.1287V13.2217C127.087 13.2775 126.904 13.3054 126.72 13.3043C126.334 13.3086 126.007 13.1624 126.007 12.6411ZM123.11 12.6411C122.489 13.1847 121.686 13.4752 120.861 13.4548C119.986 13.4548 119.297 12.9759 119.297 12.2237C119.297 11.2045 120.338 10.8485 121.402 10.8485C121.975 10.8626 122.545 10.9401 123.101 11.0795V12.6411H123.11ZM128.653 15.2283H131.548V5.21653H128.647L128.653 15.2283ZM130.091 0.273171C129.195 0.273171 128.392 0.773228 128.392 1.90048C128.392 3.02772 129.184 3.54685 130.091 3.54685C130.998 3.54685 131.79 3.04679 131.79 1.90048C131.79 0.754158 131 0.273171 130.085 0.273171H130.091ZM139.944 4.92413C139.307 4.92409 138.678 5.06443 138.101 5.33511C137.525 5.6058 137.015 6.00014 136.609 6.48998V5.21865H134.042V15.2283H136.939V8.69998C137.363 8.0961 138.147 7.42865 139.167 7.42865C140.292 7.42865 141.106 8.06432 141.106 9.41193V15.2283H144V9.03477C144 6.7167 142.573 4.92413 139.937 4.92413H139.944Z" fill="#0086FF"/>
<path d="M44.8948 22.1084H41.7705V36.7075H52.0417V33.8915H44.8948V22.1084ZM54.9981 21.7524C54.104 21.7524 53.3118 22.2525 53.3118 23.3797C53.3118 24.507 54.104 25.0282 54.9981 25.0282C55.8923 25.0282 56.7079 24.5282 56.7079 23.3797C56.7079 22.2313 55.9178 21.7524 54.9981 21.7524ZM53.5624 36.7075H56.4572V26.6958H53.5624V36.7075ZM59.9341 25.7148V26.6937H58.2052V29.1346H59.9341V36.7054H62.8098V29.1346H65.8725V26.6937H62.8119V25.8461C62.8119 24.5939 63.6615 24.2612 64.6045 24.2612C65.207 24.2578 65.801 24.4034 66.3334 24.685V22.2313C65.5452 21.9459 64.7124 21.8024 63.8739 21.8075C61.9794 21.816 59.9362 22.6975 59.9362 25.7148H59.9341ZM71.7047 26.4034C69.4576 26.4034 66.5606 27.9269 66.5606 31.7006C66.5606 35.1819 69.1858 36.9978 72.3525 36.9978C73.8541 36.9978 75.0796 36.769 76.0204 36.3622V34.0992C75.0668 34.5079 74.0381 34.7135 73.0003 34.7031C71.3542 34.7031 69.8144 34.0992 69.4788 32.6393H76.5196C77.1865 29.6898 75.8548 26.4034 71.7068 26.4034H71.7047ZM73.9135 30.7641H69.4534C69.4937 29.3889 70.5769 28.6155 71.8066 28.6155C73.6247 28.6155 74.0219 30.0754 73.9157 30.7641H73.9135Z" fill="#0086FF"/>
<path d="M87.5347 22.3944C90.2087 22.3944 92.0947 23.7208 92.0947 25.9224C92.0947 28.3273 90.0643 29.5923 88.0126 30.7958C85.8356 32.0671 83.6607 33.1817 83.6204 35.9426H92.2604V36.7308H82.7305V36.2753C82.7305 32.8321 85.2367 31.5226 87.5177 30.1962C89.4632 29.0371 91.2664 28.018 91.2664 25.9033C91.2664 24.223 89.7797 23.1636 87.4752 23.1636C85.9621 23.1756 84.4883 23.6455 83.2487 24.5112V23.7018C84.5045 22.8281 86.0039 22.3708 87.5347 22.3944Z" fill="#222222"/>
<path d="M100.67 22.3945C104.814 22.3945 106.761 25.4457 106.761 29.675C106.761 33.9043 104.814 36.9555 100.67 36.9555C96.5262 36.9555 94.5723 33.9043 94.5723 29.675C94.5723 25.4457 96.5475 22.3945 100.67 22.3945ZM100.67 23.1849C97.0848 23.1849 95.4091 25.7763 95.4091 29.6771C95.4091 33.578 97.087 36.1694 100.67 36.1694C104.253 36.1694 105.933 33.5759 105.933 29.6771C105.933 25.7784 104.257 23.1849 100.67 23.1849Z" fill="#222222"/>
<path d="M113.868 22.3944C116.542 22.3944 118.426 23.7209 118.426 25.9224C118.426 28.3273 116.395 29.5923 114.346 30.7958C112.169 32.0672 109.994 33.1817 109.951 35.9426H118.594V36.7308H109.062V36.2753C109.062 32.8321 111.57 31.5226 113.849 30.1962C115.796 29.0372 117.6 28.018 117.6 25.9033C117.6 24.223 116.113 23.1636 113.808 23.1636C112.295 23.1756 110.822 23.6455 109.582 24.5112V23.7018C110.838 22.8279 112.337 22.3705 113.868 22.3944Z" fill="#222222"/>
<path d="M124.811 22.4858H125.399V35.9535H128.3V36.7502H121.334V35.9535H124.552V23.3885L121.334 24.6047V23.808L124.811 22.4858Z" fill="#222222"/>
</g>
<defs>
<clipPath id="clip0_129_775">
<rect width="144" height="37" fill="white"/>
</clipPath>
</defs>
</svg>
