<svg xmlns="http://www.w3.org/2000/svg" xmlns:xlink="http://www.w3.org/1999/xlink"><symbol viewBox="0 0 7 7" id="arrow-lb" xmlns="http://www.w3.org/2000/svg"><path d="M.5 5.857a.5.5 0 00.5.5h4.5a.5.5 0 000-1h-4v-4a.5.5 0 00-1 0v4.5zM5.362.79L.647 5.504l.707.707 4.714-4.715L5.361.79z"/></symbol><symbol viewBox="0 0 9 16" id="arrow-left" xmlns="http://www.w3.org/2000/svg"><path d="M.293 8.707a1 1 0 010-1.414L6.657.929A1 1 0 018.07 2.343L2.414 8l5.657 5.657a1 1 0 11-1.414 1.414L.293 8.707zM2 9H1V7h1v2z" fill-opacity=".8"/></symbol><symbol viewBox="0 0 9 16" id="arrow-right" xmlns="http://www.w3.org/2000/svg"><path d="M8.707 8.707a1 1 0 000-1.414L2.343.929A1 1 0 00.93 2.343L6.586 8 .929 13.657a1 1 0 101.414 1.414l6.364-6.364zM7 9h1V7H7v2z" fill-opacity=".8"/></symbol><symbol viewBox="0 0 7 7" id="arrow-rt" xmlns="http://www.w3.org/2000/svg"><path d="M6.5 1.143a.5.5 0 00-.5-.5H1.5a.5.5 0 000 1h4v4a.5.5 0 001 0v-4.5zM1.638 6.21l4.714-4.715L5.646.79.932 5.504l.707.707z"/></symbol><symbol viewBox="0 0 32 32" id="arrow-up" xmlns="http://www.w3.org/2000/svg"><path d="M.256 23.481a1.063 1.063 0 001.813.75l14.119-14.119 13.913 13.912c.413.413 1.087.413 1.5 0s.413-1.087 0-1.5L16.938 7.855a1.065 1.065 0 00-1.5 0L.569 22.724a1.051 1.051 0 00-.313.756z"/></symbol><symbol viewBox="0 0 13 15" id="bookmark" xmlns="http://www.w3.org/2000/svg"><path d="M1.633 0C.743 0 .008.677.008 1.499L0 15l6.5-3 6.5 3V1.5c0-.82-.737-1.5-1.625-1.5H1.633zm0 1.5h9.742v11.335L6.5 10.397l-4.873 2.438L1.633 1.5z"/></symbol><symbol viewBox="0 0 20 18" id="chat" xmlns="http://www.w3.org/2000/svg"><path d="M5 4.15a.85.85 0 000 1.7v-1.7zm10 1.7a.85.85 0 000-1.7v1.7zM5 8.15a.85.85 0 000 1.7v-1.7zm4 1.7a.85.85 0 000-1.7v1.7zM10 17l-.601.601a.85.85 0 001.202 0L10 17zm-4-4l.601-.601A.85.85 0 006 12.15V13zm-5-2H.15 1zM3 1V.15 1zm14 0V.15 1zm-3 12v-.85a.85.85 0 00-.601.249L14 13zM5 5.85h10v-1.7H5v1.7zm0 4h4v-1.7H5v1.7zm5.601 6.549l-4-4-1.202 1.202 4 4 1.202-1.202zM6 12.15H3v1.7h3v-1.7zm-3 0a1.15 1.15 0 01-.813-.337L.985 13.015A2.85 2.85 0 003 13.85v-1.7zm-.813-.337A1.15 1.15 0 011.85 11H.15c0 .756.3 1.48.835 2.015l1.202-1.202zM1.85 11V3H.15v8h1.7zm0-8c0-.305.121-.598.337-.813L.985.985A2.85 2.85 0 00.15 3h1.7zm.337-.813A1.15 1.15 0 013 1.85V.15c-.756 0-1.48.3-2.015.835l1.202 1.202zM3 1.85h14V.15H3v1.7zm14 0c.305 0 .598.121.813.337L19.015.985A2.85 2.85 0 0017 .15v1.7zm.813.337c.216.215.337.508.337.813h1.7c0-.756-.3-1.48-.835-2.015l-1.202 1.202zM18.15 3v8h1.7V3h-1.7zm0 8c0 .305-.121.598-.337.813l1.202 1.202A2.85 2.85 0 0019.85 11h-1.7zm-.337.813a1.15 1.15 0 01-.813.337v1.7c.756 0 1.48-.3 2.015-.835l-1.202-1.202zM17 12.15h-3v1.7h3v-1.7zm-3.601.249l-4 4 1.202 1.202 4-4-1.202-1.202z"/></symbol><symbol viewBox="0 0 14 10" id="check" xmlns="http://www.w3.org/2000/svg"><path fill-rule="evenodd" clip-rule="evenodd" d="M13.695.293a1 1 0 010 1.414l-8 8a1 1 0 01-1.414 0l-4-4a1 1 0 011.414-1.414l3.293 3.293L12.28.293a1 1 0 011.414 0z"/></symbol><symbol viewBox="0 0 16 15" id="comment" xmlns="http://www.w3.org/2000/svg"><path d="M0 2a2 2 0 012-2h7a2 2 0 012 2v4a2 2 0 01-2 2H7l-3 3V8H2a2 2 0 01-2-2V2z"/><path d="M13 4v2a4 4 0 01-4 4H7.828l-1.766 1.767c.28.149.599.233.938.233h2l3 3v-3h2a2 2 0 002-2V6a2 2 0 00-2-2h-1z"/></symbol><symbol viewBox="0 0 13 13" id="dislike" xmlns="http://www.w3.org/2000/svg"><path d="M5.85 13l-.504-2.339-1.762-2.06a1.408 1.408 0 01-.334-.916V1.368C3.25.612 3.832 0 4.55 0h5.22c.482 0 .918.299 1.114.762l1.951 4.622c.108.256.165.533.165.814v.644c0 .753-.585 1.369-1.3 1.369H7.15s.65 1.622.65 2.83C7.8 12.917 5.85 13 5.85 13zM0 8.21V0h1.95v8.21H0z"/></symbol><symbol viewBox="0 0 12 12" id="edit" xmlns="http://www.w3.org/2000/svg"><path d="M9.058.522a1.711 1.711 0 112.42 2.42l-.679.679-2.42-2.42.679-.679zM7.169 2.411L0 9.58V12h2.42l7.17-7.17-2.42-2.42z"/></symbol><symbol viewBox="0 0 18 18" id="emoji" xmlns="http://www.w3.org/2000/svg"><path d="M9 0C4.022 0 0 4.022 0 9c0 4.977 4.022 9 9 9 4.977 0 9-4.023 9-9 0-4.978-4.023-9-9-9zm0 1.5c4.175 0 7.5 3.325 7.5 7.5s-3.325 7.5-7.5 7.5A7.459 7.459 0 011.5 9c0-4.175 3.325-7.5 7.5-7.5zM6 6a1.5 1.5 0 100 3 1.5 1.5 0 100-3zm6 0a1.5 1.5 0 100 3 1.5 1.5 0 100-3zm-6.14 5.133l-1.22.844A5.242 5.242 0 009 14.25a5.242 5.242 0 004.36-2.273l-1.22-.844c-.69 1.005-1.804 1.617-3.14 1.617s-2.45-.612-3.14-1.617z"/></symbol><symbol viewBox="0 0 20 18" id="exit" xmlns="http://www.w3.org/2000/svg"><path d="M14.293 12.293a1 1 0 001.414 1.414l-1.414-1.414zM19 9l.707.707a1 1 0 000-1.414L19 9zm-3.293-4.707a1 1 0 10-1.414 1.414l1.414-1.414zM5 8a1 1 0 000 2V8zm7 5a1 1 0 10-2 0h2zm-4 4v1-1zm-4 0v1-1zm-3-3H0h1zM1 4H0h1zm9 1a1 1 0 102 0h-2zm5.707 8.707l4-4-1.414-1.414-4 4 1.414 1.414zm4-5.414l-4-4-1.414 1.414 4 4 1.414-1.414zM19 8H5v2h14V8zm-9 5v1h2v-1h-2zm0 1a2 2 0 01-.586 1.414l1.414 1.414A4 4 0 0012 14h-2zm-.586 1.414A2 2 0 018 16v2a4 4 0 002.828-1.172l-1.414-1.414zM8 16H4v2h4v-2zm-4 0a2 2 0 01-1.414-.586l-1.414 1.414A4 4 0 004 18v-2zm-1.414-.586A2 2 0 012 14H0a4 4 0 001.172 2.828l1.414-1.414zM2 14V4H0v10h2zM2 4a2 2 0 01.586-1.414L1.172 1.172A4 4 0 000 4h2zm.586-1.414A2 2 0 014 2V0a4 4 0 00-2.828 1.172l1.414 1.414zM4 2h4V0H4v2zm4 0a2 2 0 011.414.586l1.414-1.414A4 4 0 008 0v2zm1.414.586A2 2 0 0110 4h2a4 4 0 00-1.172-2.828L9.414 2.586zM10 4v1h2V4h-2z"/></symbol><symbol viewBox="0 0 17 12" id="eye" xmlns="http://www.w3.org/2000/svg"><path d="M10.858 6h.7-.7zM8.5 3.857v-.7.7zM1 6l-.662-.229a.7.7 0 000 .458L1 6zm15 0l.662.229a.7.7 0 000-.458L16 6zm-5.842 0c0 .36-.157.72-.461.997l.941 1.036c.58-.527.92-1.256.92-2.033h-1.4zm-.461.997a1.784 1.784 0 01-1.197.446v1.4c.79 0 1.56-.285 2.138-.81l-.941-1.036zM8.5 7.443c-.46 0-.89-.167-1.197-.446l-.941 1.036c.577.525 1.347.81 2.138.81v-1.4zm-1.197-.446A1.35 1.35 0 016.842 6h-1.4c0 .777.34 1.506.92 2.033l.941-1.036zM6.842 6c0-.36.157-.72.461-.997l-.941-1.036A2.748 2.748 0 005.442 6h1.4zm.461-.997A1.784 1.784 0 018.5 4.557v-1.4c-.79 0-1.56.285-2.138.81l.941 1.036zM8.5 4.557c.46 0 .89.167 1.197.446l.941-1.036a3.183 3.183 0 00-2.138-.81v1.4zm1.197.446c.304.277.461.637.461.997h1.4c0-.777-.34-1.506-.92-2.033l-.941 1.036zM1.662 6.229C2.557 3.638 5.252 1.7 8.5 1.7V.3C4.71.3 1.446 2.566.338 5.771l1.324.458zM8.5 1.7c3.248 0 5.943 1.938 6.838 4.529l1.324-.458C15.554 2.566 12.29.3 8.5.3v1.4zm6.838 4.071C14.443 8.362 11.748 10.3 8.5 10.3v1.4c3.79 0 7.054-2.266 8.162-5.471l-1.324-.458zM8.5 10.3c-3.248 0-5.943-1.938-6.838-4.529L.338 6.23C1.446 9.434 4.71 11.7 8.5 11.7v-1.4z"/></symbol><symbol viewBox="0 0 11 18" id="facebook" xmlns="http://www.w3.org/2000/svg"><path d="M8.979 3.553h1.875V.94A30.202 30.202 0 008.122.824c-2.704 0-4.556 1.36-4.556 3.862v2.301H.582V9.91h2.984v7.35h3.658V9.91h2.863l.454-2.921H7.223V4.975c0-.844.285-1.422 1.756-1.422z"/></symbol><symbol viewBox="0 0 12 16" id="fire" xmlns="http://www.w3.org/2000/svg"><path d="M4.693 0C3.619 4.932 0 7.266 0 10.932 0 15.6 4.224 16 4.224 16c-.67-.466-1.474-1.867-1.474-2.867 0-1.867.937-2.466 1.474-4.534 1.207 1.068 1.207 2.469 1.207 2.469s1.677-2.469 1.205-5.534C11.6 9.867 9.588 14.667 7.576 16c0 0 4.423-.333 4.423-5.068C12.069 3.401 4.693 0 4.693 0z"/></symbol><symbol viewBox="0 0 14 13" id="google" xmlns="http://www.w3.org/2000/svg"><path d="M6.5 0C2.922 0 0 2.922 0 6.5S2.922 13 6.5 13c3.379 0 6.172-2.602 6.469-5.91L13.066 6H7v2h3.672c-.625 1.734-2.215 3-4.172 3A4.486 4.486 0 012 6.5C2 4.004 4.004 2 6.5 2a4.48 4.48 0 013.07 1.21l1.367-1.46A6.49 6.49 0 006.5 0z"/></symbol><symbol viewBox="0 0 20 18" id="hearth" xmlns="http://www.w3.org/2000/svg"><path d="M2.318 2.318a4.5 4.5 0 000 6.364L10 16.364l7.682-7.682a4.5 4.5 0 10-6.364-6.364L10 3.636 8.682 2.318a4.5 4.5 0 00-6.364 0z"/></symbol><symbol viewBox="0 0 4 12" id="info" xmlns="http://www.w3.org/2000/svg"><path d="M2.008 0a1.5 1.5 0 10.001 3.001A1.5 1.5 0 002.008 0zm-1 4.5a1 1 0 00-.215 1.979L.147 9.705v.004c-.18.906.545 1.791 1.47 1.791h.391a1 1 0 00.215-1.979l.646-3.226C3.051 5.388 2.324 4.5 1.4 4.5h-.391z"/></symbol><symbol viewBox="0 0 16 16" id="insta" xmlns="http://www.w3.org/2000/svg"><path d="M15.476 4.874c-.038-.818-.168-1.377-.358-1.865a3.765 3.765 0 00-.886-1.361 3.768 3.768 0 00-1.36-.887c-.49-.19-1.048-.32-1.866-.357-.82-.037-1.081-.046-3.168-.046S5.49.367 4.67.404c-.818.038-1.376.167-1.865.357a3.766 3.766 0 00-1.361.887c-.39.383-.694.848-.886 1.36-.19.49-.32 1.048-.357 1.866-.038.82-.047 1.08-.047 3.168 0 2.087.01 2.348.047 3.168.037.818.167 1.376.357 1.865.193.513.495.977.886 1.36.384.392.848.694 1.361.887.489.19 1.047.32 1.865.357.82.038 1.082.047 3.168.047 2.087 0 2.349-.01 3.168-.047.818-.037 1.377-.167 1.865-.357a3.928 3.928 0 002.247-2.247c.19-.489.32-1.047.358-1.865.037-.82.046-1.081.046-3.168s-.009-2.349-.046-3.168zm-1.383 6.273c-.034.75-.16 1.156-.265 1.427-.258.67-.788 1.2-1.458 1.458-.27.105-.678.23-1.427.264-.81.038-1.053.045-3.105.045s-2.295-.007-3.105-.044c-.749-.035-1.156-.16-1.427-.265a2.383 2.383 0 01-.883-.575 2.381 2.381 0 01-.575-.883c-.105-.271-.23-.678-.264-1.427-.037-.81-.045-1.053-.045-3.105s.008-2.295.045-3.105c.034-.75.159-1.156.264-1.427.123-.334.32-.636.575-.883a2.38 2.38 0 01.883-.575c.271-.106.678-.23 1.427-.265.81-.037 1.053-.045 3.105-.045s2.295.008 3.105.045c.75.034 1.156.16 1.427.265.334.123.635.32.883.575.255.247.452.55.575.883.105.27.23.678.265 1.427.037.81.044 1.053.044 3.105s-.007 2.295-.044 3.105z"/><path d="M7.838 4.096a3.946 3.946 0 100 7.892 3.946 3.946 0 000-7.892zm0 6.507a2.561 2.561 0 110-5.122 2.561 2.561 0 010 5.122zM12.862 3.94a.922.922 0 11-1.844 0 .922.922 0 011.844 0z"/></symbol><symbol viewBox="0 0 21 18" id="invalid" xmlns="http://www.w3.org/2000/svg"><path d="M10.464 0c-.563 0-1.126.262-1.441.787L.226 15.422c-.648 1.078.181 2.549 1.44 2.549H19.26c1.258 0 2.09-1.471 1.442-2.55L11.905.788C11.59.262 11.027 0 10.464 0zm0 2.27l8.237 13.7H2.228l8.236-13.7zm-1 3.7v5h2v-5h-2zm0 7v2h2v-2h-2z"/></symbol><symbol viewBox="0 0 13 13" id="like" xmlns="http://www.w3.org/2000/svg"><path d="M5.85 0l-.504 2.339-1.762 2.06a1.408 1.408 0 00-.334.916v6.317c0 .756.582 1.368 1.3 1.368h5.22c.482 0 .918-.299 1.114-.762l1.951-4.622c.108-.256.165-.533.165-.814v-.644c0-.753-.585-1.369-1.3-1.369H7.15s.65-1.622.65-2.83C7.8.083 5.85 0 5.85 0zM0 4.79V13h1.95V4.79H0z"/></symbol><symbol viewBox="0 0 20 20" id="loop" xmlns="http://www.w3.org/2000/svg"><path d="M18.293 19.707a1 1 0 001.414-1.414l-1.414 1.414zm-4.586-7.414a1 1 0 00-1.414 1.414l1.414-1.414zM8 15v1-1zM1 8H0h1zm7-7v1-1zm11.707 17.293l-6-6-1.414 1.414 6 6 1.414-1.414zM14 8a6 6 0 01-.457 2.296l1.848.766C15.793 10.09 16 9.05 16 8h-2zm-.457 2.296a6 6 0 01-1.3 1.947l1.414 1.414a8 8 0 001.734-2.595l-1.848-.766zm-1.3 1.947a6 6 0 01-1.947 1.3l.766 1.848a8 8 0 002.595-1.734l-1.414-1.414zm-1.947 1.3A6 6 0 018 14v2c1.05 0 2.09-.207 3.062-.609l-.766-1.848zM8 14a6 6 0 01-2.296-.457l-.765 1.848c.97.402 2.01.609 3.061.609v-2zm-2.296-.457a6 6 0 01-1.947-1.3l-1.414 1.414A8 8 0 004.94 15.39l.765-1.848zm-1.947-1.3a5.999 5.999 0 01-1.3-1.947l-1.848.766a8 8 0 001.734 2.595l1.414-1.414zm-1.3-1.947A6 6 0 012 8H0a8 8 0 00.609 3.062l1.848-.766zM2 8a6 6 0 011.757-4.243L2.343 2.343A8 8 0 000 8h2zm1.757-4.243A6 6 0 018 2V0a8 8 0 00-5.657 2.343l1.414 1.414zM8 2a6 6 0 014.243 1.757l1.414-1.414A8 8 0 008 0v2zm4.243 1.757A6 6 0 0114 8h2a8 8 0 00-2.343-5.657l-1.414 1.414z"/></symbol><symbol viewBox="0 0 17 17" id="mail" xmlns="http://www.w3.org/2000/svg"><path d="M8.5 0C3.813 0 0 3.813 0 8.5 0 13.187 3.813 17 8.5 17c4.687 0 8.5-3.813 8.5-8.5C17 3.813 13.187 0 8.5 0zM5.1 4.675h6.8c.641 0 1.167.475 1.257 1.092L8.5 7.965 3.843 5.767A1.271 1.271 0 015.1 4.675zM3.825 7.169l4.403 2.077a.638.638 0 00.544 0l4.403-2.077v3.881c0 .704-.57 1.275-1.275 1.275H5.1c-.704 0-1.275-.57-1.275-1.275V7.169z"/></symbol><symbol viewBox="0 0 19 4" id="more" xmlns="http://www.w3.org/2000/svg"><circle cx="2" cy="2" r="2"/><circle cx="9.199" cy="2" r="2"/><circle cx="16.398" cy="2" r="2"/></symbol><symbol viewBox="0 0 13 16" id="next" xmlns="http://www.w3.org/2000/svg"><path d="M12.707 8.707a1 1 0 000-1.414L6.343.929A1 1 0 004.93 2.343L10.586 8l-5.657 5.657a1 1 0 101.414 1.414l6.364-6.364zM0 9h12V7H0v2z"/></symbol><symbol viewBox="0 0 14 18" id="notify" xmlns="http://www.w3.org/2000/svg"><path d="M7 0c-.724 0-1.313.605-1.313 1.35v.626C3.425 2.576 1.75 4.684 1.75 7.2v5.4L0 14.4v.9h5.486a1.84 1.84 0 00.277 2.173C6.09 17.81 6.536 18 7 18c.464 0 .91-.19 1.237-.527a1.826 1.826 0 00.275-2.173H14v-.9l-1.75-1.8V7.2c0-2.516-1.674-4.624-3.938-5.224V1.35C8.313.605 7.726 0 7 0zm0 3.6c1.93 0 3.5 1.615 3.5 3.6v6.145l.15.155h-7.3l.15-.155V7.2c0-1.985 1.57-3.6 3.5-3.6z"/></symbol><symbol viewBox="0 0 38 38" id="ok" xmlns="http://www.w3.org/2000/svg"><path d="M13.707 18.293a1 1 0 00-1.414 1.414l1.414-1.414zM17 23l-.707.707a1 1 0 001.414 0L17 23zm8.707-7.293a1 1 0 00-1.414-1.414l1.414 1.414zM19 1v1-1zm-6.707 18.707l4 4 1.414-1.414-4-4-1.414 1.414zm5.414 4l8-8-1.414-1.414-8 8 1.414 1.414zM36 19a17 17 0 01-1.294 6.506l1.848.765A19 19 0 0038 19h-2zm-1.294 6.506a17 17 0 01-3.685 5.515l1.414 1.414a19 19 0 004.119-6.164l-1.848-.765zm-3.685 5.515a17 17 0 01-5.515 3.685l.765 1.848a19 19 0 006.164-4.119l-1.414-1.414zm-5.515 3.685A17 17 0 0119 36v2a19 19 0 007.271-1.446l-.765-1.848zM19 36a17 17 0 01-6.506-1.294l-.765 1.848A19 19 0 0019 38v-2zm-6.506-1.294a17 17 0 01-5.515-3.685l-1.414 1.414a19 19 0 006.164 4.119l.765-1.848zM6.98 31.021a17 17 0 01-3.685-5.515l-1.848.765a19 19 0 004.119 6.164l1.414-1.414zm-3.685-5.515A17 17 0 012 19H0a19 19 0 001.446 7.271l1.848-.765zM2 19A17 17 0 016.98 6.98L5.564 5.564A19 19 0 000 19h2zM6.98 6.98A17 17 0 0119 2V0A19 19 0 005.565 5.565l1.414 1.414zM19 2a17 17 0 0112.02 4.98l1.415-1.415A19 19 0 0019 0v2zm12.02 4.98A17 17 0 0136 19h2a19 19 0 00-5.565-13.435l-1.414 1.414z"/></symbol><symbol viewBox="0 0 13 16" id="pag" xmlns="http://www.w3.org/2000/svg"><path d="M12.707 8.707a1 1 0 000-1.414L6.343.929A1 1 0 004.93 2.343L10.586 8l-5.657 5.657a1 1 0 101.414 1.414l6.364-6.364zM0 9h12V7H0v2z"/></symbol><symbol viewBox="0 0 22 19" id="paper" xmlns="http://www.w3.org/2000/svg"><path fill-rule="evenodd" clip-rule="evenodd" d="M0 2.714C0 1.215 1.231 0 2.75 0h11c1.519 0 2.75 1.215 2.75 2.714v13.572c0 1.499 1.231 2.714 2.75 2.714H2.75C1.231 19 0 17.785 0 16.286V2.714zm4.125 1.357h8.25V9.5h-8.25V4.071zm8.25 8.143h-8.25v2.715h8.25v-2.715z"/><path d="M17.875 5.429h1.375c1.519 0 2.75 1.215 2.75 2.714v7.464c0 1.124-.923 2.036-2.063 2.036-1.139 0-2.062-.912-2.062-2.036V5.43z"/></symbol><symbol viewBox="0 0 14 14" id="play" xmlns="http://www.w3.org/2000/svg"><path d="M.636 0a.667.667 0 00-.45.17A.56.56 0 000 .587v12.831a.56.56 0 00.186.412.677.677 0 00.82.061v.002L13.629 7.53a.624.624 0 00.27-.215.548.548 0 00-.004-.638.627.627 0 00-.283-.215L1.007.108h-.001A.677.677 0 00.636 0z"/></symbol><symbol viewBox="0 0 13 16" id="prev" xmlns="http://www.w3.org/2000/svg"><path d="M.293 7.293a1 1 0 000 1.414l6.364 6.364a1 1 0 001.414-1.414L2.414 8l5.657-5.657A1 1 0 006.657.93L.293 7.293zM13 7H1v2h12V7z"/></symbol><symbol viewBox="0 0 18 8" id="rarr" xmlns="http://www.w3.org/2000/svg"><path d="M17.354 4.354a.5.5 0 000-.708L14.172.464a.5.5 0 10-.708.708L16.293 4l-2.829 2.828a.5.5 0 10.708.708l3.182-3.182zM0 4.5h17v-1H0v1z"/></symbol><symbol viewBox="0 0 10 10" id="remove" xmlns="http://www.w3.org/2000/svg"><path d="M.293 8.293a1 1 0 001.414 1.414L.293 8.293zm9.414-6.586A1 1 0 008.293.293l1.414 1.414zm-8-1.414A1 1 0 00.293 1.707L1.707.293zm6.586 9.414a1 1 0 001.414-1.414L8.293 9.707zm-6.586 0l8-8L8.293.293l-8 8 1.414 1.414zm-1.414-8l8 8 1.414-1.414-8-8L.293 1.707z"/></symbol><symbol viewBox="0 0 11 10" id="reply" xmlns="http://www.w3.org/2000/svg"><path fill-rule="evenodd" clip-rule="evenodd" d="M3.923.21a.729.729 0 01.202.504c0 .19-.073.371-.202.505L2.347 2.857h3.84c1.277 0 2.5.527 3.403 1.465A5.1 5.1 0 0111 7.857v1.429c0 .19-.072.37-.201.505a.675.675 0 01-.486.209.675.675 0 01-.487-.21.729.729 0 01-.201-.504V7.857c0-.947-.362-1.856-1.007-2.525a3.373 3.373 0 00-2.43-1.046H2.346l1.576 1.638a.716.716 0 01.21.507.739.739 0 01-.201.511.686.686 0 01-.492.21.665.665 0 01-.489-.218L.201 4.076A.729.729 0 010 3.571c0-.19.072-.37.201-.505L2.951.21A.675.675 0 013.437 0c.183 0 .358.075.486.21z"/></symbol><symbol viewBox="0 0 18 15" id="send" xmlns="http://www.w3.org/2000/svg"><path fill-rule="evenodd" clip-rule="evenodd" d="M1.34.023C.587.177 0 .907 0 1.69c0 .108.182.892.496 2.132.274 1.078.565 2.232.65 2.563l.152.604h3.108c2.891 0 3.116.004 3.226.06a.508.508 0 010 .9c-.11.055-.335.06-3.226.06H1.298l-.153.603a5542.4 5542.4 0 01-.649 2.563C.182 12.415 0 13.198 0 13.306c0 .808.597 1.526 1.39 1.67.26.048.567.023.82-.065.427-.149 14.209-5.898 14.374-5.996.462-.275.784-.858.784-1.417 0-.56-.322-1.143-.784-1.417C16.419 5.982 2.644.236 2.205.082A2.006 2.006 0 001.34.023z"/></symbol><symbol viewBox="0 0 21 21" id="target" xmlns="http://www.w3.org/2000/svg"><path d="M9.625 0v2.652a7.855 7.855 0 00-6.973 6.973H0v1.75h2.652a7.855 7.855 0 006.973 6.973V21h1.75v-2.652a7.855 7.855 0 006.973-6.973H21v-1.75h-2.652a7.855 7.855 0 00-6.973-6.973V0h-1.75zm.875 3.938c3.589 0 6.563 2.973 6.563 6.562 0 3.589-2.974 6.563-6.563 6.563-3.589 0-6.563-2.974-6.563-6.563 0-3.589 2.974-6.563 6.563-6.563zM10.5 7A3.498 3.498 0 007 10.5c0 1.935 1.565 3.5 3.5 3.5s3.5-1.565 3.5-3.5S12.435 7 10.5 7z"/></symbol><symbol viewBox="0 0 21 20" id="telegram" xmlns="http://www.w3.org/2000/svg"><path d="M.722 9.663l4.734 1.826 1.832 6.091a.55.55 0 00.885.276l2.639-2.224a.767.767 0 01.96-.028l4.758 3.572c.328.246.792.06.874-.349l3.487-17.335c.09-.447-.335-.82-.747-.655L.717 8.584c-.48.191-.476.893.005 1.079zm6.27.854l9.252-5.89c.166-.105.337.127.195.264l-7.635 7.336a1.655 1.655 0 00-.49.979l-.26 1.992a.238.238 0 01-.468.035l-1-3.633a.978.978 0 01.407-1.083z"/></symbol><symbol viewBox="0 0 16 16" id="time" xmlns="http://www.w3.org/2000/svg"><path d="M9 4.889a1 1 0 10-2 0h2zM8 8H7a1 1 0 00.293.707L8 8zm1.626 3.04a1 1 0 101.414-1.414L9.626 11.04zM15 8h-1 1zM8 1v1-1zM7 4.889V8h2V4.889H7zm.293 3.818l2.333 2.333 1.414-1.414-2.333-2.333-1.414 1.414zM14 8a6 6 0 01-.457 2.296l1.848.766C15.793 10.09 16 9.05 16 8h-2zm-.457 2.296a6 6 0 01-1.3 1.947l1.414 1.414a8 8 0 001.734-2.595l-1.848-.766zm-1.3 1.947a6 6 0 01-1.947 1.3l.766 1.848a8 8 0 002.595-1.734l-1.414-1.414zm-1.947 1.3A6 6 0 018 14v2c1.05 0 2.09-.207 3.062-.609l-.766-1.848zM8 14a6 6 0 01-2.296-.457l-.765 1.848c.97.402 2.01.609 3.061.609v-2zm-2.296-.457a6 6 0 01-1.947-1.3l-1.414 1.414A8 8 0 004.94 15.39l.765-1.848zm-1.947-1.3a5.999 5.999 0 01-1.3-1.947l-1.848.766a8 8 0 001.734 2.595l1.414-1.414zm-1.3-1.947A6 6 0 012 8H0a8 8 0 00.609 3.062l1.848-.766zM2 8a6 6 0 011.757-4.243L2.343 2.343A8 8 0 000 8h2zm1.757-4.243A6 6 0 018 2V0a8 8 0 00-5.657 2.343l1.414 1.414zM8 2a6 6 0 014.243 1.757l1.414-1.414A8 8 0 008 0v2zm4.243 1.757A6 6 0 0114 8h2a8 8 0 00-2.343-5.657l-1.414 1.414z"/></symbol><symbol viewBox="0 0 21 18" id="twitter" xmlns="http://www.w3.org/2000/svg"><path d="M20.815 2.77a8.888 8.888 0 01-2.427.655 4.135 4.135 0 001.853-2.292 8.497 8.497 0 01-2.67 1.003A4.251 4.251 0 0014.493.824c-2.332 0-4.209 1.864-4.209 4.148 0 .329.028.645.098.946A11.983 11.983 0 011.702 1.58a4.126 4.126 0 00-.577 2.096c0 1.436.751 2.71 1.871 3.447a4.21 4.21 0 01-1.903-.511v.045c0 2.016 1.46 3.69 3.375 4.075a4.265 4.265 0 01-1.105.136c-.27 0-.542-.015-.797-.07A4.244 4.244 0 006.5 13.686a8.547 8.547 0 01-5.222 1.77c-.345 0-.676-.016-1.008-.058a11.992 11.992 0 006.461 1.861c7.75 0 11.988-6.321 11.988-11.8 0-.183-.007-.36-.016-.536a8.332 8.332 0 002.111-2.153z"/></symbol><symbol viewBox="0 0 20 20" id="user" xmlns="http://www.w3.org/2000/svg"><path d="M2.703 15.064a.85.85 0 00.836 1.48l-.836-1.48zM10 14l-.001.85H10V14zm6.46 2.544a.85.85 0 00.837-1.48l-.836 1.48zM13 8h.85H13zm-3-3v-.85V5zm0-4v.85V1zM3.54 16.544a13.087 13.087 0 016.459-1.694l.002-1.7a14.787 14.787 0 00-7.298 1.914l.836 1.48zM10 14.85c2.35 0 4.553.615 6.46 1.694l.837-1.48A14.782 14.782 0 0010 13.15v1.7zM12.15 8a2.15 2.15 0 01-.63 1.52l1.202 1.202A3.85 3.85 0 0013.85 8h-1.7zm-.63 1.52a2.15 2.15 0 01-1.52.63v1.7c1.021 0 2-.406 2.722-1.128L11.52 9.52zm-1.52.63a2.15 2.15 0 01-1.52-.63l-1.202 1.202A3.85 3.85 0 0010 11.85v-1.7zm-1.52-.63A2.15 2.15 0 017.85 8h-1.7c0 1.021.406 2 1.128 2.722L8.48 9.52zM7.85 8c0-.57.227-1.117.63-1.52L7.278 5.278A3.85 3.85 0 006.15 8h1.7zm.63-1.52A2.15 2.15 0 0110 5.85v-1.7c-1.021 0-2 .406-2.722 1.128L8.48 6.48zM10 5.85c.57 0 1.117.227 1.52.63l1.202-1.202A3.85 3.85 0 0010 4.15v1.7zm1.52.63c.404.403.63.95.63 1.52h1.7c0-1.021-.406-2-1.128-2.722L11.52 6.48zM18.15 10c0 1.07-.21 2.13-.62 3.119l1.57.65A9.85 9.85 0 0019.85 10h-1.7zm-.62 3.119a8.15 8.15 0 01-1.767 2.644l1.202 1.202a9.85 9.85 0 002.135-3.196l-1.57-.65zm-1.767 2.644a8.15 8.15 0 01-2.644 1.767l.65 1.57a9.85 9.85 0 003.196-2.135l-1.202-1.202zm-2.644 1.767a8.15 8.15 0 01-3.119.62v1.7a9.85 9.85 0 003.77-.75l-.651-1.57zM10 18.15a8.15 8.15 0 01-3.119-.62l-.65 1.57a9.85 9.85 0 003.769.75v-1.7zm-3.119-.62a8.15 8.15 0 01-2.644-1.767l-1.202 1.202c.915.915 2 1.64 3.196 2.135l.65-1.57zm-2.644-1.767a8.15 8.15 0 01-1.767-2.644l-1.57.65a9.85 9.85 0 002.135 3.196l1.202-1.202zM2.47 13.119A8.15 8.15 0 011.85 10H.15a9.85 9.85 0 00.75 3.77l1.57-.651zM1.85 10a8.15 8.15 0 012.387-5.763L3.035 3.035A9.85 9.85 0 00.15 10h1.7zm2.387-5.763A8.15 8.15 0 0110 1.85V.15a9.85 9.85 0 00-6.965 2.885l1.202 1.202zM10 1.85a8.15 8.15 0 015.763 2.387l1.202-1.202A9.85 9.85 0 0010 .15v1.7zm5.763 2.387A8.15 8.15 0 0118.15 10h1.7a9.85 9.85 0 00-2.885-6.965l-1.202 1.202z"/></symbol><symbol viewBox="0 0 20 20" id="valid" xmlns="http://www.w3.org/2000/svg"><path d="M7.707 9.293a1 1 0 00-1.414 1.414l1.414-1.414zM9 12l-.707.707a1 1 0 001.414 0L9 12zm4.707-3.293a1 1 0 00-1.414-1.414l1.414 1.414zM10 1v1-1zm-3.707 9.707l2 2 1.414-1.414-2-2-1.414 1.414zm3.414 2l4-4-1.414-1.414-4 4 1.414 1.414zM18 10c0 1.05-.207 2.09-.609 3.062l1.848.765A10 10 0 0020 10h-2zm-.609 3.062a8 8 0 01-1.734 2.595l1.414 1.414a10 10 0 002.168-3.244l-1.848-.765zm-1.734 2.595a8 8 0 01-2.595 1.734l.765 1.848a10 10 0 003.244-2.168l-1.414-1.414zm-2.595 1.734C12.09 17.793 11.05 18 10 18v2a10 10 0 003.827-.761l-.765-1.848zM10 18c-1.05 0-2.09-.207-3.061-.609l-.766 1.848A10 10 0 0010 20v-2zm-3.061-.609a8 8 0 01-2.596-1.734L2.93 17.07a10 10 0 003.244 2.168l.766-1.848zm-2.596-1.734a8 8 0 01-1.734-2.595l-1.848.765A10 10 0 002.93 17.07l1.414-1.414zM2.61 13.062A8 8 0 012 10H0a10 10 0 00.761 3.827l1.848-.765zM2 10a8 8 0 012.343-5.657L2.93 2.93A10 10 0 000 10h2zm2.343-5.657A8 8 0 0110 2V0a10 10 0 00-7.071 2.929l1.414 1.414zM10 2a8 8 0 015.657 2.343L17.07 2.93A10 10 0 0010 0v2zm5.657 2.343A8 8 0 0118 10h2a10 10 0 00-2.929-7.071l-1.414 1.414z"/></symbol><symbol viewBox="0 0 21 12" id="vk" xmlns="http://www.w3.org/2000/svg"><path d="M19.876 10.095c-.053-.081-.377-.732-1.939-2.068-1.634-1.4-1.415-1.173.554-3.593 1.2-1.474 1.679-2.374 1.529-2.76-.143-.366-1.025-.27-1.025-.27l-2.933.016s-.217-.027-.379.062c-.157.088-.259.29-.259.29s-.464 1.142-1.084 2.112c-1.307 2.046-1.83 2.154-2.043 2.027-.497-.296-.372-1.19-.372-1.825 0-1.984.325-2.81-.636-3.025-.32-.07-.554-.118-1.37-.126-1.047-.01-1.933.004-2.435.23-.334.15-.591.487-.434.506.194.024.633.11.866.402.301.377.29 1.225.29 1.225s.174 2.335-.403 2.626c-.397.199-.94-.207-2.105-2.065-.596-.951-1.047-2.003-1.047-2.003s-.087-.196-.242-.3c-.188-.128-.451-.168-.451-.168l-2.789.016s-.418.01-.572.178c-.137.15-.011.458-.011.458S2.769 6.752 5.24 9.127c2.268 2.178 4.842 2.035 4.842 2.035h1.166s.352-.036.532-.215c.165-.165.16-.473.16-.473s-.024-1.444.703-1.656c.716-.21 1.636 1.395 2.61 2.013.738.467 1.298.364 1.298.364l2.606-.033s1.364-.078.718-1.067z"/></symbol></svg>