<svg width="60" height="60" viewBox="0 0 60 60" fill="none" xmlns="http://www.w3.org/2000/svg">
<path d="M30 0C22.0435 0 14.4129 3.16071 8.7868 8.7868C3.16071 14.4129 0 22.0435 0 30C0 37.9565 3.16071 45.5871 8.7868 51.2132C14.4129 56.8393 22.0435 60 30 60C37.9565 60 45.5871 56.8393 51.2132 51.2132C56.8393 45.5871 60 37.9565 60 30C60 22.0435 56.8393 14.4129 51.2132 8.7868C45.5871 3.16071 37.9565 0 30 0Z" fill="url(#paint0_linear_129_408)"/>
<path d="M44.925 16.5L39.306 45.189C39.306 45.189 39.0645 46.5 37.4385 46.5C36.5745 46.5 36.129 46.089 36.129 46.089L23.958 35.9895L18.003 32.988L10.3605 30.9555C10.3605 30.9555 9 30.5625 9 29.4375C9 28.5 10.3995 28.053 10.3995 28.053L42.3735 15.351C42.372 15.3495 43.35 14.9985 44.0625 15C44.5005 15 45 15.1875 45 15.75C45 16.125 44.925 16.5 44.925 16.5Z" fill="white"/>
<path d="M28.5002 39.7575L23.3612 44.8185C23.3612 44.8185 23.1377 44.991 22.8392 44.9985C22.7357 45.0015 22.6247 44.985 22.5107 44.934L23.9567 35.9865L28.5002 39.7575Z" fill="#B0BEC5"/>
<path d="M38.8455 21.294C38.592 20.964 38.124 20.904 37.794 21.1545L18 33C18 33 21.159 41.838 21.6405 43.368C22.1235 44.8995 22.5105 44.9355 22.5105 44.9355L23.9565 35.988L38.7045 22.344C39.0345 22.0935 39.096 21.624 38.8455 21.294Z" fill="#CFD8DC"/>
<defs>
<linearGradient id="paint0_linear_129_408" x1="30" y1="0" x2="30" y2="60" gradientUnits="userSpaceOnUse">
<stop stop-color="#2EA6E2"/>
<stop offset="1" stop-color="#0B81BC"/>
</linearGradient>
</defs>
</svg>
