<svg width="51" height="51" viewBox="0 0 51 51" fill="none" xmlns="http://www.w3.org/2000/svg">
<path d="M45.9 36.0188C45.475 38.25 43.6688 39.95 41.4375 40.2688C37.9313 40.8 32.0875 41.4375 25.5 41.4375C19.0188 41.4375 13.175 40.8 9.5625 40.2688C7.33125 39.95 5.525 38.25 5.1 36.0188C4.675 33.575 4.25 29.9625 4.25 25.5C4.25 21.0375 4.675 17.425 5.1 14.9813C5.525 12.75 7.33125 11.05 9.5625 10.7313C13.0688 10.2 18.9125 9.5625 25.5 9.5625C32.0875 9.5625 37.825 10.2 41.4375 10.7313C43.6688 11.05 45.475 12.75 45.9 14.9813C46.325 17.425 46.8562 21.0375 46.8562 25.5C46.75 29.9625 46.325 33.575 45.9 36.0188Z" fill="#FF3D00"/>
<path d="M21.25 32.9375V18.0625L34 25.5L21.25 32.9375Z" fill="white"/>
</svg>
