<svg width="174" height="58" viewBox="0 0 174 58" fill="none" xmlns="http://www.w3.org/2000/svg">
<path fill-rule="evenodd" clip-rule="evenodd" d="M154.318 26.0361L153.469 26.3832L151.685 27.3074L150.633 28.0509L149.619 28.8423L149.609 28.85L149.599 28.8568C148.604 29.5272 147.768 30.3082 146.879 31.1059L146.874 31.1109L146.868 31.1158L146.064 31.7768L146.059 31.7813L146.054 31.7854L143.65 33.6142L143.636 33.625L143.621 33.6341L142.664 34.221L142.651 34.2291L142.637 34.2359L141.384 34.8616L141.378 34.8643L141.372 34.8665L140.364 35.3261C139.621 35.6661 138.852 35.9735 138.092 36.2742C137.388 36.5532 136.68 36.825 135.97 37.0895C135.735 37.1766 135.5 37.2633 135.264 37.3464C135.195 37.3703 135.126 37.3942 135.056 37.4164C135.032 37.4236 135.008 37.4313 134.983 37.4371C134.942 37.4474 134.9 37.451 134.858 37.448C134.809 37.462 134.752 37.4845 134.71 37.5003C134.58 37.5482 134.452 37.601 134.323 37.6538C133.973 37.7996 133.625 37.9536 133.279 38.1084C132.711 38.3622 132.146 38.6208 131.582 38.8845C130.959 39.1878 130.357 39.5306 129.778 39.9107C129.189 40.3003 128.626 40.7319 128.065 41.1612C127.274 41.8519 126.503 42.59 125.657 43.2131C124.953 43.7318 124.175 44.1539 123.437 44.623L120.326 46.8762L118.978 47.9655L118.974 47.9687L118.97 47.9719C118.481 48.3377 118.025 48.7443 117.605 49.1872C117.277 49.5431 116.976 49.9222 116.703 50.3217C116.484 50.6377 116.276 50.9596 116.064 51.2792C115.816 51.6517 115.562 52.0187 115.295 52.3758C115.156 52.5604 114.985 52.7188 114.79 52.8435C114.718 52.8907 114.64 52.9292 114.558 52.9582C114.371 53.0205 114.164 52.9817 114.065 52.7925C113.971 52.6169 114.042 52.4462 114.165 52.3149C114.219 52.2566 114.279 52.202 114.336 52.1474C114.5 51.9957 114.653 51.8339 114.796 51.663C115.269 51.0837 115.697 50.4481 116.095 49.8156C116.508 49.1596 116.899 48.4861 117.264 47.8035C117.581 47.2084 117.898 46.6667 118.297 46.1222C118.361 46.0319 118.426 45.9457 118.49 45.8563C118.765 45.4681 119.044 45.0807 119.346 44.7123C119.657 44.3322 119.992 43.9765 120.337 43.6288L120.342 43.6234C121.097 42.8921 121.903 42.2691 122.825 41.7585C123.57 41.3463 124.368 41.0258 125.144 40.675L125.943 40.2235L126.959 39.5508C128.09 38.7093 129.204 37.8245 130.429 37.1216C131.602 36.448 132.896 35.9541 134.152 35.4512L134.166 35.4453L134.18 35.4408C135.26 35.1162 136.387 34.9826 137.46 34.6489C139.235 34.0977 140.797 33.3478 142.369 32.3641C143.757 31.4319 144.891 30.3077 146.117 29.1859C146.605 28.7082 147.083 28.2193 147.597 27.7688C148.189 27.2491 148.818 26.7755 149.422 26.2686L149.428 26.2641L149.433 26.2595C151.377 24.7355 153.562 23.5448 155.897 22.7359L158.423 21.7545L158.431 21.7508L158.44 21.7481C158.848 21.6127 159.248 21.4511 159.641 21.2827C160.105 21.084 160.563 20.8723 161.018 20.6543C161.128 20.6016 161.238 20.5483 161.348 20.4944C162.056 20.1486 163.01 19.6845 163.536 19.0904C163.554 19.0701 163.645 18.9618 163.645 18.932C163.643 18.9164 163.639 18.9012 163.633 18.8868C163.611 18.8243 163.575 18.7676 163.528 18.7207C163.407 18.5956 163.2 18.4949 163.048 18.4096C162.784 18.2615 162.551 18.1071 162.359 17.8679C161.798 17.169 161.493 16.3167 161.749 15.43C161.955 14.7145 162.482 14.1488 163.106 13.765C163.809 13.3339 164.647 13.119 165.469 13.1C166.559 13.0743 167.76 13.3985 168.587 14.128C169.863 15.2539 169.53 16.8462 168.834 18.1852L168.825 18.2024L168.815 18.2182C168.613 18.5211 168.412 18.8299 168.188 19.1171C167.959 19.4068 167.707 19.6785 167.435 19.9297L167.429 19.9355L167.422 19.9414C166.673 20.5841 165.882 21.1762 165.054 21.7138C164.247 22.2287 163.41 22.6969 162.549 23.116L162.538 23.1215L162.525 23.1264C159.833 24.2172 157.043 25.0338 154.318 26.0361Z" fill="black"/>
<path fill-rule="evenodd" clip-rule="evenodd" d="M168.525 18.0272C168.039 18.7568 167.836 19.076 167.197 19.6791C165.633 21.0114 164.227 21.9034 162.396 22.8059C159.702 23.8953 156.921 24.7083 154.192 25.7119L153.323 26.0672L151.504 27.0103L150.425 27.7728L149.405 28.5719C148.351 29.282 147.59 30.0035 146.645 30.8504L145.842 31.5113L143.438 33.3406L142.48 33.9275L141.227 34.5532L140.22 35.0115C138.6 35.7532 134.885 37.1432 134.881 37.1031C134.874 36.9618 131.43 38.5726 131.43 38.5726C129.934 39.3111 129.168 39.8791 127.843 40.8939C126.974 41.6519 126.241 42.3517 125.449 42.935C124.778 43.4316 124.06 43.8158 123.24 44.3368L120.113 46.6017L118.758 47.6969C116.653 49.2987 116.343 50.4057 115.013 52.1664C114.748 52.518 114.396 52.6797 114.37 52.6296C114.345 52.5794 114.711 52.3135 115.065 51.8824C115.952 50.7948 116.916 49.1872 117.57 47.9669C118.21 46.7728 118.434 46.5331 118.772 46.0573C119.43 45.13 119.774 44.6893 120.582 43.8713C121.381 43.0975 122.149 42.526 122.991 42.0605C123.702 41.6677 124.47 41.3585 125.298 40.9838L126.122 40.5215L127.157 39.8362C128.266 39.0109 129.403 38.1103 130.599 37.4241C131.73 36.7735 133.062 36.262 134.278 35.7771C135.361 35.4512 136.495 35.3158 137.56 34.9844C139.399 34.4133 140.945 33.6679 142.556 32.6589C144.016 31.6793 145.061 30.6242 146.354 29.4414C146.844 28.962 147.316 28.478 147.823 28.0329C148.412 27.5182 149.036 27.0464 149.643 26.5381C151.699 24.958 153.631 23.9097 156.015 23.0646L158.549 22.0777C159.36 21.8104 160.457 21.3161 161.5 20.8064C162.409 20.3626 163.276 19.9084 163.797 19.3202C164.001 19.0891 164.027 18.9505 163.961 18.7694C163.757 18.2015 163.054 18.178 162.631 17.6503C160.948 15.5541 162.924 13.5077 165.477 13.4481C166.532 13.4233 167.628 13.747 168.356 14.3889C169.503 15.402 169.14 16.8453 168.525 18.0272Z" fill="white"/>
<path fill-rule="evenodd" clip-rule="evenodd" d="M147.097 10.0196C146.413 9.83907 145.726 9.67835 145.022 9.59934C144.282 9.51582 143.535 9.52395 142.791 9.54788L142.627 9.56413L142.298 9.59889C141.528 9.6806 140.804 9.75058 140.027 9.68693L139.888 9.67564L139.797 9.5718C139.598 9.34952 139.381 9.14303 139.15 8.95421C137.939 7.96417 136.338 7.37727 134.798 7.16328C134.104 7.06509 133.4 7.04344 132.701 7.09872L132.591 7.10775L132.482 7.11994C132.282 7.14116 132.083 7.17051 131.885 7.20662L131.68 7.24454L131.55 7.08292C130.887 6.26172 130.826 4.91593 131.177 3.95162C132.075 1.46319 134.892 0.538609 137.329 0.581498H137.339H137.35C139.466 0.747634 141.43 1.42076 143.374 2.23518L143.94 2.47762C145.187 2.9372 146.408 3.14848 147.734 3.18685C148.87 3.21936 150.001 3.1241 151.135 3.13719C151.47 3.14081 151.804 3.15435 152.138 3.18234C153.302 3.28437 154.353 3.56201 155.392 4.10466C156.794 4.83738 157.998 5.95564 159.029 7.14252L160.004 8.05897C160.42 8.43594 160.866 8.74519 161.316 9.07836L161.813 9.44675C162.442 9.72861 163.056 10.0423 163.653 10.3867C164.57 10.8607 165.521 11.323 166.381 11.8955C167.748 12.8047 168.294 13.4832 169.146 14.8078L167.986 14.1992L167.827 14.1171L167.82 14.1139C167.267 13.8135 166.656 13.634 166.028 13.5873C165.399 13.5406 164.768 13.6278 164.176 13.843C163.308 14.1618 162.374 14.8557 162.2 15.82C162.013 16.8583 162.824 17.6894 163.621 18.2176L163.671 18.2429L163.723 18.2696C163.731 18.2736 163.739 18.2777 163.746 18.2822C163.753 18.2867 163.76 18.2903 163.767 18.2948C163.779 18.302 163.789 18.3098 163.8 18.3183C163.857 18.3652 163.899 18.4293 163.917 18.5011C163.936 18.573 163.931 18.6489 163.903 18.7178C163.876 18.7867 163.827 18.845 163.764 18.8843C163.701 18.9235 163.626 18.9416 163.552 18.9359L163.028 18.8948L162.986 18.8912L162.946 18.8786C162.904 18.8646 162.863 18.8501 162.822 18.8334L162.794 18.9138L162.494 18.8474C161.579 18.6456 160.725 18.3815 159.895 17.9409C159.065 17.5003 158.281 16.9062 157.518 16.3495L157.505 16.34L157.492 16.3292C156.497 15.4529 155.48 14.6024 154.41 13.8178C153.35 13.0358 152.234 12.3325 151.071 11.7135C149.795 11.0425 148.466 10.476 147.097 10.0196Z" fill="black"/>
<path fill-rule="evenodd" clip-rule="evenodd" d="M163.444 18.5181C163.444 18.5181 163.583 18.5881 163.579 18.5876L163.055 18.5465C161.859 18.1547 161.442 17.2802 161.007 16.1931C161.261 17.301 161.568 17.9967 162.569 18.5082C160.369 18.0229 159.544 17.3971 157.724 16.0703C154.647 13.3571 151.689 11.1968 147.198 9.68716C145.46 9.22803 144.605 9.1418 142.768 9.2014L142.703 9.20772C141.701 8.64656 140.923 8.00007 140.692 6.25609C140.526 7.70075 141.239 8.7391 142.261 9.25376C141.506 9.33412 140.834 9.40455 140.056 9.34135C139.844 9.10551 139.615 8.88649 139.369 8.68628C138.108 7.65471 136.448 7.04253 134.845 6.81951C134.125 6.71809 133.397 6.69584 132.673 6.75315C132.229 5.87944 132.131 4.87153 132.397 3.92884C131.989 4.78073 132.08 5.89087 132.445 6.77301C132.236 6.79558 132.028 6.82583 131.822 6.8633C131.251 6.15542 131.189 4.94236 131.505 4.06879C132.341 1.75507 135.005 0.88873 137.324 0.931167C139.402 1.09459 141.321 1.75507 143.239 2.55912C142.526 2.50269 141.843 2.9889 141.455 3.55232C142.067 2.78846 142.903 2.72661 143.804 2.79704C147.128 4.02816 149.556 3.30628 152.108 3.5293C154.112 3.70491 156.207 4.42589 158.778 7.38428L159.77 8.31699C160.231 8.73504 160.608 8.98786 161.108 9.35805C160.288 9.14045 159.764 9.16483 159.099 9.73186C159.985 9.2804 160.301 9.37069 161.084 9.51832C161.91 9.85523 162.712 10.2474 163.485 10.6921C165.491 11.7305 166.685 12.279 168.145 13.8893L167.985 13.8072C164.104 11.7106 159.237 15.7525 163.444 18.5181Z" fill="#E8A33C"/>
<path fill-rule="evenodd" clip-rule="evenodd" d="M163.469 19.8238C163.434 19.8464 163.4 19.869 163.366 19.8924L163.356 19.8997L163.345 19.906C161.711 20.8757 159.885 21.5841 158.106 22.2414C156.685 22.7664 155.248 23.2648 153.853 23.8535C152.99 24.2147 152.211 24.6923 151.422 25.188C149.554 26.3618 147.989 27.8169 146.399 29.331C144.956 30.7969 143.395 32.1238 141.654 33.2244C140.795 33.7655 139.879 34.2123 138.923 34.5571C137.827 34.9576 136.687 35.2542 135.566 35.5806C134.109 35.9979 132.675 36.4916 131.271 37.0595C129.413 38.0591 127.846 39.5191 126.063 40.6391C125.429 41.036 124.758 41.3502 124.081 41.659C122.599 42.4472 121.276 43.3379 120.138 44.5808C119.061 45.7546 118.203 47.1618 117.382 48.5211C116.961 49.2177 116.552 49.9166 116.115 50.6032C115.916 50.9161 115.712 51.2267 115.5 51.5305C115.32 51.7933 115.127 52.0468 114.922 52.2903C114.716 52.5296 114.438 52.8921 114.078 52.8194C113.747 52.7522 113.594 52.4528 113.449 52.1824C113.251 51.8145 113.106 51.3879 112.991 50.9874C112.838 50.4402 112.722 49.8833 112.643 49.3206C112.534 48.5241 112.485 47.7205 112.497 46.9166C112.5 46.3663 112.518 45.8173 112.563 45.2693C112.608 44.7113 112.683 44.1587 112.774 43.6066V43.5957V43.5853C112.995 42.626 113.226 41.6405 113.623 40.7348C114.014 39.8369 114.568 39.0193 115.134 38.2238C115.472 37.7494 115.821 37.2817 116.167 36.8139C116.584 36.2514 117.011 35.6853 117.402 35.1056C118.227 33.8826 118.707 32.5125 119.198 31.1328C119.646 29.6922 120.161 28.364 120.914 27.0539C121.547 25.9537 122.326 24.9826 123.086 23.9723C124.145 22.5655 125.053 21.0703 125.693 19.427C126.377 17.6744 126.885 15.9174 128.066 14.4091C128.585 13.7463 129.078 13.0592 129.54 12.3558C130.234 11.2976 131.746 8.81957 131.631 7.52525L131.601 7.18711L131.939 7.14873C133.685 6.94874 135.462 7.15866 137.08 7.85752C137.613 8.08597 138.121 8.36808 138.596 8.69949C138.83 8.85996 139.051 9.03773 139.258 9.2313C139.319 9.22947 139.38 9.22175 139.439 9.20828L139.503 9.17848L139.593 9.18345C140.267 9.22047 141.049 9.276 141.717 9.19383C143.133 9.02002 144.531 8.98661 145.94 9.24485C147.326 9.49902 148.605 10.0123 149.851 10.6588C150.599 11.0453 151.326 11.4714 152.041 11.9157C152.901 12.447 153.742 13.0032 154.579 13.5657C156.051 14.5549 157.37 15.7616 158.832 16.7639C159.625 17.3056 160.446 17.8821 161.359 18.1877C162.045 18.4175 162.779 18.6365 163.505 18.5539L163.792 18.3187C164.414 18.8776 164.059 19.4338 163.469 19.8238Z" fill="black"/>
<path fill-rule="evenodd" clip-rule="evenodd" d="M163.711 18.7479C163.816 18.8901 163.797 19.0942 163.664 19.2386C162.564 19.6332 161.243 19.2188 160.354 18.8802C161.268 19.4301 162.639 19.668 163.277 19.5321C163.239 19.5565 163.203 19.5813 163.167 19.6061C160.38 21.2598 156.759 22.2494 153.716 23.5338C152.782 23.9275 151.985 24.4241 151.235 24.8945C149.376 26.0615 147.915 27.4059 146.153 29.0844C144.339 30.9286 142.776 32.1038 141.467 32.9313C138.412 34.8622 135.999 34.7498 131.121 36.7447C129.245 37.7501 127.659 39.2278 125.877 40.3451C125.258 40.7338 124.606 41.0367 123.926 41.3473C120.33 43.2575 119.093 45.024 117.083 48.3418C116.694 48.9927 115.44 51.1543 114.657 52.064C114.425 52.3349 114.27 52.5033 114.147 52.4784C113.987 52.4459 113.894 52.2757 113.756 52.0184C113.461 51.4694 113.162 50.4798 112.987 49.2713C112.871 48.4691 112.84 47.7291 112.844 46.9188C112.841 45.828 112.932 44.739 113.116 43.6638C113.679 41.2196 113.975 40.4584 115.421 38.4269C116.084 37.4937 117.14 36.1195 117.693 35.3019C118.514 34.083 118.971 32.8153 119.531 31.2442C120.083 29.4682 120.586 28.3287 121.218 27.2262C121.851 26.1238 122.585 25.2195 123.368 24.1807C124.449 22.7455 125.366 21.2341 126.021 19.5524C126.694 17.8278 127.189 16.097 128.343 14.6229C130.101 12.3788 132.124 9.10299 131.981 7.494C136.154 7.01682 138.664 9.09487 139.119 9.58289C139.473 9.57928 139.577 9.53052 139.577 9.53052C140.239 9.56709 141.119 9.61811 141.762 9.5391C146.354 8.97478 148.856 10.1377 154.386 13.8541C155.761 14.7782 157.231 16.0866 158.639 17.0504C160.381 18.2409 162.355 18.9023 163.711 18.7479Z" fill="#E8A33C"/>
<path fill-rule="evenodd" clip-rule="evenodd" d="M136.225 3.3454C136.426 3.39498 136.631 3.43043 136.838 3.45149C137.548 3.51938 138.263 3.5224 138.974 3.46052C139.572 3.41537 140.085 3.33411 140.688 3.37023C140.782 3.37565 140.878 3.37971 140.981 3.3761C141.759 3.35172 138.192 0.856966 135.571 1.44251C134.765 1.62309 134.154 1.8899 134.032 2.17748C133.915 2.45603 134.397 2.77927 135.156 3.04744C135.506 3.16718 135.863 3.26666 136.225 3.3454Z" fill="white"/>
<path fill-rule="evenodd" clip-rule="evenodd" d="M141.732 3.67893C142.218 4.1059 142.776 4.44327 143.381 4.67529C144.029 4.92405 144.717 5.0491 145.438 5.0816C146.603 5.13352 147.757 5.02066 148.902 5.35248C149.587 5.55202 150.136 5.67798 150.666 5.85766C152.834 6.59353 153.106 7.01429 155.834 7.66348C156.829 7.90004 157.906 8.26934 158.935 9.0007C159.964 9.73205 158.706 7.99079 158.573 7.78628C157.66 6.48067 156.401 5.34841 154.863 4.82202C152.703 4.08434 151.817 4.21481 149.504 4.26221C148.378 4.27756 147.501 4.22655 146.39 4.00217L145.18 3.68344C144.891 3.59315 144.644 3.50286 144.404 3.41979C143.552 3.12635 142.952 3.02838 142.075 3.297C141.765 3.39316 141.555 3.52498 141.732 3.67893Z" fill="white"/>
<path fill-rule="evenodd" clip-rule="evenodd" d="M161.802 10.5427C162.855 10.9729 163.503 11.2619 164.469 11.8578C164.853 12.0808 166.615 12.9968 165.152 12.8817C163.44 12.7463 161.689 11.8858 160.503 10.6601C160.41 10.5445 159.767 9.78197 159.84 9.68988C159.998 9.49214 161.52 10.4109 161.802 10.5427Z" fill="white"/>
<path fill-rule="evenodd" clip-rule="evenodd" d="M140.262 6.31483C140.036 5.24894 138.963 5.47287 137.787 5.98166C137.039 6.30535 135.973 6.09904 135.442 5.57535C134.775 4.91712 131.867 2.76864 131.711 4.95098C131.671 5.52343 131.757 6.26653 132.119 6.82724C133.025 6.69901 133.945 6.69992 134.852 6.82995C136.455 7.05251 138.115 7.66514 139.376 8.69627C139.619 8.89392 139.846 9.1099 140.055 9.3423C140.48 9.37534 140.907 9.3785 141.333 9.35178C141.613 9.33282 141.929 9.28813 142.268 9.2642C141.162 8.71568 140.52 7.53377 140.262 6.31483Z" fill="#DB9937"/>
<path fill-rule="evenodd" clip-rule="evenodd" d="M158.343 11.9132C159.707 13.1831 160.7 13.6445 162.946 13.821C162.449 14.0608 162.13 14.4531 161.906 14.7899C161.253 15.7768 161.471 16.8291 162.271 17.6842C162.625 18.0506 163.045 18.3461 163.51 18.5546L163.394 18.5753L163.052 18.5487C161.856 18.1568 161.439 17.2824 161.004 16.1953C161.258 17.3031 161.565 17.9988 162.566 18.5103C160.366 18.025 159.541 17.3993 157.72 16.0725C157.296 15.6987 156.873 15.3354 156.45 14.9826C156.801 14.5396 157.102 14.0601 157.349 13.5524C157.578 13.0857 157.742 12.5901 157.837 12.0793C156.27 11.9087 151.753 10.7453 147.885 9.93085C146.641 9.42973 144.693 9.17466 143.419 9.18821C142.704 8.97421 142.195 8.70063 141.809 8.31825C141.546 8.05118 141.333 7.73944 141.181 7.39773C140.578 6.10973 140.797 5.39462 142.448 5.65375C143.96 5.89167 146.041 6.97878 146.584 7.17155C148.591 8.92275 151.891 7.81307 155.234 8.99634C156.638 9.48978 157.903 11.4884 158.343 11.9132Z" fill="#DB9937"/>
<path fill-rule="evenodd" clip-rule="evenodd" d="M140.34 9.69051C140.867 9.76049 141.547 9.96139 142.294 9.90315C143.961 9.77584 146.004 9.92843 147.33 10.304C147.492 10.1812 147.571 10.1235 147.652 10.0643C147.492 10.0192 147.314 9.94829 147.121 9.88915C146.855 9.80744 146.562 9.7334 146.253 9.66072C145.837 9.56911 145.417 9.50233 144.993 9.46072C144.25 9.37901 143.5 9.39436 142.901 9.43138C142.365 9.46478 141.951 9.47156 141.75 9.53747C141.329 9.67516 140.759 9.58261 140.242 9.5632C140.276 9.60504 140.308 9.64747 140.34 9.69051ZM149.363 18.6587C152.072 18.8767 154.7 17.823 156.829 16.187L156.92 16.0786C158.16 16.8429 158.972 17.4677 159.825 17.9039C160.442 18.218 161.09 18.4696 161.758 18.6551C162.449 18.8469 163.314 19.0758 163.662 19.2384C163.798 19.0939 163.815 18.8898 163.71 18.7476C162.352 18.902 160.367 18.2402 158.626 17.0483C157.836 16.5066 157.026 15.8574 156.224 15.2276C155.662 15.8848 155.019 16.4674 154.309 16.9612C152.995 17.8799 151.391 18.6275 149.759 18.6646C149.628 18.6679 149.496 18.6659 149.363 18.6587Z" fill="#8B6124"/>
<path fill-rule="evenodd" clip-rule="evenodd" d="M145.59 3.54567C145.617 3.57261 145.648 3.59639 145.68 3.61655C145.825 3.70008 145.979 3.76529 146.14 3.81067C146.275 3.8513 146.409 3.88878 146.547 3.91767C147.17 4.04859 147.61 4.12985 148.236 4.13301C148.44 4.13301 148.643 4.13572 148.85 4.1294C148.971 4.12534 149.092 4.10954 149.212 4.10186C149.429 4.08877 149.646 4.082 149.863 4.06665C150.109 4.04904 150.329 4.03189 150.579 4.0215C150.906 4.00932 151.233 3.99035 151.56 3.98313C151.682 3.97997 151.804 3.98765 151.926 3.99035C152.004 3.99035 152.455 4.04001 152.465 3.9583C152.468 3.93392 152.4 3.91315 152.288 3.90367C152.133 3.89103 151.977 3.87207 151.82 3.86665C151.342 3.8501 150.862 3.84002 150.383 3.83641C150.078 3.83641 149.774 3.84273 149.469 3.84769C149.062 3.85401 148.655 3.87117 148.248 3.86981C147.938 3.86981 147.628 3.8644 147.32 3.84002C147.126 3.82052 146.933 3.79037 146.742 3.74973C146.527 3.7091 146.314 3.65944 146.101 3.60797C145.997 3.58314 145.894 3.55289 145.791 3.5258C145.746 3.51361 145.698 3.50007 145.651 3.48969C145.604 3.4793 145.523 3.48066 145.59 3.54567Z" fill="black"/>
<path fill-rule="evenodd" clip-rule="evenodd" d="M132.112 6.81545C132.013 6.8299 131.916 6.84615 131.818 6.86421C131.8 6.84073 131.783 6.81906 131.765 6.79468C131.244 6.07867 131.196 4.91527 131.503 4.06969C132.342 1.75507 135.005 0.88873 137.324 0.931167C139.403 1.09459 141.321 1.75507 143.24 2.55912C143.038 2.54451 142.835 2.56951 142.642 2.63271L142.115 2.45212C141.527 2.1957 140.99 1.965 140.431 1.75823C139.452 1.39707 138.363 1.13568 137.318 1.0964C136.216 1.05577 135.232 1.29007 133.937 1.92663C132.872 2.45122 132.061 3.20922 131.833 4.26021C131.808 4.37804 131.784 4.50128 131.763 4.62905C131.737 4.73361 131.72 4.84027 131.713 4.94777C131.702 5.1033 131.701 5.25934 131.709 5.41503C131.714 5.56339 131.731 5.71113 131.759 5.85701C131.813 6.19589 131.934 6.52095 132.113 6.81409L132.112 6.81545ZM168.145 13.8884H168.142H168.139H168.136L167.851 13.7412C167.291 13.1543 166.835 12.8352 166.155 12.3977C165.793 12.1815 165.464 12.0063 165.089 11.8171C164.082 11.3025 163.193 10.8786 162.235 10.2723C161.326 9.70703 160.697 9.53502 159.875 9.59507C159.625 9.60845 159.378 9.64964 159.138 9.71786C159.993 9.29033 160.383 9.37611 161.087 9.52238C161.913 9.85929 162.715 10.2514 163.488 10.6962C165.494 11.7345 166.688 12.283 168.149 13.8934L168.145 13.8884ZM160.608 9.25196C160.776 9.27596 160.942 9.31094 161.106 9.3567C160.606 8.9865 160.229 8.73369 159.767 8.31564L158.776 7.38293C158.314 6.8633 157.879 6.40553 157.451 6.0105C157.037 5.62842 156.597 5.27615 156.133 4.95635C155.758 4.69927 155.363 4.47136 154.953 4.27465C154.601 4.10952 154.238 3.96922 153.867 3.8548C150.627 2.80697 147.912 4.33424 143.803 2.79568C142.91 2.72571 142.081 2.7862 141.47 3.53156C142.46 2.79026 143.581 2.85663 144.7 3.1898C145.281 3.38167 145.922 3.52343 146.52 3.66022C147.228 3.78753 148.13 3.80333 148.85 3.79114C150.228 3.76722 151.588 3.6679 152.951 3.91078L153.987 4.14102C155.401 4.54733 156.197 5.1428 157.268 6.13962C158.457 7.24569 159.254 8.28855 160.608 9.25196ZM141.483 3.51034C141.625 3.31416 141.794 3.13879 141.984 2.98936C141.784 3.12822 141.614 3.3053 141.483 3.51034Z" fill="white"/>
<path fill-rule="evenodd" clip-rule="evenodd" d="M140.691 6.25488C141.076 7.55463 141.571 8.62367 143.397 9.17761L143.33 9.18619C143.153 9.1889 142.966 9.19386 142.767 9.20018L142.702 9.2065C142.128 8.89319 141.784 8.61329 141.516 8.3063C141.208 7.95326 141.008 7.55869 140.826 6.92936C140.799 6.79392 140.761 6.66706 140.735 6.53433C140.718 6.44224 140.71 6.34698 140.691 6.25488Z" fill="white"/>
<path fill-rule="evenodd" clip-rule="evenodd" d="M165.703 13.2254C164.551 13.084 163.45 13.5351 162.835 13.8768C162.602 14.035 162.385 14.215 162.187 14.4145C162.086 14.533 161.993 14.6577 161.907 14.7878C161.254 15.7747 161.473 16.8271 162.273 17.6821C162.36 17.7752 162.453 17.8633 162.551 17.9458C162.551 17.9458 162.077 17.4 161.909 16.7034C161.826 16.347 161.825 15.9761 161.909 15.6197C161.992 15.2632 162.157 14.9308 162.391 14.6483C163.048 13.8448 164.301 13.224 165.705 13.2263L165.703 13.2254Z" fill="white"/>
<path fill-rule="evenodd" clip-rule="evenodd" d="M167.051 16.2968C167.065 16.1248 167.141 15.965 167.308 15.8955C167.635 15.76 168.024 16.0616 168.06 16.3952C168.102 16.7966 167.81 17.4191 167.333 17.3586L167.232 17.346L167.187 17.2557C167.128 17.1284 167.038 16.4426 167.051 16.2968Z" fill="black"/>
<path fill-rule="evenodd" clip-rule="evenodd" d="M167.235 16.3112C167.226 16.4304 167.317 17.0922 167.355 17.1744C167.682 17.2159 167.906 16.7229 167.874 16.415C167.837 16.0661 167.271 15.8521 167.235 16.3112Z" fill="#E8A33C"/>
<path fill-rule="evenodd" clip-rule="evenodd" d="M166.078 18.3362C165.98 18.3849 165.871 18.4066 165.772 18.3457C165.659 18.2766 165.665 18.1899 165.604 18.1019C165.553 18.0292 165.491 17.9628 165.434 17.8946C165.292 17.7253 165.216 17.4919 165.351 17.2947C165.462 17.133 165.672 17.0689 165.859 17.1023C165.968 17.1228 166.068 17.1742 166.147 17.2504C166.227 17.3265 166.283 17.4241 166.307 17.5312C166.379 17.7958 166.359 18.1971 166.078 18.3362Z" fill="black"/>
<path fill-rule="evenodd" clip-rule="evenodd" d="M165.996 18.1693C166.145 18.0953 166.196 17.8307 166.128 17.5788C165.983 17.0443 165.178 17.2953 165.577 17.7752C165.641 17.8524 165.702 17.9165 165.758 17.9946C165.845 18.1215 165.821 18.2556 165.996 18.1693Z" fill="#E8A33C"/>
<path fill-rule="evenodd" clip-rule="evenodd" d="M165.424 15.2743C165.382 15.2832 165.34 15.2952 165.3 15.3104C165.186 15.3483 165.064 15.3849 164.945 15.3442C164.901 15.3267 164.862 15.2985 164.832 15.2622C164.802 15.2259 164.782 15.1827 164.773 15.1366C164.762 15.0874 164.762 15.0366 164.771 14.9872C164.781 14.9378 164.8 14.8908 164.828 14.849C164.954 14.6531 165.082 14.5533 165.311 14.4973C165.492 14.4522 165.665 14.4657 165.82 14.5772C165.847 14.5962 165.873 14.6147 165.898 14.6345C166.066 14.7659 166.152 14.9537 166.007 15.1447C165.994 15.1623 165.979 15.1785 165.962 15.193C165.852 15.286 165.708 15.2833 165.573 15.2761C165.524 15.2709 165.474 15.2703 165.424 15.2743Z" fill="black"/>
<path fill-rule="evenodd" clip-rule="evenodd" d="M165.395 15.0905C165.538 15.0679 165.776 15.1411 165.858 15.0323C165.96 14.8968 165.813 14.8016 165.711 14.728C165.609 14.6544 165.496 14.6436 165.355 14.6779C165.17 14.723 165.084 14.7961 164.984 14.9487C164.915 15.058 164.967 15.155 165.005 15.1681C165.107 15.2038 165.271 15.1104 165.395 15.0905Z" fill="#E8A33C"/>
<path fill-rule="evenodd" clip-rule="evenodd" d="M167.002 18.2173C167.041 18.1898 167.085 18.1705 167.132 18.1604C167.178 18.1503 167.227 18.1497 167.273 18.1586C167.359 18.1781 167.434 18.2258 167.489 18.294C167.543 18.3622 167.572 18.4467 167.572 18.5338C167.579 18.7532 167.436 18.95 167.282 19.0922C167.178 19.1879 167.036 19.2683 166.896 19.1911C166.705 19.0864 166.741 18.8015 166.784 18.6263C166.818 18.4922 166.884 18.2995 167.002 18.2173Z" fill="black"/>
<path fill-rule="evenodd" clip-rule="evenodd" d="M167.109 18.3687C166.958 18.4748 166.793 19.2893 167.157 18.9556C167.6 18.5493 167.303 18.2333 167.109 18.3687Z" fill="#E8A33C"/>
<path fill-rule="evenodd" clip-rule="evenodd" d="M166.421 14.5112C166.58 14.3816 166.783 14.4855 166.901 14.6141C167.026 14.7508 167.1 14.926 167.112 15.1107C167.119 15.2358 167.107 15.3816 166.969 15.4371C166.932 15.4508 166.891 15.4541 166.852 15.4465C166.812 15.439 166.776 15.4209 166.746 15.3942C166.711 15.3638 166.681 15.3289 166.655 15.2904C166.618 15.2287 166.577 15.1695 166.532 15.1134C166.49 15.071 166.449 15.038 166.41 14.9902C166.285 14.8394 166.256 14.6462 166.421 14.5112Z" fill="black"/>
<path fill-rule="evenodd" clip-rule="evenodd" d="M166.538 14.655C166.397 14.7697 166.62 14.9363 166.665 14.9841C166.717 15.0453 166.764 15.1111 166.805 15.1805C166.91 15.3277 166.934 15.2604 166.926 15.1196C166.908 14.8103 166.643 14.5715 166.538 14.655Z" fill="#E8A33C"/>
<path fill-rule="evenodd" clip-rule="evenodd" d="M166.075 20.257C166.308 20.1072 166.183 20.0115 165.98 20.1297C165.768 20.253 165.883 20.3704 166.075 20.257Z" fill="black"/>
<path fill-rule="evenodd" clip-rule="evenodd" d="M165.778 19.7898C165.83 19.8327 165.947 19.7677 166.039 19.6864C166.211 19.5356 166.273 19.4512 166.22 19.3347C166.145 19.1641 165.704 19.7289 165.778 19.7898Z" fill="black"/>
<path fill-rule="evenodd" clip-rule="evenodd" d="M167.711 18.0455C167.748 18.1403 167.974 17.8198 167.892 17.7575C167.852 17.7277 167.83 17.7981 167.789 17.8681C167.747 17.9381 167.689 17.9886 167.711 18.0455Z" fill="black"/>
<path fill-rule="evenodd" clip-rule="evenodd" d="M167.001 17.3673C166.925 17.6671 167.231 17.4851 167.091 17.3343C167.044 17.2856 167.015 17.3095 167.001 17.3673Z" fill="black"/>
<path fill-rule="evenodd" clip-rule="evenodd" d="M167.532 15.4482C167.522 15.4564 167.474 15.474 167.502 15.5837C167.511 15.6193 167.537 15.6676 167.573 15.6288C167.633 15.5697 167.594 15.3941 167.532 15.4482Z" fill="black"/>
<path fill-rule="evenodd" clip-rule="evenodd" d="M164.99 19.2465C165.035 19.3368 165.16 19.2167 165.203 19.1417C165.266 19.0334 165.258 18.9476 165.179 18.939C165.014 18.921 164.897 19.0641 164.99 19.2465Z" fill="black"/>
<path fill-rule="evenodd" clip-rule="evenodd" d="M164.887 19.8585C164.986 20.0152 165.313 19.8156 165.186 19.6531C165.119 19.5673 164.797 19.7168 164.887 19.8585Z" fill="black"/>
<path fill-rule="evenodd" clip-rule="evenodd" d="M164.191 19.8788C164.203 19.924 164.481 19.8441 164.532 19.686C164.537 19.6702 164.538 19.6409 164.532 19.6386C164.428 19.5818 164.148 19.7037 164.191 19.8788Z" fill="black"/>
<path fill-rule="evenodd" clip-rule="evenodd" d="M164.849 18.2333C165.028 18.1525 164.819 17.9335 164.763 17.9317C164.658 17.9285 164.708 18.0504 164.732 18.097C164.765 18.1611 164.794 18.2577 164.849 18.2333Z" fill="black"/>
<path fill-rule="evenodd" clip-rule="evenodd" d="M166.05 18.738C166.038 18.8969 166.266 18.84 166.267 18.7014C166.267 18.5858 166.219 18.5506 166.132 18.5836C166.035 18.6201 166.06 18.6197 166.05 18.738Z" fill="black"/>
<path fill-rule="evenodd" clip-rule="evenodd" d="M165.021 20.4457C165.232 20.2411 164.882 20.2886 164.815 20.4109C164.725 20.5734 164.966 20.498 165.021 20.4457Z" fill="black"/>
<path fill-rule="evenodd" clip-rule="evenodd" d="M165.293 16.395C165.256 16.3747 165.22 16.3525 165.186 16.3286C165.067 16.2451 164.952 16.1264 164.947 15.9724C164.942 15.8279 165.033 15.72 165.151 15.6487C165.423 15.4853 165.819 15.5787 166.082 15.7164C166.353 15.8595 166.604 16.1069 166.629 16.4279C166.656 16.7697 166.398 16.9886 166.082 16.8067C165.964 16.739 165.855 16.6518 165.735 16.5914C165.591 16.5178 165.432 16.4726 165.293 16.395Z" fill="black"/>
<path fill-rule="evenodd" clip-rule="evenodd" d="M165.382 16.2321C165.497 16.2948 165.629 16.3318 165.818 16.4253C165.962 16.4971 166.027 16.5607 166.174 16.646C166.35 16.7472 166.459 16.646 166.443 16.4424C166.404 15.9409 165.583 15.6059 165.247 15.8077C164.998 15.9585 165.209 16.1377 165.382 16.2321Z" fill="#E8A33C"/>
<path fill-rule="evenodd" clip-rule="evenodd" d="M164.432 17.0778C164.214 17.0607 164.123 16.8489 163.975 16.7248C163.791 16.5704 163.55 16.4684 163.514 16.2011C163.484 16.018 163.526 15.8304 163.629 15.6765C163.675 15.6096 163.736 15.5552 163.808 15.5185C163.88 15.4818 163.961 15.4639 164.042 15.4666C164.144 15.4735 164.24 15.5167 164.313 15.5885C164.465 15.7379 164.484 15.9722 164.506 16.1726C164.513 16.2608 164.528 16.348 164.551 16.4331C164.57 16.4797 164.591 16.5249 164.616 16.5686C164.679 16.6945 164.756 16.8562 164.657 16.9866C164.631 17.0198 164.596 17.0456 164.557 17.0616C164.517 17.0776 164.475 17.0832 164.432 17.0778Z" fill="black"/>
<path fill-rule="evenodd" clip-rule="evenodd" d="M164.446 16.8932C164.627 16.9068 164.416 16.6224 164.374 16.4906C164.289 16.2256 164.349 15.8242 164.144 15.6906C163.939 15.557 163.646 15.7709 163.698 16.1772C163.721 16.352 163.902 16.421 164.094 16.5836C164.245 16.7095 164.326 16.8838 164.446 16.8932Z" fill="#E8A33C"/>
<path fill-rule="evenodd" clip-rule="evenodd" d="M132.672 6.76284L132.445 6.78271L132.423 6.73214C132.071 5.85542 131.99 4.76605 132.392 3.92725C132.127 4.86587 132.224 5.86926 132.663 6.74027C132.667 6.74738 132.67 6.75497 132.672 6.76284Z" fill="black"/>
<path fill-rule="evenodd" clip-rule="evenodd" d="M145.643 4.4124C146.553 5.78934 146.329 7.54595 145.718 8.99332C144.943 10.8289 143.484 12.4298 141.861 13.5639C140.187 14.7331 138.121 15.6812 136.039 15.6514C134.554 15.6302 133.077 15.0803 132.216 13.8185C131.367 12.5743 131.398 11.0474 131.92 9.68224C132.675 7.70893 134.393 6.07511 136.092 4.88733C137.534 3.87968 139.267 3.07067 141.021 2.82282C142.396 2.6287 143.94 2.77452 145.031 3.71535C145.266 3.91854 145.472 4.15309 145.643 4.4124Z" fill="black"/>
<path fill-rule="evenodd" clip-rule="evenodd" d="M134.148 16.4056C134.086 16.3306 134.027 16.2525 133.971 16.1731L132.688 14.4833L132.915 14.2864C134.387 16.1794 137.909 16.5965 141.948 13.774C145.497 11.2942 147.133 7.35343 145.64 5.09615C145.584 5.01083 145.523 4.92957 145.459 4.85101L145.731 4.65869L147.165 6.48212C147.246 6.57961 147.322 6.68166 147.391 6.78776C147.49 6.93757 147.578 7.09485 147.652 7.25818C148.293 8.65769 147.957 10.2829 147.315 11.6152C146.501 13.3059 145.109 14.7718 143.579 15.8413C141.96 16.9731 139.982 17.8967 137.972 17.9428C136.547 17.9753 135.084 17.5365 134.149 16.4101L134.148 16.4056Z" fill="#8B6124"/>
<path fill-rule="evenodd" clip-rule="evenodd" d="M145.353 4.60296C143.859 2.34568 139.838 2.69149 136.291 5.17134C127.384 11.3965 133.465 19.0099 141.662 13.2804C145.21 10.8006 146.845 6.8616 145.353 4.60296Z" fill="black"/>
<path fill-rule="evenodd" clip-rule="evenodd" d="M133.86 15.9123C133.798 15.8371 133.739 15.7595 133.683 15.6794L132.4 13.9896L132.627 13.7928C134.098 15.6857 137.622 16.1024 141.66 13.2799C145.208 10.8001 146.843 6.8611 145.351 4.60246C145.295 4.51762 145.234 4.43579 145.17 4.35732L145.441 4.16455L146.876 5.98798C146.956 6.08567 147.032 6.1877 147.102 6.29362C147.202 6.4441 147.291 6.60213 147.368 6.76629C148.008 8.16355 147.672 9.79105 147.031 11.1233C146.216 12.814 144.825 14.2799 143.295 15.3494C141.675 16.4812 139.697 17.4049 137.688 17.4509C136.263 17.4834 134.799 17.0446 133.865 15.916L133.86 15.9123Z" fill="black"/>
<path fill-rule="evenodd" clip-rule="evenodd" d="M146.816 6.48512C146.752 6.38832 146.683 6.29531 146.609 6.20658L145.378 4.63867C145.504 4.83627 145.609 5.04734 145.689 5.268V5.27071C145.717 5.34791 145.742 5.42601 145.765 5.50592C145.815 5.68568 145.851 5.86907 145.873 6.05444V6.06076C145.877 6.09552 145.881 6.13028 145.884 6.16549V6.17768C145.887 6.21064 145.889 6.24405 145.891 6.27746V6.29551C145.891 6.32666 145.894 6.35781 145.896 6.38896V6.41831V6.49957V6.54065C145.896 6.56458 145.896 6.58896 145.896 6.61289V6.66074C145.896 6.68377 145.896 6.70589 145.896 6.72981L145.893 6.7718C145.782 8.87694 144.2 11.3857 141.632 13.1825C138.487 15.3802 135.659 15.628 133.87 14.7481L133.841 14.7337L133.781 14.703L133.754 14.6885C133.733 14.6772 133.712 14.6659 133.691 14.6542L133.672 14.6438L133.603 14.6041L133.589 14.5955C133.565 14.5817 133.542 14.5666 133.518 14.5504C133.284 14.4049 133.068 14.2328 132.874 14.0375L133.964 15.4741C134.017 15.5494 134.073 15.623 134.131 15.6939C135.628 17.4997 139.109 17.8492 143.094 15.0619C146.644 12.5847 148.308 8.74331 146.816 6.48512Z" fill="black"/>
<path fill-rule="evenodd" clip-rule="evenodd" d="M136.042 16.9038L135.029 15.5698C135.069 15.5765 135.109 15.5833 135.15 15.5892L136.175 16.9435C136.13 16.9318 136.085 16.9196 136.04 16.907L136.042 16.9038ZM146.299 5.97268L147.107 7.03721C147.051 6.90106 146.986 6.76892 146.912 6.64174L146.274 5.79932C146.283 5.85665 146.292 5.91444 146.299 5.97222V5.97268ZM146.314 6.97085C146.317 6.92841 146.321 6.88597 146.324 6.84399L147.357 8.20694C147.359 8.25524 147.361 8.30355 147.362 8.35231L146.314 6.97085ZM146.183 7.7758L147.29 9.23626C147.297 9.19789 147.303 9.15951 147.308 9.12159L146.207 7.66925C146.199 7.70537 146.191 7.74103 146.183 7.7767V7.7758ZM145.976 8.48188C145.987 8.44982 145.998 8.41777 146.009 8.38571L147.14 9.87823C147.13 9.91164 147.121 9.94505 147.111 9.97846L145.976 8.48188ZM145.718 9.12024C145.731 9.09134 145.745 9.062 145.757 9.03265L146.906 10.5473C146.893 10.5771 146.881 10.6069 146.868 10.6376L145.718 9.12069V9.12024ZM145.422 9.70713L146.582 11.2358C146.597 11.2082 146.611 11.1807 146.625 11.1531L145.468 9.62677C145.453 9.65386 145.438 9.68095 145.422 9.70803L145.422 9.70713ZM145.096 10.2547L146.262 11.7933C146.278 11.7676 146.294 11.7423 146.31 11.7166L145.144 10.1789C145.128 10.2042 145.112 10.2295 145.096 10.2547ZM144.744 10.769L144.795 10.6981L145.965 12.2416L145.914 12.3138L144.744 10.769ZM144.368 11.2525C144.387 11.2303 144.405 11.2073 144.423 11.1852L145.597 12.7337C145.579 12.7563 145.561 12.7788 145.543 12.8014L144.366 11.2525H144.368ZM143.972 11.7084C143.992 11.6877 144.011 11.6665 144.03 11.6452L145.207 13.1969L145.15 13.261L143.973 11.7084H143.972ZM143.558 12.14L144.734 13.6939C144.755 13.6741 144.774 13.6538 144.794 13.6339L143.618 12.08L143.558 12.14ZM143.125 12.5463L144.304 14.1016L144.366 14.0447L143.188 12.4895C143.167 12.5089 143.146 12.5274 143.125 12.5463ZM142.676 12.9323L142.741 12.8786L143.92 14.4334L143.855 14.4872L142.676 12.9323ZM142.21 13.2985L142.277 13.2479L143.456 14.8023L143.388 14.8528L142.211 13.2989L142.21 13.2985ZM141.729 13.6416L142.905 15.1941L142.974 15.1463L141.798 13.5937L141.728 13.6416H141.729ZM141.231 13.9653L142.407 15.516L142.479 15.4709L141.303 13.9201L141.231 13.9653H141.231ZM140.72 14.27L140.794 14.228L141.968 15.777L141.894 15.8185L140.72 14.27ZM140.193 14.554L140.269 14.5147L141.441 16.0605L141.365 16.0989L140.193 14.554ZM139.65 14.8149L140.818 16.3544C140.844 16.3431 140.87 16.3318 140.897 16.3196L139.729 14.7793L139.65 14.8149ZM139.088 15.0501L140.25 16.5828L140.332 16.5521L139.169 15.0172L139.088 15.0488V15.0501ZM138.5 15.256L138.585 15.2289L139.741 16.753C139.712 16.7621 139.683 16.7706 139.654 16.7788L138.5 15.256ZM137.888 15.428L137.979 15.4059L139.125 16.9174L139.035 16.9377L137.89 15.428H137.888ZM137.245 15.5585L138.377 17.0483L138.473 17.0356L137.339 15.5409L137.245 15.5567V15.5585ZM136.564 15.6384L136.664 15.6302L137.778 17.0997L137.675 17.1034L136.564 15.6384ZM135.832 15.6515L136.91 17.0722C136.947 17.0764 136.985 17.08 137.024 17.083L135.941 15.6546L135.832 15.6515Z" fill="white"/>
<path fill-rule="evenodd" clip-rule="evenodd" d="M144.606 3.84714C142.769 2.50542 139.353 3.05619 136.291 5.197C130.881 8.97884 130.99 13.2343 133.745 14.7123C131.408 13.0442 131.581 9.03708 136.704 5.45749C139.55 3.46521 142.7 2.84852 144.606 3.84714Z" fill="white"/>
<path fill-rule="evenodd" clip-rule="evenodd" d="M132.952 14.144C134.16 15.3323 136.219 15.2813 137.758 15.014C136.579 15.3919 133.15 15.9648 132.952 14.144Z" fill="black"/>
<path fill-rule="evenodd" clip-rule="evenodd" d="M145.609 8.17562C146.036 7.18241 146.308 5.96348 145.781 4.96441C145.539 4.50392 145.119 4.19377 144.715 3.89355C146.318 5.42309 145.707 7.65554 145.609 8.17562Z" fill="black"/>
<path d="M139.015 30.3504C141.881 27.4909 141.881 22.8548 139.015 19.9953C136.149 17.1358 131.502 17.1358 128.636 19.9953C125.771 22.8548 125.771 27.4909 128.636 30.3504C131.502 33.2099 136.149 33.2099 139.015 30.3504Z" fill="#8B6124"/>
<path d="M138.861 29.4954C141.726 26.6359 141.726 21.9998 138.861 19.1403C135.995 16.2808 131.348 16.2808 128.482 19.1403C125.616 21.9998 125.616 26.6359 128.482 29.4954C131.348 32.3549 135.995 32.3549 138.861 29.4954Z" fill="black"/>
<path d="M138.614 29.2506C141.345 26.5263 141.345 22.1094 138.614 19.3852C135.884 16.6609 131.457 16.6609 128.727 19.3852C125.997 22.1094 125.997 26.5263 128.727 29.2506C131.457 31.9748 135.884 31.9748 138.614 29.2506Z" fill="black"/>
<path fill-rule="evenodd" clip-rule="evenodd" d="M134.254 17.7136C135.656 17.824 136.987 18.3752 138.055 19.2879C139.123 20.2006 139.873 21.4278 140.198 22.793C139.705 21.1393 138.584 19.7428 137.075 18.8999C135.566 18.0571 133.787 17.8344 132.117 18.279C130.446 18.7237 129.014 19.8007 128.126 21.2814C127.238 22.7621 126.964 24.5298 127.361 26.2091C127.055 25.1777 127.005 24.0875 127.216 23.0325C127.426 21.9775 127.891 20.9895 128.569 20.1534C129.247 19.3174 130.119 18.6586 131.11 18.2337C132.1 17.8088 133.179 17.6306 134.254 17.7145V17.7136Z" fill="white"/>
<path fill-rule="evenodd" clip-rule="evenodd" d="M150.055 9.49988C152.046 9.34684 154.208 9.64796 155.999 10.5585C157.423 11.2809 158.743 12.4876 158.971 14.1427C159.013 14.4434 159.015 14.7482 158.979 15.0496C158.804 16.506 157.771 17.6816 156.594 18.4762C155.107 19.4798 153.256 20.0017 151.481 20.138C149.485 20.2915 147.322 19.9777 145.531 19.0545C144.109 18.3213 142.786 17.1038 142.558 15.4469C142.515 15.1295 142.515 14.8077 142.558 14.4903C142.754 13.0492 143.793 11.8989 144.968 11.1233C146.45 10.1428 148.292 9.63577 150.055 9.49988Z" fill="black"/>
<path fill-rule="evenodd" clip-rule="evenodd" d="M150.083 9.84544C154.427 9.51136 158.253 11.4567 158.629 14.1898C159.006 16.9229 155.797 19.4592 151.454 19.7933C147.112 20.1273 143.278 18.1328 142.903 15.3992C142.527 12.6657 145.74 10.1795 150.083 9.84544Z" fill="black"/>
<path fill-rule="evenodd" clip-rule="evenodd" d="M158.619 14.8379H158.969L159.035 17.2216V17.2509C159.054 17.5179 159.042 17.7861 159 18.0504L158.993 18.1981L158.97 18.2161C158.69 19.566 157.676 20.64 156.547 21.3718C155.071 22.3284 153.255 22.8246 151.512 22.9586C149.522 23.1117 147.359 22.8106 145.568 21.9C144.144 21.1777 142.824 19.9709 142.596 18.3163C142.573 18.1495 142.562 17.9813 142.563 17.813L142.509 15.7412H142.506L142.5 15.4022V15.3598L142.495 15.0686L142.876 15.0456C142.837 15.3294 142.837 15.6172 142.876 15.9011C143.253 18.6342 147.084 20.6287 151.427 20.2946C155.694 19.9655 158.861 17.5146 158.619 14.8379Z" fill="#8B6124"/>
<path fill-rule="evenodd" clip-rule="evenodd" d="M158.644 14.3374H158.994L159.06 16.7215V16.7509C159.079 17.0177 159.067 17.2858 159.024 17.55L159.018 17.698L158.994 17.7161C158.715 19.0655 157.701 20.14 156.572 20.8718C155.096 21.828 153.28 22.3241 151.537 22.4582C149.546 22.6113 147.384 22.3106 145.593 21.3995C144.169 20.6772 142.849 19.4709 142.621 17.8159C142.598 17.6491 142.587 17.4809 142.588 17.3125L142.534 15.2408H142.531L142.525 14.9022V14.8597L142.52 14.5681L142.9 14.5451C142.861 14.8297 142.861 15.1182 142.9 15.4028C143.276 18.1364 147.108 20.1305 151.452 19.7969C155.717 19.4646 158.887 17.0141 158.644 14.3374Z" fill="black"/>
<path fill-rule="evenodd" clip-rule="evenodd" d="M158.656 14.6841L158.712 16.7156V16.7527C158.731 17.0061 158.72 17.2608 158.678 17.5116V17.5165C158.288 19.8497 155.338 21.8153 151.511 22.1096C147.167 22.4433 143.342 20.4984 142.965 17.7653C142.944 17.613 142.934 17.4594 142.935 17.3057L142.88 15.1838C142.885 15.2538 142.892 15.3247 142.902 15.3951C142.908 15.4466 142.917 15.4976 142.927 15.5482V15.5522V15.5586C142.959 15.7273 143.005 15.8934 143.063 16.0552V16.0606V16.0646C143.082 16.1197 143.103 16.1739 143.126 16.2281C144.082 18.5124 147.555 20.0402 151.443 19.7409C154.949 19.47 157.72 17.7996 158.46 15.7251C158.479 15.6696 158.498 15.6141 158.514 15.5586C158.601 15.2748 158.649 14.9806 158.656 14.6841Z" fill="black"/>
<path fill-rule="evenodd" clip-rule="evenodd" d="M158.393 18.4165C158.368 18.4711 158.341 18.5249 158.313 18.5786L158.268 16.9985C158.296 16.961 158.322 16.9227 158.349 16.8843L158.394 18.417L158.393 18.4165ZM157.827 19.31C157.801 19.3429 157.773 19.3754 157.746 19.4079L157.695 17.6617C157.723 17.6346 157.75 17.6066 157.777 17.5786L157.827 19.31ZM157.253 19.914L157.17 19.9867L157.118 18.1718C157.146 18.1502 157.173 18.1267 157.201 18.1059L157.253 19.914ZM156.675 20.3795L156.592 20.4381L156.538 18.5872L156.61 18.542L156.621 18.5348L156.675 20.3831V20.3795ZM156.094 20.7578C156.066 20.7736 156.038 20.7903 156.01 20.8061L155.957 18.9285L156.039 18.8833L156.094 20.7578ZM155.513 21.0706L155.43 21.1104L155.375 19.2142L155.458 19.1763L155.513 21.0684V21.0706ZM154.925 21.3311L154.842 21.3645L154.789 19.458L154.872 19.4264L154.927 21.3311H154.925ZM154.339 21.5483L154.256 21.5758L154.201 19.6603L154.285 19.6336L154.34 21.5483H154.339ZM153.751 21.7266L153.667 21.7492L153.612 19.8264L153.696 19.8047L153.751 21.7266ZM153.163 21.8706L153.079 21.8887L153.024 19.961L153.107 19.9438L153.163 21.8706ZM152.575 21.983C152.547 21.988 152.519 21.9921 152.491 21.9966L152.436 20.0652L152.52 20.0521L152.576 21.983H152.575ZM151.987 22.0656L151.902 22.0751L151.848 20.1415L151.932 20.1325L151.988 22.0656H151.987ZM151.398 22.1194L151.314 22.1252L151.26 20.1903L151.344 20.1853L151.4 22.1194H151.398ZM150.807 22.146H150.722L150.667 20.2106H150.751L150.807 22.1455V22.146ZM150.215 22.146L150.131 22.1437L150.075 20.2088H150.159L150.215 22.1437V22.146ZM149.622 22.1162L149.538 22.1099L149.482 20.1749L149.566 20.1813L149.622 22.1162ZM149.029 22.0571L148.944 22.0462L148.889 20.1158L148.973 20.1262L149.029 22.0571ZM148.434 21.9668L148.35 21.9514L148.294 20.0251C148.322 20.0305 148.351 20.035 148.379 20.04L148.434 21.9668ZM147.839 21.8435L147.754 21.8228L147.699 19.9027L147.784 19.9221L147.839 21.8435ZM147.242 21.6833L147.157 21.658L147.102 19.7456L147.187 19.7704L147.242 21.6833ZM146.645 21.4842L146.56 21.4517L146.505 19.5501L146.59 19.5804L146.645 21.4842ZM146.046 21.2359C146.017 21.2228 145.989 21.2092 145.961 21.1957L145.906 19.3086L145.991 19.3461L146.046 21.2359ZM145.445 20.9293L145.359 20.8801L145.306 19.0142L145.391 19.0594L145.445 20.9289V20.9293ZM144.843 20.5469L144.756 20.4846L144.704 18.6522C144.732 18.6711 144.761 18.6901 144.79 18.7086L144.843 20.5469ZM144.236 20.0549C144.207 20.0278 144.178 19.9998 144.15 19.9718L144.099 18.1985C144.127 18.2228 144.156 18.2468 144.185 18.2702L144.236 20.0549ZM143.625 19.3623C143.595 19.3203 143.565 19.2784 143.535 19.2359L143.489 17.5994C143.518 17.6323 143.547 17.6648 143.577 17.6969L143.625 19.3623Z" fill="white"/>
<path fill-rule="evenodd" clip-rule="evenodd" d="M150.062 9.85917C153.92 9.56211 157.37 11.0646 158.356 13.3205C157.142 11.3079 153.892 10.0136 150.286 10.2908C145.942 10.6248 142.727 13.1115 143.104 15.8437C143.146 16.1482 143.231 16.4453 143.355 16.7267C143.108 16.3254 142.946 15.878 142.88 15.4121C142.503 12.6803 145.718 10.1932 150.062 9.85917Z" fill="white"/>
<path fill-rule="evenodd" clip-rule="evenodd" d="M143.018 13.9517C143.005 14.042 143.002 14.1354 142.986 14.2225C142.871 14.8934 143.004 15.5295 143.196 16.0509C143.578 17.087 144.398 17.8243 145.379 18.5565C143.573 17.8008 141.843 15.976 143.018 13.9517Z" fill="black"/>
<path fill-rule="evenodd" clip-rule="evenodd" d="M157.162 17.5696C158.028 16.9223 158.784 15.8992 158.827 14.7706C158.846 14.251 158.578 13.7724 158.374 13.311C159.002 15.4347 157.507 17.1669 157.162 17.5696Z" fill="black"/>
<path d="M138.525 29.3651C141.12 26.7761 141.12 22.5784 138.525 19.9894C135.93 17.4003 131.723 17.4004 129.128 19.9894C126.533 22.5784 126.533 26.7761 129.128 29.3651C131.723 31.9541 135.93 31.9542 138.525 29.3651Z" fill="black"/>
<path fill-rule="evenodd" clip-rule="evenodd" d="M137.756 23.5914C138.012 22.4881 137.207 21.8208 136.074 21.3287L136.571 19.8461L135.666 19.5441L135.182 20.9888C134.941 20.9143 134.694 20.8281 134.455 20.7563L134.943 19.3035L134.038 19.0015L133.54 20.4836C133.343 20.4222 133.15 20.3617 132.962 20.2989V20.2944L131.714 19.8773L131.391 20.8416C131.391 20.8416 132.064 21.052 132.048 21.0606C132.415 21.1829 132.463 21.4348 132.436 21.6294L131.87 23.3187C131.901 23.3296 131.933 23.3424 131.963 23.3571L131.867 23.3251L131.073 25.6916C131.019 25.8013 130.89 25.9625 130.633 25.8771C130.642 25.8911 129.976 25.6573 129.976 25.6573L129.433 26.6753L130.609 27.0685C130.828 27.1417 131.042 27.2175 131.253 27.2897L130.751 28.7895L131.656 29.091L132.153 27.6071C132.399 27.6974 132.639 27.7773 132.873 27.8554L132.378 29.3326L133.283 29.6341L133.785 28.1376C135.336 28.5583 136.528 28.5312 137.138 27.1507C137.63 26.0392 137.261 25.3449 136.467 24.851C137.081 24.7607 137.566 24.3995 137.752 23.5919L137.756 23.5914ZM135.414 26.3751C135.039 27.496 133.158 26.7268 132.545 26.5223L133.212 24.5359C133.825 24.7408 135.807 25.2072 135.414 26.3755V26.3751ZM135.934 23.432C135.592 24.451 134.027 23.7964 133.517 23.6262L134.122 21.824C134.632 21.9946 136.291 22.3657 135.934 23.4316V23.432Z" fill="white"/>
<path fill-rule="evenodd" clip-rule="evenodd" d="M145.508 16.4275L151.706 17.3363L148.305 15.6515L148.899 12.9351L145.508 16.4275ZM145.808 16.3259L148.648 13.3996L148.138 15.7305L145.808 16.3259Z" fill="white"/>
<path fill-rule="evenodd" clip-rule="evenodd" d="M149.347 13.017L148.807 15.4851L151.899 17.0363L151.869 16.8597L151.83 16.6245V16.6182L151.524 14.7537L149.449 13.2386L148.974 15.4056L151.658 14.7176L151.707 14.7054L151.767 14.6896L152.084 16.9785L155.572 13.6887L149.349 13.0156L149.347 13.017ZM151.765 14.6905L149.645 13.1944L155.243 13.7998L151.765 14.6905ZM151.901 17.0381L151.872 16.8616L151.524 14.7551L151.901 17.0381ZM151.832 16.6259V16.6196V16.6259Z" fill="white"/>
<path fill-rule="evenodd" clip-rule="evenodd" d="M139.799 9.30658L140.494 8.56168L142.328 9.35083L143.386 8.21587L138.394 6.06738L137.335 7.20235L139.168 7.99149L138.474 8.73549C136.925 8.15763 135.548 7.94951 135.242 8.27817C134.936 8.60683 135.8 9.36166 137.23 10.0682L135.004 12.4546L136.33 13.0252L138.556 10.6397C140.103 11.2162 141.477 11.4235 141.784 11.0953C142.09 10.767 141.227 10.0118 139.8 9.30794L139.799 9.30658ZM138.745 10.4352C138.705 10.4212 138.503 10.3494 138.075 10.1644C137.733 10.0167 137.501 9.90431 137.42 9.86368C136.153 9.24293 135.37 8.60683 135.61 8.35221C135.85 8.09758 137.029 8.30706 138.396 8.81991L137.618 9.65556C137.699 9.69845 137.935 9.81808 138.273 9.96436C138.681 10.1404 138.902 10.2131 138.943 10.2262L139.721 9.39326C140.985 10.0131 141.766 10.6483 141.531 10.902C141.296 11.1558 140.115 10.9472 138.75 10.4361L138.745 10.4352Z" fill="white"/>
<path fill-rule="evenodd" clip-rule="evenodd" d="M150.003 23.9639C149.915 23.9755 149.826 23.9805 149.737 23.9788C149.595 23.9697 148.812 23.9016 148.748 23.9052C148.627 23.8959 148.506 23.8996 148.386 23.916C148.111 23.9571 147.823 23.939 147.544 23.9833C147.086 24.0555 147.14 23.953 147.281 23.8767C147.76 23.6162 149.091 23.749 149.558 23.8095C149.635 23.8194 149.718 23.8424 149.789 23.8487C149.827 23.8519 150.269 23.9169 150.003 23.9639H150.003ZM151.128 23.3837C150.874 23.4934 150.601 23.5547 150.325 23.5643C149.864 23.5742 149.329 23.469 148.887 23.3909C148.669 23.3526 148.393 23.3422 148.265 23.2844C148.138 23.2266 148.001 23.1137 148.272 23.1349C148.553 23.1526 148.833 23.1867 149.11 23.237C149.25 23.2672 149.568 23.2907 149.733 23.3065C149.835 23.316 150.092 23.3422 150.189 23.3426C150.337 23.3426 150.68 23.3404 150.842 23.3061C151.015 23.269 151.183 23.2252 151.357 23.1914C151.647 23.1336 151.185 23.3589 151.128 23.3837Z" fill="black"/>
<path fill-rule="evenodd" clip-rule="evenodd" d="M133.603 33.6278C133.612 33.5998 133.767 33.6319 133.848 33.6391C134.034 33.6558 134.819 33.6798 134.795 33.7163C134.732 33.8147 134.329 33.8066 134.2 33.798C133.991 33.7872 133.594 33.6576 133.603 33.6278ZM130.708 33.0292C130.645 32.9132 131.814 32.8847 131.884 32.8834C132.079 32.8802 132.825 32.9899 133.549 33.064C133.685 33.0775 135.039 33.1475 135.05 33.1687C135.06 33.1899 135 33.2396 134.88 33.2658C134.734 33.2974 134.5 33.3023 134.228 33.3064C133.963 33.3105 133.653 33.2581 133.338 33.2364C132.811 33.2003 132.293 33.0482 131.824 33.0143C131.703 33.0048 130.708 33.0287 130.708 33.0292H130.708Z" fill="black"/>
<path fill-rule="evenodd" clip-rule="evenodd" d="M126.13 21.9911C126.227 22.3185 125.474 23.5049 126.025 25.2579C126.07 25.3983 126.056 25.4949 125.974 25.3802C125.117 24.1861 126.016 21.9555 126.13 21.9911Z" fill="black"/>
<path fill-rule="evenodd" clip-rule="evenodd" d="M144.199 27.6504C143.909 27.8419 143.557 28.003 143.203 28.0193C142.903 28.0333 142.591 27.9331 142.437 27.6581C142.216 27.2649 142.466 26.8378 142.759 26.5674C143.04 26.3087 143.549 26.0229 143.71 25.6703C143.826 25.4105 144.011 25.1865 144.243 25.0216C144.563 24.8108 145.09 24.7196 145.347 25.0767C145.393 25.1434 145.425 25.2196 145.438 25.2997C145.452 25.3798 145.448 25.462 145.426 25.5403C145.395 25.6631 145.421 25.8563 145.43 25.985C145.457 26.3068 145.364 26.6272 145.17 26.8857C144.912 27.2346 144.552 27.417 144.199 27.6504Z" fill="black"/>
<path fill-rule="evenodd" clip-rule="evenodd" d="M144.006 27.362C144.479 27.0496 145.135 26.7544 145.085 26.0077C145.07 25.782 145.05 25.6194 145.091 25.4565C145.164 25.1626 144.77 25.0894 144.436 25.3102C144.259 25.4398 144.118 25.6131 144.029 25.8131C143.825 26.2646 143.28 26.5612 142.998 26.8212C142.286 27.4754 142.959 28.0537 144.006 27.362Z" fill="white"/>
<path fill-rule="evenodd" clip-rule="evenodd" d="M140.732 19.2716C140.43 19.1308 140.185 18.808 140.203 18.4653C140.213 18.2721 140.294 18.0906 140.475 18.003C140.759 17.8676 141.055 18.064 141.266 18.2437C141.393 18.35 141.509 18.4689 141.611 18.5985C141.67 18.6787 141.72 18.7654 141.759 18.8567C141.838 19.0409 141.871 19.2527 141.751 19.4296C141.644 19.5872 141.465 19.6427 141.283 19.6247C141.123 19.6093 141.047 19.5574 140.926 19.4667C140.859 19.4131 140.799 19.3526 140.745 19.2861C140.741 19.281 140.737 19.2762 140.732 19.2716Z" fill="black"/>
<path fill-rule="evenodd" clip-rule="evenodd" d="M140.549 18.4835C140.54 18.6573 140.677 18.8654 140.88 18.9589C141 19.0153 141.032 19.1133 141.136 19.1909C141.184 19.2402 141.248 19.2719 141.317 19.2812C141.633 19.3124 141.413 18.9124 141.334 18.8072C141.222 18.6573 140.574 17.9928 140.549 18.4835Z" fill="white"/>
<path fill-rule="evenodd" clip-rule="evenodd" d="M123.768 28.4337C123.88 28.3985 123.991 28.3624 124.105 28.3335C124.387 28.2613 124.723 28.2179 124.971 28.4075C125.168 28.5588 125.227 28.7931 125.209 29.0305C125.151 29.7578 124.552 30.0427 123.958 30.2869C123.602 30.4454 123.238 30.5998 122.917 30.8255C122.772 30.9284 122.628 31.0724 122.489 31.1867C122.23 31.4006 121.901 31.6282 121.547 31.5717C121.419 31.5511 121.3 31.4948 121.202 31.4092L121.168 31.3794L121.143 31.342C121.1 31.2789 121.063 31.2116 121.034 31.1411C120.759 30.4702 121.159 29.6738 121.631 29.1967C121.952 28.8721 122.372 28.6161 122.83 28.5533H122.838H122.845C123.156 28.5267 123.462 28.4816 123.768 28.4337Z" fill="black"/>
<path fill-rule="evenodd" clip-rule="evenodd" d="M122.718 30.5429C123.023 30.3267 123.306 30.1976 123.821 29.9687C124.301 29.7714 124.816 29.5597 124.861 29.003C124.907 28.403 124.225 28.654 123.847 28.7714C123.515 28.8252 123.214 28.8671 122.878 28.8978C121.857 29.0369 120.937 30.4233 121.43 31.1493C121.811 31.4784 122.381 30.7804 122.718 30.5429Z" fill="white"/>
<path fill-rule="evenodd" clip-rule="evenodd" d="M123.892 28.7549C123.898 28.7549 123.207 28.8655 122.876 28.8962C121.21 29.1219 120.822 31.7192 121.92 31.1594C121.156 31.2253 121.66 29.2488 122.98 29.0682C123.279 29.0407 123.585 28.8059 123.882 28.758L123.892 28.7549Z" fill="#E8A33C"/>
<path fill-rule="evenodd" clip-rule="evenodd" d="M123.071 37.5952C122.868 37.4724 122.645 37.3116 122.684 37.039C122.73 36.723 123.116 36.6295 123.367 36.518C123.965 36.251 124.563 35.9851 125.162 35.7203C125.207 35.6981 125.252 35.6778 125.3 35.6575C125.146 35.5773 125.013 35.4631 124.911 35.3235C124.808 35.184 124.739 35.0229 124.709 34.8526C124.661 34.5476 124.732 34.2358 124.908 33.9817C125.129 33.6454 125.484 33.4016 125.84 33.226C126.849 32.7294 128.243 33.0282 129.257 33.3831C129.515 33.4734 129.864 33.691 130.094 33.8413C130.284 33.9618 130.463 34.0977 130.631 34.2476C130.812 34.4151 130.993 34.6454 130.897 34.909C130.871 34.9764 130.829 35.0366 130.775 35.0846C130.721 35.1326 130.656 35.1672 130.586 35.1853C128.751 35.9442 126.946 36.7654 125.149 37.611L125.142 37.6141L125.134 37.6173L124.337 37.9473L124.311 37.9581L124.284 37.9645C123.867 38.0638 123.669 37.9839 123.32 37.7667L123.315 37.7631L123.309 37.759L123.071 37.5952Z" fill="black"/>
<path fill-rule="evenodd" clip-rule="evenodd" d="M123.257 37.3045L123.502 37.472C123.774 37.6413 123.881 37.7027 124.202 37.6264L124.999 37.2964C126.834 36.4345 128.597 35.6305 130.471 34.8558C130.978 34.7316 129.463 33.8233 129.14 33.7104C128.296 33.4147 126.929 33.0757 125.992 33.5371C124.11 34.4634 125.509 35.9032 126.003 35.2196C126.184 34.9682 126.461 34.8192 126.614 34.9036C127.245 35.258 125.491 35.942 125.307 36.0323L123.507 36.8336C123.039 37.044 122.831 37.0481 123.257 37.3045Z" fill="white"/>
<path fill-rule="evenodd" clip-rule="evenodd" d="M130.597 34.7426C130.56 34.464 129.438 33.8013 129.165 33.7042C128.32 33.409 126.953 33.0699 126.016 33.5309C124.84 34.1101 124.946 34.8893 125.31 35.2256C125.129 34.8356 125.247 34.2401 126.193 33.7747C127.13 33.3133 128.497 33.6523 129.341 33.948C129.551 34.023 130.262 34.4311 130.597 34.7426Z" fill="#E8A33C"/>
<path fill-rule="evenodd" clip-rule="evenodd" d="M127.182 35.178C127.249 35.1301 127.26 34.7779 127.237 34.6813C127.209 34.5648 127.039 34.5007 127.006 34.5626C126.968 34.6326 126.999 34.6881 127.02 34.7373C127.051 34.8029 127.071 34.8735 127.078 34.9459C127.082 34.9748 127.038 35.2791 127.182 35.1789V35.178ZM128.295 35.1378C128.336 35.1003 128.353 35.0786 128.349 35.0348C128.352 35.0023 128.344 34.9698 128.327 34.9418C128.278 34.8402 128.205 34.9337 128.18 34.9703C128.114 35.0678 127.818 35.3251 127.891 35.4245C127.931 35.4782 128.043 35.3242 128.083 35.294C128.201 35.2064 128.271 35.1585 128.295 35.1378ZM127.933 34.8086C127.927 34.9093 127.782 35.233 127.728 35.2791C127.674 35.3251 127.559 35.2791 127.61 35.1956C127.627 35.168 127.644 35.1414 127.658 35.1125C127.704 35.0018 127.728 34.8839 127.731 34.7644C127.731 34.6669 127.795 34.6596 127.872 34.6967C127.893 34.7065 127.91 34.7227 127.921 34.7428C127.932 34.7629 127.936 34.786 127.933 34.8086Z" fill="black"/>
<path fill-rule="evenodd" clip-rule="evenodd" d="M130.963 35.3242C130.748 35.4614 130.515 35.5686 130.271 35.6429C130.002 35.721 130.184 35.8108 130.344 35.7837C130.757 35.7133 131.643 35.1621 131.456 34.8646C131.405 34.7815 131.403 34.8849 131.338 34.9824C131.257 35.1034 131.048 35.2731 130.963 35.3242ZM124.384 34.4005C124.519 33.7955 125.121 33.0994 125.709 32.9274C126.134 32.8032 125.577 32.8222 125.266 32.9572C124.667 33.2181 124.213 33.8271 124.183 34.4795C124.175 34.6601 124.213 34.7192 124.273 34.6601C124.325 34.6127 124.357 34.5183 124.384 34.4005Z" fill="black"/>
<path fill-rule="evenodd" clip-rule="evenodd" d="M144.817 26.7697C144.913 26.6686 144.987 26.5482 145.033 26.4166C145.079 26.285 145.097 26.1452 145.084 26.0062C145.069 25.7828 145.049 25.618 145.09 25.455C145.163 25.1611 144.77 25.088 144.436 25.3087C144.316 25.3928 144.213 25.4988 144.133 25.6211C144.189 25.5573 144.253 25.501 144.323 25.4536C144.657 25.2329 145.051 25.306 144.978 25.5999C144.937 25.7629 144.957 25.9277 144.972 26.1512C144.991 26.3689 144.936 26.5867 144.817 26.7697ZM143.821 26.1168C143.569 26.4053 143.207 26.6238 142.994 26.8198C142.918 26.8874 142.852 26.9645 142.797 27.0491C142.822 27.0211 142.85 26.9931 142.881 26.9647C143.13 26.7367 143.578 26.4794 143.823 26.1168H143.821Z" fill="#E8A33C"/>
<path fill-rule="evenodd" clip-rule="evenodd" d="M167.861 29.8562L129.26 43.8853C127.5 44.5248 126.219 44.6346 126.235 46.9067L126.289 54.2327C126.309 56.9025 126.544 57.2536 129.313 57.2536H170.976C171.777 57.2518 172.546 56.9329 173.112 56.3668C173.679 55.8007 173.998 55.0334 174 54.2327L173.96 31.7592C173.953 27.3363 170.251 28.9877 167.861 29.8562Z" fill="black"/>
<path fill-rule="evenodd" clip-rule="evenodd" d="M129.647 54.6883V45.8584C129.982 45.7416 130.32 45.6226 130.679 45.4992C130.679 46.1249 130.679 46.749 130.675 47.3726C130.836 46.5735 131.015 45.9609 131.229 45.5359C131.443 45.1109 131.707 44.835 132.018 44.7253C132.261 44.6398 132.477 44.6661 132.671 44.8059C132.865 44.9458 133.019 45.1898 133.145 45.5425C133.252 45.8474 133.324 46.2417 133.368 46.7118C133.411 47.1818 133.434 47.9101 133.432 48.8781C133.432 49.8379 133.43 50.7991 133.428 51.7618C133.428 52.7172 133.423 53.672 133.423 54.623C132.954 54.6318 132.503 54.6384 132.07 54.6471V52.0865C132.07 51.2287 132.073 50.3666 132.073 49.5088C132.073 48.7377 132.027 48.1925 131.93 47.8635C131.834 47.5344 131.69 47.4033 131.484 47.4582C131.221 47.5289 131.042 47.8289 130.926 48.3593C130.811 48.8896 130.753 49.709 130.755 50.8311C130.755 51.4766 130.755 52.1183 130.755 52.7594C130.755 53.4005 130.751 54.0373 130.751 54.6718L129.647 54.6916V54.6883ZM138.16 47.2646C138.132 46.6125 138.019 46.1085 137.825 45.7613C137.632 45.4142 137.4 45.2858 137.128 45.3626C136.838 45.4445 136.611 45.6822 136.447 46.0756C136.286 46.4677 136.168 47.0139 136.113 47.7176C136.77 47.5728 137.443 47.4209 138.16 47.2651V47.2646ZM140.108 49.2658C138.66 49.4934 137.312 49.7013 136.069 49.8987C136.069 50.7411 136.161 51.3795 136.347 51.8183C136.534 52.257 136.805 52.4709 137.164 52.4424C137.302 52.4306 137.436 52.389 137.557 52.3202C137.677 52.2515 137.783 52.1572 137.865 52.0437C138.058 51.7936 138.204 51.4327 138.307 50.9627C138.797 51.3269 139.287 51.6993 139.805 52.0782C139.614 53.0166 139.293 53.7439 138.837 54.2468C138.389 54.7404 137.857 54.9773 137.256 54.9789C136.391 54.9789 135.729 54.4727 135.252 53.4647C135 52.9146 134.825 52.3313 134.73 51.7316C134.609 50.9983 134.552 50.2553 134.559 49.5115C134.562 48.7488 134.623 47.9874 134.742 47.2344C134.849 46.5507 135.026 45.8806 135.272 45.2354C135.761 43.9635 136.395 43.1804 137.192 42.9001C138.05 42.5974 138.767 42.9681 139.299 44.0436C139.572 44.5953 139.786 45.2907 139.917 46.1277C140.047 46.9646 140.115 47.9496 140.112 49.0607C140.112 49.1298 140.108 49.1973 140.108 49.2642V49.2658ZM147.84 39.6435C148.043 40.668 148.242 41.7012 148.453 42.7432C148.664 43.7853 148.882 44.8471 149.102 45.9127C149.114 45.9538 149.126 45.9906 149.134 46.0295C149.329 46.9311 149.449 47.6671 149.501 48.2233C149.537 47.8942 149.584 47.5492 149.644 47.1878C149.704 46.8264 149.79 46.3476 149.907 45.7706C150.149 44.58 150.404 43.3756 150.657 42.1597C150.912 40.9279 151.163 39.6813 151.418 38.4248C152.673 37.996 153.994 37.5462 155.382 37.0757C154.972 38.6289 154.564 40.1588 154.159 41.6656C153.754 43.1723 153.356 44.6531 152.964 46.1079C152.584 47.5169 152.201 48.905 151.838 50.2761C151.475 51.6472 151.116 52.9925 150.765 54.3164L148.435 54.3576C148.224 53.2479 148.016 52.1473 147.813 51.0559C147.613 49.9711 147.411 48.896 147.208 47.8306C147.138 47.4642 147.083 47.1022 147.033 46.7337C146.983 46.3651 146.937 45.9993 146.897 45.6368C146.837 46.222 146.727 46.9586 146.57 47.8465C146.563 47.886 146.559 47.9183 146.554 47.9529C146.347 49.0574 146.145 50.1527 145.937 51.2325C145.73 52.3124 145.535 53.3643 145.34 54.4102C144.71 54.4234 144.101 54.4321 143.503 54.4431C143.264 53.3599 143.026 52.2812 142.794 51.2172C142.563 50.1532 142.336 49.0986 142.109 48.0543C141.887 47.032 141.671 46.0202 141.456 45.0176C141.241 44.0151 141.027 43.0224 140.818 42.0391C141.583 41.7791 142.373 41.5082 143.2 41.2263C143.364 42.1586 143.54 43.091 143.71 44.0277C143.883 44.9759 144.063 45.9313 144.236 46.8911C144.314 47.3178 144.371 47.6863 144.42 48.011C144.468 48.3357 144.499 48.6483 144.531 48.956C144.579 48.4964 144.683 47.8553 144.834 47.0211C144.855 46.9043 144.871 46.8225 144.881 46.7655C145.074 45.7052 145.267 44.6359 145.459 43.5577C145.653 42.4696 145.857 41.3639 146.065 40.2473C146.642 40.0504 147.228 39.853 147.841 39.644L147.84 39.6435ZM156.113 52.7731C156.265 51.9867 156.41 51.1914 156.563 50.3923C156.717 49.5933 156.874 48.7832 157.037 47.9704C157.695 48.6878 158.425 49.2357 159.228 49.5845C160.053 49.9513 160.954 50.101 161.849 50.0199C162.522 49.9607 163.029 49.7786 163.383 49.4677C163.737 49.1567 163.925 48.7267 163.933 48.1893C163.945 47.3057 163.232 46.7408 161.837 46.5215C161.372 46.448 161.033 46.3816 160.777 46.3262C159.32 46.0109 158.317 45.4761 157.702 44.7407C157.098 44.0184 156.814 42.9944 156.826 41.6694C156.842 39.9473 157.316 38.4336 158.268 37.0834C159.24 35.7029 160.624 34.6702 162.447 34.0247C163.443 33.6728 164.482 33.4608 165.534 33.3945C166.73 33.323 167.93 33.4153 169.103 33.6688C168.868 34.6263 168.629 35.5751 168.398 36.5091C168.167 37.4431 167.928 38.37 167.697 39.2881C166.86 38.8312 166.064 38.5247 165.271 38.3958C164.503 38.2713 163.718 38.3149 162.968 38.5236C162.359 38.6881 161.896 38.9415 161.586 39.2667C161.276 39.5919 161.143 39.9731 161.136 40.4233C161.127 41.1012 161.789 41.5202 163.196 41.6848C163.518 41.7231 163.753 41.7582 163.908 41.7802C165.912 42.0632 167.369 42.622 168.21 43.4655C169.068 44.3249 169.481 45.6511 169.45 47.3929C169.429 48.4997 169.235 49.5077 168.868 50.417C168.502 51.3296 167.952 52.1533 167.254 52.8345C165.881 54.1842 164.175 54.8342 162.2 54.8446C160.909 54.8517 159.781 54.68 158.768 54.3225C157.796 53.9806 156.896 53.455 156.113 52.7731H156.113Z" fill="white"/>
<path fill-rule="evenodd" clip-rule="evenodd" d="M18.7549 7.61731L17.7821 13.5585C16.986 12.8628 16.0725 12.3136 15.084 11.9364C14.1142 11.571 13.0856 11.3856 12.0489 11.3892C10.2622 11.3892 8.78751 12.0119 7.62467 13.2573C6.46666 14.5031 5.88781 16.0901 5.88811 18.0184C5.88811 19.761 6.37466 21.1119 7.34776 22.0711C8.31936 23.0255 9.69516 23.5027 11.4752 23.5027C12.2719 23.4983 13.0656 23.404 13.8411 23.2214C14.7158 23.0154 15.5716 22.7364 16.3993 22.3871L15.4985 27.9626C14.7013 28.2123 13.8837 28.392 13.0552 28.4999C12.0994 28.6289 11.1357 28.691 10.1712 28.6859C7.09438 28.6859 4.62965 27.7349 2.77695 25.8331C0.924258 23.9313 -0.00133676 21.4051 0.000171457 18.2545C-0.00737573 16.775 0.234287 15.3048 0.715068 13.9052C1.18655 12.538 1.89907 11.2658 2.81903 10.1486C3.8959 8.83278 5.24485 7.82664 6.86589 7.13019C8.48149 6.43224 10.2914 6.08402 12.2955 6.08552C13.4124 6.08189 14.5257 6.20994 15.6125 6.467C16.7005 6.72817 17.7545 7.11418 18.7535 7.61731H18.7549ZM24.6971 28.1432H18.9639L22.3665 6.59793H28.115C29.851 6.59793 31.1411 6.65978 31.9854 6.78347C32.8311 6.90401 33.5659 7.11529 34.1853 7.40648C35.2776 7.91813 36.1047 8.6379 36.6666 9.5658C37.2286 10.4937 37.5096 11.6037 37.5096 12.8957C37.5096 14.6835 36.9743 16.1784 35.9038 17.3805C34.8333 18.5826 33.3626 19.3342 31.4918 19.6355L36.7522 28.1432H30.1634L25.9957 19.9168L24.6971 28.1432ZM26.5396 16.4505H28.3494C29.4923 16.4505 30.3629 16.1896 30.9737 15.6722C31.5846 15.1548 31.89 14.4013 31.89 13.4172C31.89 12.498 31.6031 11.8249 31.0344 11.4082C30.4656 10.9915 29.5494 10.7847 28.296 10.7847H27.4404L26.5396 16.4514V16.4505ZM42.2514 28.1432L43.7717 18.5308L37.696 6.59793H44.1237L46.4797 12.1021C46.6106 12.3883 46.7414 12.7097 46.872 13.0664C47.0032 13.423 47.134 13.8045 47.2648 14.2063C47.5267 13.5887 47.743 13.1115 47.9041 12.7702C48.0187 12.5191 48.1499 12.2758 48.2968 12.042L52.127 6.59793H58.7782L49.5651 18.5908L48.0602 28.1432H42.2514ZM64.1196 16.0595H64.6625C66.5303 16.0595 67.7937 15.8639 68.4528 15.4726C69.1125 15.0808 69.4397 14.4131 69.4397 13.4736C69.4397 12.6804 69.1578 12.0976 68.594 11.731C68.0302 11.3644 67.1393 11.1784 65.9312 11.1784H64.8992L64.1191 16.06L64.1196 16.0595ZM56.4534 28.1432H62.1866L63.3947 20.64H65.8159C67.5376 20.64 68.8011 20.5648 69.6062 20.4143C70.4167 20.259 71.1163 20.0012 71.7052 19.6409C72.7066 19.0233 73.5002 18.1394 74.086 16.9891C74.6742 15.8442 74.9665 14.5937 74.9665 13.2528C74.9665 11.8985 74.6951 10.7364 74.1462 9.76218C73.5974 8.78794 72.777 8.02453 71.6748 7.46698C71.0658 7.15096 70.3459 6.92975 69.5207 6.79928C68.6954 6.66881 67.457 6.59838 65.8159 6.59838H59.8886L56.4534 28.1432ZM78.8401 28.1432L81.4676 11.6001H76.6302L77.456 6.59793H92.6973L91.8716 11.6001H87.2564L84.6321 28.1432H78.8401ZM105.158 11.3892C103.396 11.3892 101.921 12.022 100.733 13.2876C99.5404 14.5481 98.9448 16.1149 98.9463 17.9882C98.9463 19.6456 99.4211 20.9682 100.371 21.956C101.317 22.9451 102.586 23.4426 104.166 23.4426C105.898 23.4426 107.369 22.788 108.581 21.4788C109.792 20.1696 110.396 18.5763 110.393 16.6988C110.393 15.147 109.901 13.8748 108.918 12.8822C107.934 11.8896 106.681 11.393 105.158 11.3924V11.3892ZM103.841 28.7156C102.296 28.7156 100.892 28.505 99.6282 28.0836C98.3912 27.6764 97.2458 27.0323 96.256 26.1875C95.2239 25.2846 94.4185 24.1735 93.8398 22.8467C93.2584 21.5145 92.9617 20.0759 92.9688 18.6229C92.9688 17.0157 93.2172 15.5124 93.714 14.1129C94.2099 12.7186 94.9628 11.4292 95.9338 10.3111C97.0772 8.96111 98.5195 7.8947 100.147 7.19611C101.803 6.47829 103.598 6.11848 105.531 6.11667C108.778 6.11667 111.402 7.04968 113.404 8.9157C115.406 10.7817 116.406 13.2045 116.404 16.1841C116.404 17.7814 116.152 19.2879 115.644 20.6942C115.148 22.0887 114.396 23.3784 113.424 24.4963C112.236 25.8823 110.83 26.9319 109.206 27.6452C107.584 28.3603 105.796 28.7172 103.841 28.7156Z" fill="#222222"/>
<path fill-rule="evenodd" clip-rule="evenodd" d="M26.3243 44.9816H26.8673C28.7348 44.9816 29.9982 44.786 30.6576 44.3947C31.317 44.0035 31.6458 43.3371 31.644 42.3957C31.644 41.6025 31.3621 41.0197 30.7988 40.6531C30.2355 40.2865 29.3441 40.1005 28.136 40.1005H27.103L26.3243 44.9816ZM18.6582 57.0653L22.0911 35.52H28.0184C29.659 35.52 30.8974 35.585 31.7227 35.7209C32.548 35.8568 33.2683 36.0722 33.8774 36.3886C34.9796 36.9462 35.8049 37.7145 36.3487 38.6838C36.8926 39.6531 37.1691 40.8183 37.1691 42.1745C37.1691 43.5153 36.8772 44.7658 36.2881 45.9107C35.699 47.0556 34.909 47.945 33.9077 48.5626C33.3186 48.9238 32.6189 49.1815 31.8087 49.3359C31.0033 49.4864 29.7399 49.5617 28.0184 49.5617H25.5995L24.3914 57.0649L18.6582 57.0653ZM37.8672 57.0653L41.2901 35.52H47.1695L43.7538 57.0653H37.8672ZM45.8718 57.0653H65.0849L65.8649 51.9426H56.3215L68.4621 35.52H50.6435L49.9793 40.2508H58.2848L45.8718 57.0653ZM65.1668 57.0653L77.5793 40.2508H69.2729L69.9376 35.52H87.7561L75.6151 51.9426H85.159L84.3785 57.0653H65.1668ZM84.4011 57.0653H90.6777L92.7464 52.9972H100.297L101.168 57.0653H107.021L102.436 35.52H95.2078L84.4011 57.0653ZM94.911 48.2059L97.2009 43.2742C97.2969 43.0584 97.4326 42.7271 97.6036 42.2851C97.7747 41.8431 97.9656 41.3208 98.1724 40.728C98.1828 41.0747 98.2131 41.4413 98.2584 41.8327C98.3036 42.2241 98.3841 42.6715 98.4796 43.174L99.4714 48.2059H94.911Z" fill="#222222"/>
</svg>
