<svg width="153" height="50" viewBox="0 0 153 50" fill="none" xmlns="http://www.w3.org/2000/svg">
<path fill-rule="evenodd" clip-rule="evenodd" d="M135.694 22.5506L134.948 22.8559L133.379 23.6685L132.453 24.3223L131.562 25.0182L131.553 25.0249L131.545 25.0309C130.669 25.6204 129.934 26.3072 129.153 27.0086L129.148 27.013L129.143 27.0173L128.436 27.5985L128.432 27.6025L128.427 27.606L126.314 29.2142L126.301 29.2237L126.288 29.2316L125.446 29.7477L125.435 29.7548L125.423 29.7608L124.321 30.311L124.316 30.3134L124.311 30.3154L123.424 30.7195C122.771 31.0184 122.095 31.2887 121.426 31.5531C120.807 31.7984 120.185 32.0374 119.56 32.27C119.354 32.3467 119.147 32.4229 118.939 32.4959C118.879 32.517 118.818 32.538 118.757 32.5574C118.736 32.5638 118.714 32.5705 118.693 32.5757C118.657 32.5847 118.619 32.5879 118.582 32.5852C118.539 32.5975 118.489 32.6174 118.452 32.6313C118.338 32.6734 118.225 32.7198 118.112 32.7662C117.805 32.8945 117.499 33.0298 117.194 33.166C116.695 33.3891 116.198 33.6166 115.702 33.8484C115.155 34.1151 114.624 34.4165 114.115 34.7507C113.598 35.0933 113.103 35.4728 112.61 35.8503C111.914 36.4577 111.235 37.1067 110.492 37.6545C109.873 38.1107 109.189 38.4818 108.54 38.8943L105.804 40.8755L104.619 41.8334L104.616 41.8362L104.612 41.839C104.182 42.1607 103.781 42.5182 103.412 42.9076C103.124 43.2206 102.858 43.554 102.618 43.9052C102.426 44.1831 102.243 44.4661 102.056 44.7472C101.838 45.0747 101.616 45.3974 101.38 45.7114C101.258 45.8738 101.108 46.013 100.937 46.1227C100.873 46.1642 100.804 46.1981 100.732 46.2235C100.568 46.2783 100.386 46.2442 100.299 46.0778C100.216 45.9234 100.279 45.7734 100.387 45.6578C100.434 45.6066 100.487 45.5586 100.537 45.5106C100.681 45.3772 100.816 45.235 100.942 45.0846C101.358 44.5753 101.734 44.0164 102.084 43.4602C102.447 42.8834 102.791 42.2911 103.112 41.6909C103.391 41.1677 103.669 40.6914 104.02 40.2126C104.077 40.1332 104.134 40.0574 104.19 39.9788C104.432 39.6374 104.677 39.2968 104.943 38.9729C105.216 38.6386 105.51 38.3258 105.814 38.0201L105.819 38.0154C106.483 37.3723 107.191 36.8245 108.002 36.3755C108.657 36.0131 109.359 35.7312 110.041 35.4228L110.744 35.0258L111.637 34.4343C112.632 33.6944 113.611 32.9163 114.688 32.2982C115.72 31.7059 116.858 31.2717 117.961 30.8294L117.974 30.8243L117.987 30.8203C118.936 30.5349 119.927 30.4174 120.87 30.124C122.431 29.6393 123.805 28.9799 125.187 28.115C126.408 27.2952 127.405 26.3068 128.483 25.3203C128.912 24.9003 129.332 24.4704 129.784 24.0742C130.305 23.6173 130.858 23.2009 131.389 22.7551L131.394 22.7511L131.399 22.7471C133.108 21.4071 135.029 20.36 137.082 19.6488L139.303 18.7858L139.311 18.7826L139.319 18.7802C139.677 18.6611 140.029 18.519 140.375 18.3709C140.782 18.1963 141.186 18.0101 141.585 17.8184C141.682 17.772 141.779 17.7252 141.875 17.6778C142.498 17.3737 143.337 16.9657 143.799 16.4432C143.815 16.4254 143.895 16.3301 143.895 16.3039C143.894 16.2903 143.89 16.2769 143.885 16.2642C143.865 16.2093 143.834 16.1594 143.792 16.1181C143.686 16.0082 143.504 15.9196 143.371 15.8446C143.138 15.7144 142.933 15.5786 142.765 15.3683C142.271 14.7537 142.003 14.0043 142.228 13.2246C142.409 12.5954 142.872 12.098 143.422 11.7606C144.039 11.3815 144.777 11.1925 145.499 11.1759C146.457 11.1532 147.513 11.4383 148.241 12.0798C149.363 13.0698 149.07 14.4699 148.458 15.6473L148.45 15.6624L148.441 15.6763C148.263 15.9427 148.087 16.2142 147.89 16.4667C147.688 16.7215 147.467 16.9604 147.228 17.1812L147.223 17.1864L147.217 17.1915C146.558 17.7566 145.862 18.2773 145.134 18.75C144.424 19.2028 143.689 19.6145 142.931 19.983L142.921 19.9878L142.911 19.9922C140.543 20.9512 138.09 21.6694 135.694 22.5506Z" fill="black"/>
<path fill-rule="evenodd" clip-rule="evenodd" d="M148.187 15.508C147.759 16.1495 147.58 16.4302 147.019 16.9605C145.643 18.132 144.407 18.9164 142.797 19.7099C140.428 20.6678 137.983 21.3828 135.583 22.2652L134.819 22.5776L133.219 23.4069L132.27 24.0774L131.374 24.78C130.447 25.4045 129.778 26.0388 128.947 26.7835L128.24 27.3647L126.127 28.9732L125.285 29.4893L124.183 30.0395L123.297 30.4424C121.873 31.0946 118.606 32.3169 118.602 32.2816C118.596 32.1573 115.568 33.5737 115.568 33.5737C114.253 34.2232 113.579 34.7225 112.415 35.6149C111.65 36.2815 111.005 36.8968 110.309 37.4096C109.719 37.8463 109.087 38.1841 108.367 38.6422L105.617 40.6338L104.425 41.5969C102.574 43.0053 102.302 43.9787 101.132 45.5269C100.899 45.8361 100.59 45.9782 100.568 45.9342C100.545 45.8901 100.867 45.6563 101.178 45.2772C101.958 44.3209 102.805 42.9073 103.381 41.8343C103.943 40.7843 104.141 40.5735 104.438 40.1551C105.017 39.3397 105.319 38.9523 106.029 38.233C106.732 37.5525 107.407 37.05 108.148 36.6407C108.773 36.2953 109.448 36.0234 110.177 35.6939L110.901 35.2874L111.811 34.6848C112.786 33.9592 113.786 33.1672 114.837 32.5638C115.832 31.9918 117.003 31.542 118.072 31.1157C119.025 30.8291 120.022 30.71 120.958 30.4186C122.576 29.9164 123.934 29.261 125.351 28.3738C126.635 27.5124 127.554 26.5847 128.691 25.5446C129.122 25.123 129.537 24.6975 129.983 24.306C130.5 23.8535 131.049 23.4387 131.583 22.9917C133.391 21.6023 135.09 20.6805 137.186 19.9374L139.414 19.0696C140.127 18.8346 141.092 18.3999 142.009 17.9517C142.808 17.5615 143.571 17.1622 144.029 16.6449C144.208 16.4417 144.231 16.3198 144.173 16.1606C143.994 15.6612 143.376 15.6406 143.003 15.1765C141.524 13.3334 143.262 11.5339 145.506 11.4815C146.434 11.4597 147.398 11.7443 148.037 12.3088C149.046 13.1996 148.727 14.4687 148.187 15.508Z" fill="white"/>
<path fill-rule="evenodd" clip-rule="evenodd" d="M129.344 8.46692C128.742 8.30814 128.138 8.16681 127.519 8.09734C126.868 8.0239 126.211 8.03105 125.557 8.05209L125.413 8.06638L125.123 8.09695C124.447 8.1688 123.81 8.23033 123.127 8.17436L123.004 8.16443L122.925 8.07313C122.749 7.87767 122.559 7.69611 122.355 7.53007C121.29 6.65952 119.883 6.14346 118.529 5.95529C117.918 5.86895 117.3 5.84991 116.685 5.89853L116.588 5.90646L116.493 5.91718C116.317 5.93584 116.142 5.96164 115.968 5.9934L115.788 6.02675L115.673 5.88463C115.09 5.16254 115.036 3.97917 115.345 3.13124C116.135 0.943143 118.611 0.130148 120.754 0.16786H120.764H120.773C122.634 0.313945 124.361 0.905828 126.069 1.62196L126.567 1.83514C127.664 2.23925 128.738 2.42503 129.904 2.45878C130.903 2.48736 131.897 2.4036 132.894 2.41511C133.189 2.41829 133.483 2.43019 133.776 2.45481C134.8 2.54452 135.724 2.78866 136.637 3.26582C137.87 3.9101 138.929 4.8934 139.836 5.93703L140.692 6.74288C141.058 7.07435 141.45 7.34628 141.846 7.63924L142.284 7.96317C142.837 8.21101 143.376 8.48687 143.901 8.78966C144.708 9.20648 145.544 9.61298 146.3 10.1163C147.502 10.9158 147.982 11.5125 148.732 12.6772L147.712 12.1421L147.572 12.0698L147.566 12.067C147.079 11.8029 146.542 11.645 145.989 11.604C145.437 11.5629 144.882 11.6396 144.361 11.8289C143.598 12.1091 142.777 12.7193 142.624 13.5672C142.459 14.4802 143.172 15.2111 143.873 15.6755L143.917 15.6977L143.963 15.7212C143.97 15.7247 143.977 15.7283 143.983 15.7323C143.989 15.7362 143.996 15.7394 144.002 15.7434C144.012 15.7497 144.021 15.7566 144.03 15.764C144.081 15.8053 144.117 15.8616 144.134 15.9248C144.15 15.988 144.146 16.0547 144.122 16.1153C144.097 16.1759 144.054 16.2272 143.999 16.2617C143.943 16.2962 143.878 16.3121 143.813 16.3071L143.352 16.271L143.315 16.2678L143.28 16.2567C143.243 16.2444 143.206 16.2317 143.171 16.217L143.146 16.2876L142.882 16.2293C142.077 16.0518 141.327 15.8196 140.597 15.4322C139.867 15.0447 139.177 14.5223 138.507 14.0328L138.495 14.0245L138.484 14.015C137.609 13.2445 136.715 12.4966 135.774 11.8066C134.842 11.1191 133.861 10.5006 132.838 9.95636C131.716 9.36633 130.547 8.86822 129.344 8.46692Z" fill="black"/>
<path fill-rule="evenodd" clip-rule="evenodd" d="M143.717 15.9399C143.717 15.9399 143.84 16.0014 143.837 16.001L143.376 15.9649C142.324 15.6203 141.958 14.8514 141.575 13.8955C141.799 14.8697 142.068 15.4814 142.948 15.9311C141.014 15.5044 140.288 14.9542 138.688 13.7875C135.982 11.4017 133.381 9.50222 129.433 8.17475C127.904 7.77103 127.152 7.69521 125.537 7.74761L125.48 7.75317C124.599 7.25973 123.914 6.69127 123.712 5.15778C123.566 6.42808 124.193 7.34111 125.091 7.79366C124.428 7.86432 123.836 7.92625 123.152 7.87067C122.966 7.66329 122.765 7.47071 122.549 7.29467C121.439 6.38759 119.98 5.8493 118.57 5.65319C117.937 5.56402 117.297 5.54445 116.66 5.59484C116.27 4.82658 116.184 3.94032 116.418 3.11139C116.059 3.86048 116.139 4.83663 116.46 5.61231C116.276 5.63215 116.093 5.65875 115.912 5.6917C115.41 5.06925 115.355 4.00259 115.634 3.23446C116.369 1.19998 118.711 0.438197 120.75 0.475513C122.578 0.619216 124.265 1.19998 125.951 1.90699C125.324 1.85737 124.724 2.2849 124.383 2.78032C124.921 2.10865 125.656 2.05426 126.448 2.11619C129.371 3.19873 131.506 2.56397 133.75 2.76008C135.512 2.9145 137.354 3.54846 139.615 6.1498L140.487 6.96994C140.893 7.33754 141.224 7.55984 141.664 7.88536C140.942 7.69402 140.482 7.71546 139.897 8.21405C140.676 7.81708 140.954 7.89647 141.643 8.02628C142.369 8.32253 143.074 8.66736 143.754 9.0584C145.517 9.97144 146.567 10.4538 147.852 11.8697L147.711 11.7975C144.298 9.95397 140.019 13.508 143.717 15.9399Z" fill="#E8A33C"/>
<path fill-rule="evenodd" clip-rule="evenodd" d="M143.74 17.0875C143.709 17.1074 143.679 17.1272 143.649 17.1479L143.641 17.1542L143.631 17.1598C142.194 18.0125 140.589 18.6353 139.024 19.2133C137.775 19.675 136.511 20.1132 135.284 20.6309C134.526 20.9485 133.841 21.3684 133.146 21.8043C131.504 22.8364 130.128 24.1159 128.73 25.4473C127.461 26.7363 126.089 27.903 124.558 28.8708C123.802 29.3466 122.997 29.7395 122.156 30.0427C121.192 30.3948 120.19 30.6556 119.205 30.9426C117.923 31.3095 116.663 31.7436 115.427 32.2431C113.794 33.122 112.416 34.4058 110.848 35.3906C110.291 35.7396 109.701 36.0159 109.106 36.2874C107.802 36.9805 106.639 37.7637 105.638 38.8566C104.691 39.8887 103.937 41.1261 103.215 42.3213C102.845 42.9339 102.485 43.5484 102.101 44.1522C101.926 44.4273 101.747 44.7004 101.56 44.9675C101.402 45.1986 101.232 45.4216 101.052 45.6356C100.871 45.846 100.626 46.1648 100.31 46.1009C100.018 46.0417 99.8843 45.7786 99.7566 45.5408C99.5827 45.2172 99.455 44.8421 99.3543 44.49C99.2196 44.0088 99.1171 43.5192 99.0476 43.0244C98.952 42.3239 98.9092 41.6173 98.9195 40.9105C98.9222 40.4266 98.9378 39.9439 98.9775 39.462C99.0173 38.9713 99.083 38.4854 99.1629 37.9999V37.9904V37.9813C99.3575 37.1377 99.5608 36.2711 99.9093 35.4748C100.253 34.6852 100.741 33.9663 101.239 33.2668C101.535 32.8496 101.842 32.4384 102.147 32.0271C102.513 31.5325 102.889 31.0347 103.233 30.525C103.958 29.4496 104.38 28.2448 104.812 27.0316C105.206 25.7649 105.659 24.597 106.321 23.445C106.878 22.4776 107.562 21.6237 108.231 20.7353C109.162 19.4983 109.96 18.1836 110.523 16.7386C111.124 15.1975 111.571 13.6525 112.609 12.3263C113.066 11.7435 113.499 11.1393 113.906 10.5208C114.516 9.59034 115.845 7.41137 115.744 6.27325L115.718 5.97592L116.015 5.94218C117.551 5.76632 119.113 5.95091 120.536 6.56542C121.004 6.7663 121.451 7.01437 121.869 7.30577C122.075 7.44688 122.269 7.6032 122.451 7.7734C122.505 7.77179 122.558 7.76501 122.61 7.75316L122.666 7.72696L122.746 7.73132C123.338 7.76388 124.026 7.8127 124.613 7.74045C125.858 7.58762 127.088 7.55825 128.326 7.78531C129.545 8.00881 130.67 8.46016 131.766 9.02862C132.423 9.36843 133.063 9.74317 133.691 10.1338C134.447 10.601 135.187 11.0901 135.923 11.5847C137.217 12.4545 138.377 13.5156 139.663 14.3969C140.36 14.8732 141.082 15.3802 141.885 15.6489C142.488 15.851 143.133 16.0435 143.772 15.9708L144.024 15.764C144.571 16.2555 144.259 16.7445 143.74 17.0875Z" fill="black"/>
<path fill-rule="evenodd" clip-rule="evenodd" d="M143.953 16.1419C144.045 16.267 144.029 16.4464 143.911 16.5734C142.944 16.9204 141.782 16.556 141 16.2582C141.804 16.7418 143.01 16.951 143.571 16.8315C143.538 16.8529 143.506 16.8747 143.474 16.8966C141.024 18.3507 137.84 19.2208 135.164 20.3502C134.343 20.6964 133.642 21.133 132.982 21.5467C131.348 22.5729 130.063 23.755 128.514 25.231C126.918 26.8526 125.544 27.8859 124.393 28.6135C121.707 30.3114 119.585 30.2125 115.296 31.9667C113.647 32.8508 112.252 34.1501 110.684 35.1326C110.14 35.4744 109.568 35.7407 108.97 36.0139C105.807 37.6934 104.72 39.2468 102.952 42.1641C102.61 42.7365 101.507 44.6372 100.819 45.4371C100.615 45.6753 100.479 45.8234 100.37 45.8016C100.23 45.773 100.148 45.6233 100.027 45.397C99.7673 44.9143 99.5047 44.0442 99.3503 42.9815C99.2485 42.2761 99.221 41.6254 99.225 40.9129C99.2224 39.9538 99.3023 38.9962 99.4637 38.0507C99.9586 35.9015 100.22 35.2322 101.49 33.4459C102.074 32.6253 103.002 31.4169 103.489 30.698C104.211 29.6262 104.613 28.5115 105.105 27.1301C105.59 25.5684 106.033 24.5664 106.589 23.597C107.144 22.6276 107.79 21.8325 108.478 20.9191C109.429 19.6571 110.235 18.3281 110.812 16.8493C111.403 15.3329 111.839 13.8109 112.854 12.5148C114.399 10.5415 116.178 7.66107 116.052 6.24627C119.722 5.82667 121.928 7.65393 122.329 8.08305C122.64 8.07987 122.731 8.037 122.731 8.037C123.314 8.06916 124.087 8.11401 124.653 8.04454C128.691 7.54833 130.891 8.57093 135.753 11.8388C136.962 12.6514 138.255 13.8018 139.493 14.6493C141.024 15.6961 142.761 16.2777 143.953 16.1419Z" fill="#E8A33C"/>
<path fill-rule="evenodd" clip-rule="evenodd" d="M119.784 2.59851C119.962 2.64211 120.142 2.67328 120.323 2.6918C120.948 2.75149 121.577 2.75415 122.202 2.69974C122.728 2.66004 123.178 2.58859 123.709 2.62034C123.791 2.62511 123.876 2.62868 123.967 2.62551C124.651 2.60407 121.514 0.410407 119.209 0.925279C118.501 1.08407 117.964 1.31868 117.856 1.57155C117.753 1.81648 118.177 2.10071 118.845 2.33651C119.152 2.4418 119.466 2.52928 119.784 2.59851Z" fill="white"/>
<path fill-rule="evenodd" clip-rule="evenodd" d="M124.626 2.89147C125.054 3.26691 125.545 3.56356 126.076 3.76759C126.646 3.98632 127.251 4.09628 127.885 4.12486C128.91 4.17051 129.924 4.07127 130.931 4.36304C131.534 4.5385 132.016 4.64926 132.483 4.80725C134.388 5.45431 134.627 5.82429 137.027 6.39513C137.902 6.60314 138.849 6.92786 139.753 7.57096C140.658 8.21405 139.552 6.68293 139.435 6.50311C138.632 5.35507 137.525 4.35947 136.173 3.8966C134.273 3.24795 133.495 3.36268 131.461 3.40436C130.47 3.41786 129.699 3.373 128.722 3.1757L127.659 2.89544C127.404 2.81605 127.187 2.73665 126.976 2.66361C126.227 2.40558 125.7 2.31944 124.928 2.55564C124.656 2.64019 124.471 2.75611 124.626 2.89147Z" fill="white"/>
<path fill-rule="evenodd" clip-rule="evenodd" d="M142.274 8.92661C143.201 9.30492 143.77 9.55898 144.62 10.083C144.958 10.2791 146.506 11.0845 145.221 10.9833C143.715 10.8642 142.175 10.1076 141.133 9.02982C141.051 8.92819 140.485 8.25771 140.549 8.17672C140.688 8.00285 142.026 8.81069 142.274 8.92661Z" fill="white"/>
<path fill-rule="evenodd" clip-rule="evenodd" d="M123.333 5.20938C123.134 4.27213 122.191 4.46903 121.157 4.91642C120.499 5.20104 119.562 5.01963 119.095 4.55914C118.509 3.98036 115.952 2.09118 115.815 4.01013C115.779 4.51349 115.855 5.1669 116.173 5.65994C116.97 5.54719 117.779 5.54799 118.576 5.66232C119.986 5.85803 121.446 6.39672 122.555 7.3034C122.768 7.4772 122.967 7.66711 123.152 7.87146C123.525 7.90051 123.901 7.9033 124.275 7.8798C124.521 7.86313 124.799 7.82383 125.097 7.80279C124.125 7.32047 123.56 6.2812 123.333 5.20938Z" fill="#DB9937"/>
<path fill-rule="evenodd" clip-rule="evenodd" d="M139.233 10.1318C140.432 11.2485 141.306 11.6542 143.281 11.8094C142.843 12.0202 142.562 12.3652 142.365 12.6613C141.791 13.5291 141.983 14.4544 142.687 15.2063C142.998 15.5285 143.367 15.7883 143.776 15.9716L143.674 15.9899L143.373 15.9665C142.322 15.6219 141.955 14.853 141.572 13.8971C141.796 14.8712 142.066 15.483 142.946 15.9327C141.011 15.506 140.286 14.9558 138.685 13.7891C138.312 13.4604 137.94 13.141 137.569 12.8308C137.877 12.4412 138.142 12.0196 138.359 11.5732C138.56 11.1628 138.704 10.727 138.788 10.2779C137.41 10.1278 133.438 9.10485 130.037 8.38871C128.943 7.94808 127.23 7.72379 126.11 7.7357C125.481 7.54753 125.033 7.30697 124.694 6.97074C124.463 6.73589 124.276 6.46178 124.142 6.16131C123.611 5.02876 123.804 4.39996 125.256 4.62782C126.585 4.83702 128.415 5.79293 128.893 5.96243C130.657 7.50228 133.56 6.52653 136.499 7.56698C137.733 8.00087 138.846 9.75826 139.233 10.1318Z" fill="#DB9937"/>
<path fill-rule="evenodd" clip-rule="evenodd" d="M123.402 8.17793C123.865 8.23946 124.464 8.41611 125.121 8.3649C126.586 8.25295 128.383 8.38713 129.548 8.71741C129.691 8.60943 129.761 8.55862 129.832 8.50662C129.691 8.46692 129.535 8.4046 129.365 8.35259C129.132 8.28074 128.873 8.21564 128.602 8.15173C128.236 8.07118 127.866 8.01245 127.494 7.97587C126.841 7.90402 126.181 7.91751 125.654 7.95006C125.183 7.97944 124.819 7.9854 124.642 8.04335C124.272 8.16443 123.771 8.08305 123.316 8.06598C123.346 8.10277 123.374 8.14008 123.402 8.17793ZM131.337 16.0637C133.718 16.2555 136.03 15.3289 137.902 13.8903L137.981 13.7951C139.072 14.4671 139.785 15.0165 140.535 15.4C141.079 15.6762 141.648 15.8975 142.235 16.0606C142.843 16.2293 143.604 16.4305 143.91 16.5734C144.029 16.4464 144.044 16.267 143.952 16.1419C142.758 16.2777 141.012 15.6957 139.482 14.6477C138.787 14.1714 138.075 13.6005 137.369 13.0468C136.876 13.6246 136.31 14.1369 135.685 14.5711C134.53 15.379 133.119 16.0363 131.685 16.0689C131.569 16.0718 131.453 16.0701 131.337 16.0637Z" fill="#8B6124"/>
<path fill-rule="evenodd" clip-rule="evenodd" d="M128.018 2.77436C128.043 2.79806 128.069 2.81896 128.098 2.83669C128.225 2.91014 128.361 2.96748 128.502 3.00739C128.621 3.04311 128.739 3.07606 128.86 3.10147C129.408 3.21659 129.795 3.28805 130.345 3.29082C130.525 3.29082 130.703 3.29321 130.885 3.28765C130.992 3.28408 131.098 3.27018 131.203 3.26343C131.394 3.25192 131.585 3.24597 131.776 3.23247C131.992 3.21699 132.186 3.2019 132.405 3.19277C132.693 3.18205 132.981 3.16538 133.268 3.15903C133.376 3.15625 133.483 3.163 133.59 3.16538C133.658 3.16538 134.055 3.20905 134.064 3.1372C134.067 3.11576 134.007 3.0975 133.908 3.08916C133.771 3.07805 133.635 3.06138 133.497 3.05661C133.076 3.04206 132.655 3.03319 132.233 3.03001C131.965 3.03001 131.697 3.03557 131.43 3.03994C131.072 3.0455 130.714 3.06058 130.355 3.05939C130.083 3.05939 129.811 3.05463 129.539 3.03319C129.369 3.01604 129.199 2.98954 129.031 2.9538C128.842 2.91807 128.655 2.8744 128.468 2.82915C128.376 2.80731 128.286 2.78072 128.195 2.7569C128.155 2.74618 128.114 2.73427 128.072 2.72514C128.031 2.71601 127.96 2.7172 128.018 2.77436Z" fill="black"/>
<path fill-rule="evenodd" clip-rule="evenodd" d="M116.168 5.64962C116.081 5.66233 115.995 5.67662 115.91 5.6925C115.894 5.67185 115.879 5.6528 115.863 5.63136C115.405 5.00177 115.362 3.97877 115.632 3.23525C116.37 1.19998 118.712 0.438197 120.751 0.475513C122.579 0.619216 124.266 1.19998 125.952 1.90699C125.775 1.89414 125.596 1.91612 125.427 1.97169L124.963 1.81291C124.446 1.58743 123.974 1.38457 123.483 1.20276C122.622 0.885186 121.665 0.65534 120.745 0.620804C119.776 0.585076 118.911 0.791104 117.773 1.35083C116.836 1.81211 116.123 2.47862 115.923 3.40277C115.901 3.50638 115.879 3.61475 115.861 3.7271C115.838 3.81904 115.823 3.91283 115.817 4.00736C115.807 4.14411 115.806 4.28132 115.813 4.41822C115.818 4.54868 115.833 4.67859 115.857 4.80685C115.905 5.10484 116.011 5.39066 116.168 5.64843L116.168 5.64962ZM147.852 11.869H147.849H147.847H147.845L147.593 11.7395C147.101 11.2235 146.7 10.9428 146.102 10.5582C145.784 10.368 145.495 10.214 145.165 10.0477C144.279 9.59511 143.498 9.22235 142.655 8.68922C141.856 8.19222 141.303 8.04097 140.58 8.09377C140.361 8.10554 140.143 8.14176 139.932 8.20174C140.684 7.82581 141.026 7.90124 141.646 8.02986C142.372 8.32611 143.078 8.67093 143.757 9.06198C145.521 9.97501 146.571 10.4573 147.855 11.8733L147.852 11.869ZM141.225 7.79207C141.372 7.81317 141.519 7.84394 141.662 7.88417C141.223 7.55865 140.891 7.33635 140.485 6.96875L139.614 6.14861C139.208 5.6917 138.825 5.28917 138.448 4.94182C138.085 4.60586 137.698 4.2961 137.29 4.0149C136.96 3.78884 136.613 3.58844 136.252 3.41547C135.943 3.27027 135.623 3.1469 135.297 3.04629C132.448 2.12492 130.061 3.46787 126.448 2.115C125.662 2.05347 124.934 2.10666 124.396 2.76206C125.267 2.11024 126.252 2.16859 127.237 2.46155C127.748 2.63027 128.311 2.75492 128.837 2.8752C129.459 2.98714 130.252 3.00104 130.886 2.99032C132.097 2.96928 133.293 2.88195 134.492 3.09552L135.403 3.29797C136.646 3.65524 137.346 4.17885 138.288 5.05536C139.333 6.02794 140.034 6.94494 141.225 7.79207ZM124.408 2.7434C124.532 2.5709 124.681 2.4167 124.849 2.2853C124.673 2.40741 124.523 2.56311 124.408 2.7434Z" fill="white"/>
<path fill-rule="evenodd" clip-rule="evenodd" d="M123.711 5.15658C124.049 6.29946 124.484 7.23948 126.09 7.72657L126.031 7.73411C125.875 7.73649 125.711 7.74086 125.536 7.74641L125.478 7.75197C124.974 7.47647 124.672 7.23035 124.436 6.96041C124.165 6.64998 123.989 6.30303 123.829 5.74965C123.806 5.63056 123.772 5.51901 123.75 5.40231C123.734 5.32132 123.727 5.23756 123.711 5.15658Z" fill="white"/>
<path fill-rule="evenodd" clip-rule="evenodd" d="M145.704 11.2858C144.691 11.1615 143.724 11.5581 143.182 11.8586C142.978 11.9977 142.787 12.156 142.613 12.3314C142.524 12.4356 142.442 12.5452 142.367 12.6597C141.793 13.5275 141.985 14.4528 142.688 15.2047C142.765 15.2866 142.847 15.364 142.933 15.4365C142.933 15.4365 142.516 14.9566 142.368 14.3441C142.295 14.0307 142.295 13.7046 142.368 13.3912C142.442 13.0777 142.587 12.7854 142.792 12.537C143.37 11.8304 144.472 11.2846 145.706 11.2866L145.704 11.2858Z" fill="white"/>
<path fill-rule="evenodd" clip-rule="evenodd" d="M146.89 13.9868C146.902 13.8356 146.969 13.695 147.116 13.6339C147.403 13.5148 147.745 13.78 147.777 14.0733C147.814 14.4262 147.557 14.9737 147.138 14.9205L147.049 14.9094L147.009 14.83C146.958 14.718 146.879 14.115 146.89 13.9868Z" fill="black"/>
<path fill-rule="evenodd" clip-rule="evenodd" d="M147.051 13.9995C147.043 14.1043 147.123 14.6862 147.157 14.7585C147.444 14.795 147.642 14.3615 147.613 14.0908C147.58 13.7839 147.083 13.5958 147.051 13.9995Z" fill="#E8A33C"/>
<path fill-rule="evenodd" clip-rule="evenodd" d="M146.034 15.7795C145.947 15.8224 145.851 15.8414 145.764 15.7878C145.665 15.7271 145.671 15.6509 145.617 15.5735C145.572 15.5096 145.517 15.4512 145.467 15.3913C145.342 15.2424 145.275 15.0372 145.394 14.8637C145.492 14.7216 145.676 14.6652 145.841 14.6946C145.937 14.7126 146.025 14.7578 146.094 14.8247C146.164 14.8917 146.213 14.9775 146.235 15.0717C146.298 15.3043 146.281 15.6572 146.034 15.7795Z" fill="black"/>
<path fill-rule="evenodd" clip-rule="evenodd" d="M145.961 15.6334C146.093 15.5683 146.137 15.3357 146.077 15.1142C145.95 14.6442 145.242 14.8649 145.593 15.2869C145.65 15.3548 145.703 15.4111 145.752 15.4798C145.829 15.5913 145.808 15.7092 145.961 15.6334Z" fill="#E8A33C"/>
<path fill-rule="evenodd" clip-rule="evenodd" d="M145.459 13.0873C145.422 13.0951 145.385 13.1057 145.35 13.119C145.249 13.1524 145.142 13.1845 145.037 13.1488C144.999 13.1334 144.965 13.1086 144.938 13.0767C144.912 13.0448 144.894 13.0068 144.886 12.9662C144.877 12.923 144.876 12.8783 144.885 12.8349C144.893 12.7914 144.91 12.7501 144.935 12.7133C145.046 12.541 145.158 12.4533 145.36 12.4041C145.519 12.3644 145.671 12.3763 145.807 12.4743C145.83 12.491 145.853 12.5073 145.876 12.5248C146.023 12.6403 146.098 12.8054 145.971 12.9733C145.96 12.9889 145.946 13.0031 145.932 13.0158C145.835 13.0976 145.708 13.0952 145.59 13.0888C145.546 13.0843 145.503 13.0838 145.459 13.0873Z" fill="black"/>
<path fill-rule="evenodd" clip-rule="evenodd" d="M145.434 12.9257C145.56 12.9058 145.769 12.9702 145.841 12.8745C145.931 12.7554 145.802 12.6716 145.712 12.6069C145.623 12.5422 145.523 12.5327 145.399 12.5629C145.236 12.6026 145.16 12.6669 145.073 12.801C145.012 12.8971 145.058 12.9825 145.091 12.994C145.181 13.0253 145.325 12.9432 145.434 12.9257Z" fill="#E8A33C"/>
<path fill-rule="evenodd" clip-rule="evenodd" d="M146.848 15.6755C146.882 15.6513 146.921 15.6343 146.962 15.6254C147.003 15.6166 147.045 15.616 147.086 15.6239C147.161 15.641 147.228 15.683 147.276 15.7429C147.323 15.8029 147.349 15.8772 147.349 15.9538C147.355 16.1467 147.23 16.3198 147.093 16.4448C147.002 16.529 146.877 16.5996 146.754 16.5318C146.587 16.4397 146.618 16.1892 146.656 16.0351C146.686 15.9172 146.744 15.7477 146.848 15.6755Z" fill="black"/>
<path fill-rule="evenodd" clip-rule="evenodd" d="M146.941 15.8085C146.808 15.9018 146.663 16.6179 146.983 16.3246C147.373 15.9673 147.111 15.6894 146.941 15.8085Z" fill="#E8A33C"/>
<path fill-rule="evenodd" clip-rule="evenodd" d="M146.335 12.416C146.475 12.3021 146.653 12.3934 146.757 12.5065C146.867 12.6267 146.932 12.7807 146.942 12.9432C146.949 13.0531 146.938 13.1813 146.817 13.2302C146.784 13.2422 146.748 13.2451 146.714 13.2385C146.679 13.2318 146.647 13.2159 146.621 13.1924C146.59 13.1657 146.563 13.135 146.541 13.1011C146.508 13.0469 146.472 12.9949 146.432 12.9455C146.396 12.9082 146.36 12.8792 146.325 12.8372C146.215 12.7046 146.19 12.5347 146.335 12.416Z" fill="black"/>
<path fill-rule="evenodd" clip-rule="evenodd" d="M146.439 12.5426C146.315 12.6434 146.511 12.7899 146.55 12.832C146.596 12.8858 146.637 12.9436 146.673 13.0047C146.766 13.1341 146.787 13.075 146.78 12.9511C146.764 12.6792 146.531 12.4692 146.439 12.5426Z" fill="#E8A33C"/>
<path fill-rule="evenodd" clip-rule="evenodd" d="M146.031 17.469C146.236 17.3372 146.126 17.253 145.948 17.3571C145.761 17.4654 145.863 17.5686 146.031 17.469Z" fill="black"/>
<path fill-rule="evenodd" clip-rule="evenodd" d="M145.771 17.0577C145.817 17.0955 145.92 17.0383 146.001 16.9668C146.152 16.8342 146.206 16.76 146.16 16.6576C146.094 16.5075 145.706 17.0041 145.771 17.0577Z" fill="black"/>
<path fill-rule="evenodd" clip-rule="evenodd" d="M147.47 15.5242C147.503 15.6076 147.701 15.3258 147.629 15.271C147.594 15.2448 147.575 15.3067 147.539 15.3682C147.502 15.4298 147.451 15.4742 147.47 15.5242Z" fill="black"/>
<path fill-rule="evenodd" clip-rule="evenodd" d="M146.845 14.9276C146.778 15.1912 147.047 15.0312 146.925 14.8986C146.883 14.8557 146.858 14.8768 146.845 14.9276Z" fill="black"/>
<path fill-rule="evenodd" clip-rule="evenodd" d="M147.312 13.2405C147.303 13.2476 147.262 13.2631 147.286 13.3596C147.294 13.3909 147.317 13.4334 147.349 13.3993C147.401 13.3473 147.367 13.1928 147.312 13.2405Z" fill="black"/>
<path fill-rule="evenodd" clip-rule="evenodd" d="M145.077 16.5806C145.117 16.66 145.227 16.5544 145.265 16.4885C145.321 16.3932 145.313 16.3178 145.244 16.3102C145.099 16.2944 144.996 16.4202 145.077 16.5806Z" fill="black"/>
<path fill-rule="evenodd" clip-rule="evenodd" d="M144.987 17.1185C145.074 17.2562 145.362 17.0808 145.25 16.9379C145.191 16.8624 144.907 16.9938 144.987 17.1185Z" fill="black"/>
<path fill-rule="evenodd" clip-rule="evenodd" d="M144.375 17.1364C144.385 17.1761 144.63 17.1058 144.675 16.9668C144.679 16.9529 144.68 16.9271 144.675 16.9252C144.584 16.8751 144.337 16.9823 144.375 17.1364Z" fill="black"/>
<path fill-rule="evenodd" clip-rule="evenodd" d="M144.954 15.6894C145.111 15.6183 144.928 15.4258 144.879 15.4242C144.786 15.4214 144.83 15.5286 144.851 15.5695C144.88 15.6259 144.905 15.7108 144.954 15.6894Z" fill="black"/>
<path fill-rule="evenodd" clip-rule="evenodd" d="M146.01 16.1332C145.999 16.2729 146.2 16.2229 146.201 16.101C146.201 15.9994 146.158 15.9685 146.082 15.9974C145.997 16.0296 146.019 16.0292 146.01 16.1332Z" fill="black"/>
<path fill-rule="evenodd" clip-rule="evenodd" d="M145.104 17.6345C145.29 17.4547 144.982 17.4964 144.923 17.604C144.844 17.7469 145.056 17.6806 145.104 17.6345Z" fill="black"/>
<path fill-rule="evenodd" clip-rule="evenodd" d="M145.344 14.0729C145.311 14.0551 145.28 14.0356 145.25 14.0146C145.145 13.9411 145.045 13.8367 145.04 13.7014C145.036 13.5743 145.116 13.4794 145.219 13.4167C145.458 13.273 145.807 13.3552 146.038 13.4763C146.276 13.6021 146.497 13.8197 146.519 14.1019C146.542 14.4024 146.316 14.5949 146.038 14.435C145.934 14.3754 145.839 14.2988 145.733 14.2456C145.606 14.1809 145.466 14.1412 145.344 14.0729Z" fill="black"/>
<path fill-rule="evenodd" clip-rule="evenodd" d="M145.423 13.9296C145.524 13.9848 145.641 14.0174 145.807 14.0995C145.933 14.1626 145.99 14.2186 146.12 14.2936C146.275 14.3826 146.37 14.2936 146.356 14.1146C146.322 13.6736 145.6 13.379 145.304 13.5565C145.085 13.6891 145.271 13.8467 145.423 13.9296Z" fill="#E8A33C"/>
<path fill-rule="evenodd" clip-rule="evenodd" d="M144.587 14.6735C144.395 14.6585 144.315 14.4723 144.185 14.3631C144.023 14.2273 143.811 14.1376 143.78 13.9026C143.754 13.7416 143.79 13.5767 143.881 13.4413C143.921 13.3825 143.975 13.3347 144.038 13.3024C144.102 13.2702 144.172 13.2544 144.243 13.2567C144.333 13.2628 144.418 13.3009 144.482 13.3639C144.615 13.4953 144.633 13.7014 144.652 13.8776C144.658 13.9551 144.671 14.0318 144.692 14.1067C144.708 14.1476 144.727 14.1874 144.748 14.2258C144.804 14.3365 144.871 14.4786 144.785 14.5934C144.761 14.6225 144.731 14.6453 144.696 14.6593C144.662 14.6733 144.624 14.6783 144.587 14.6735Z" fill="black"/>
<path fill-rule="evenodd" clip-rule="evenodd" d="M144.6 14.5108C144.759 14.5227 144.573 14.2726 144.536 14.1567C144.461 13.9237 144.514 13.5708 144.334 13.4533C144.154 13.3358 143.896 13.5239 143.942 13.8812C143.962 14.0348 144.121 14.0956 144.29 14.2385C144.423 14.3492 144.493 14.5024 144.6 14.5108Z" fill="#E8A33C"/>
<path fill-rule="evenodd" clip-rule="evenodd" d="M116.66 5.60357L116.461 5.62104L116.442 5.57658C116.132 4.80566 116.06 3.84777 116.414 3.1102C116.181 3.93554 116.266 4.81783 116.653 5.58372C116.656 5.58997 116.658 5.59665 116.66 5.60357Z" fill="black"/>
<path fill-rule="evenodd" clip-rule="evenodd" d="M128.065 3.53655C128.865 4.7473 128.668 6.29191 128.131 7.5646C127.449 9.17868 126.167 10.5863 124.74 11.5835C123.268 12.6117 121.451 13.4453 119.621 13.4191C118.314 13.4005 117.016 12.9169 116.258 11.8074C115.512 10.7134 115.539 9.37081 115.998 8.17038C116.662 6.43522 118.173 4.99859 119.667 3.95416C120.935 3.06812 122.458 2.35675 124.001 2.13881C125.21 1.96812 126.568 2.09634 127.526 2.92362C127.733 3.10229 127.915 3.30854 128.065 3.53655Z" fill="black"/>
<path fill-rule="evenodd" clip-rule="evenodd" d="M117.957 14.0821C117.902 14.0162 117.851 13.9475 117.802 13.8776L116.674 12.3918L116.873 12.2187C118.167 13.8832 121.265 14.25 124.816 11.7681C127.936 9.58756 129.375 6.12241 128.063 4.13756C128.013 4.06253 127.959 3.99108 127.903 3.922L128.142 3.75289L129.403 5.35626C129.475 5.44198 129.541 5.53171 129.602 5.62501C129.689 5.75674 129.766 5.89504 129.832 6.03865C130.395 7.26926 130.099 8.69835 129.535 9.86981C128.819 11.3565 127.595 12.6454 126.25 13.5858C124.826 14.581 123.087 15.3932 121.32 15.4337C120.067 15.4623 118.78 15.0765 117.959 14.086L117.957 14.0821Z" fill="#8B6124"/>
<path fill-rule="evenodd" clip-rule="evenodd" d="M127.81 3.70407C126.497 1.71922 122.962 2.0233 119.842 4.20386C112.01 9.67769 117.357 16.3722 124.565 11.3342C127.685 9.15369 129.123 5.69012 127.81 3.70407Z" fill="black"/>
<path fill-rule="evenodd" clip-rule="evenodd" d="M117.705 13.6486C117.651 13.5824 117.599 13.5141 117.55 13.4437L116.422 11.9579L116.621 11.7848C117.915 13.4493 121.013 13.8157 124.564 11.3338C127.684 9.15328 129.122 5.68972 127.809 3.70368C127.76 3.62907 127.707 3.55712 127.65 3.48812L127.889 3.31862L129.15 4.92198C129.221 5.00788 129.288 5.09759 129.349 5.19073C129.438 5.32305 129.516 5.46201 129.583 5.60635C130.146 6.83498 129.85 8.26605 129.286 9.43751C128.57 10.9242 127.347 12.2131 126.001 13.1536C124.577 14.1488 122.838 14.961 121.072 15.0014C119.818 15.03 118.531 14.6442 117.71 13.6517L117.705 13.6486Z" fill="black"/>
<path fill-rule="evenodd" clip-rule="evenodd" d="M129.097 5.35903C129.041 5.27391 128.98 5.19213 128.915 5.1141L127.832 3.73543C127.944 3.90918 128.036 4.09478 128.106 4.2888V4.29119C128.131 4.35907 128.153 4.42774 128.173 4.49801C128.217 4.65607 128.249 4.81733 128.268 4.98033V4.98588C128.272 5.01645 128.275 5.04702 128.278 5.07798V5.0887C128.28 5.11768 128.282 5.14705 128.284 5.17643V5.19231C128.284 5.2197 128.287 5.24709 128.288 5.27448V5.30028V5.37174V5.40786C128.288 5.4289 128.288 5.45034 128.288 5.47138V5.51346C128.288 5.5337 128.288 5.55315 128.288 5.57419L128.286 5.61111C128.188 7.46218 126.797 9.66814 124.538 11.2481C121.773 13.1805 119.287 13.3985 117.714 12.6248L117.688 12.6121L117.636 12.5851L117.612 12.5724C117.593 12.5624 117.574 12.5525 117.556 12.5422L117.539 12.5331L117.479 12.4981L117.467 12.4906C117.446 12.4784 117.425 12.4652 117.404 12.4509C117.199 12.323 117.009 12.1717 116.838 11.9999L117.797 13.2631C117.843 13.3294 117.892 13.3941 117.944 13.4564C119.26 15.0443 122.32 15.3516 125.825 12.9007C128.946 10.7225 130.409 7.34468 129.097 5.35903Z" fill="black"/>
<path fill-rule="evenodd" clip-rule="evenodd" d="M119.624 14.5203L118.733 13.3473C118.768 13.3532 118.804 13.3592 118.839 13.3644L119.741 14.5553C119.701 14.5449 119.662 14.5342 119.622 14.5231L119.624 14.5203ZM128.643 4.90848L129.353 5.84453C129.304 5.72481 129.247 5.60862 129.182 5.49679L128.621 4.75604C128.629 4.80645 128.636 4.85727 128.643 4.90808V4.90848ZM128.656 5.78618C128.659 5.74886 128.662 5.71155 128.665 5.67463L129.573 6.87309C129.575 6.91556 129.577 6.95804 129.577 7.00091L128.656 5.78618ZM128.541 6.49398L129.514 7.77818C129.52 7.74444 129.526 7.71069 129.53 7.67735L128.562 6.40029C128.555 6.43205 128.548 6.46341 128.541 6.49477V6.49398ZM128.359 7.11484C128.369 7.08666 128.378 7.05847 128.388 7.03029L129.382 8.34267C129.374 8.37205 129.365 8.40142 129.357 8.4308L128.359 7.11484ZM128.132 7.67616C128.144 7.65075 128.155 7.62495 128.167 7.59914L129.176 8.93098C129.166 8.95718 129.154 8.98338 129.143 9.01038L128.132 7.67655V7.67616ZM127.872 8.19222L128.892 9.53636C128.905 9.51215 128.917 9.48793 128.93 9.46372L127.912 8.12156C127.899 8.14538 127.886 8.1692 127.872 8.19301L127.872 8.19222ZM127.585 8.67375L128.611 10.0266C128.625 10.004 128.639 9.98176 128.652 9.95914L127.627 8.60705C127.613 8.62928 127.599 8.65152 127.585 8.67375ZM127.275 9.1259L127.321 9.06357L128.35 10.4208L128.305 10.4843L127.275 9.1259ZM126.945 9.55105C126.961 9.5316 126.977 9.51135 126.993 9.4919L128.026 10.8535C128.01 10.8734 127.994 10.8932 127.978 10.9131L126.944 9.55105H126.945ZM126.597 9.95199C126.614 9.93373 126.631 9.91507 126.648 9.89642L127.682 11.2608L127.632 11.3172L126.598 9.95199H126.597ZM126.233 10.3315L127.267 11.6979C127.285 11.6804 127.302 11.6625 127.32 11.6451L126.286 10.2787L126.233 10.3315ZM125.852 10.6888L126.889 12.0563L126.944 12.0063L125.907 10.6388C125.889 10.6558 125.871 10.6721 125.852 10.6888ZM125.457 11.0282L125.514 10.9809L126.551 12.3481L126.494 12.3953L125.457 11.0282ZM125.047 11.3501L125.107 11.3057L126.143 12.6724L126.083 12.7169L125.049 11.3505L125.047 11.3501ZM124.624 11.6518L125.659 13.017L125.719 12.9749L124.685 11.6097L124.624 11.6518H124.624ZM124.186 11.9365L125.221 13.3L125.284 13.2603L124.25 11.8968L124.187 11.9365H124.186ZM123.737 12.2044L123.802 12.1675L124.835 13.5295L124.769 13.566L123.737 12.2044ZM123.274 12.4541L123.341 12.4196L124.371 13.7788L124.304 13.8125L123.274 12.4541ZM122.797 12.6835L123.823 14.0372C123.846 14.0273 123.869 14.0174 123.893 14.0067L122.866 12.6522L122.797 12.6835ZM122.302 12.8904L123.324 14.2381L123.396 14.2111L122.374 12.8614L122.302 12.8892V12.8904ZM121.785 13.0714L121.86 13.0476L122.876 14.3877C122.851 14.3957 122.826 14.4032 122.8 14.4104L121.785 13.0714ZM121.247 13.2226L121.327 13.2032L122.335 14.5322L122.256 14.5501L121.249 13.2226H121.247ZM120.682 13.3374L121.677 14.6474L121.761 14.6363L120.764 13.3219L120.682 13.3358V13.3374ZM120.083 13.4076L120.171 13.4005L121.15 14.6926L121.06 14.6958L120.083 13.4076ZM119.44 13.4191L120.387 14.6684C120.42 14.6721 120.453 14.6753 120.487 14.6779L119.535 13.4219L119.44 13.4191Z" fill="white"/>
<path fill-rule="evenodd" clip-rule="evenodd" d="M127.153 3.03915C125.537 1.85935 122.534 2.34365 119.841 4.22609C115.084 7.5515 115.18 11.2933 117.603 12.593C115.548 11.1262 115.7 7.60271 120.205 4.45514C122.707 2.70331 125.477 2.16105 127.153 3.03915Z" fill="white"/>
<path fill-rule="evenodd" clip-rule="evenodd" d="M116.906 12.0932C117.968 13.1381 119.779 13.0932 121.132 12.8582C120.095 13.1905 117.08 13.6942 116.906 12.0932Z" fill="black"/>
<path fill-rule="evenodd" clip-rule="evenodd" d="M128.035 6.84569C128.411 5.97235 128.65 4.90053 128.187 4.02204C127.974 3.61713 127.605 3.34441 127.249 3.08043C128.659 4.42536 128.121 6.38838 128.035 6.84569Z" fill="black"/>
<path d="M122.237 26.3437C124.757 23.8293 124.757 19.7527 122.237 17.2384C119.717 14.724 115.632 14.724 113.112 17.2384C110.592 19.7527 110.592 23.8293 113.112 26.3437C115.632 28.8581 119.717 28.8581 122.237 26.3437Z" fill="#8B6124"/>
<path d="M122.101 25.5924C124.621 23.078 124.621 19.0014 122.101 16.487C119.581 13.9726 115.495 13.9726 112.975 16.487C110.455 19.0014 110.455 23.078 112.975 25.5924C115.495 28.1068 119.581 28.1068 122.101 25.5924Z" fill="black"/>
<path d="M121.886 25.377C124.287 22.9816 124.287 19.0978 121.886 16.7023C119.485 14.3068 115.593 14.3068 113.192 16.7023C110.791 19.0978 110.791 22.9816 113.192 25.377C115.593 27.7725 119.485 27.7725 121.886 25.377Z" fill="black"/>
<path fill-rule="evenodd" clip-rule="evenodd" d="M118.051 15.2325C119.284 15.3295 120.454 15.8142 121.393 16.6167C122.332 17.4193 122.992 18.4984 123.278 19.6988C122.844 18.2447 121.859 17.0167 120.532 16.2756C119.205 15.5345 117.641 15.3387 116.172 15.7296C114.703 16.1206 113.444 17.0677 112.663 18.3696C111.882 19.6716 111.641 21.226 111.99 22.7027C111.721 21.7957 111.677 20.8371 111.862 19.9094C112.047 18.9818 112.456 18.113 113.052 17.3778C113.649 16.6427 114.416 16.0634 115.286 15.6898C116.157 15.3162 117.106 15.1595 118.051 15.2333V15.2325Z" fill="white"/>
<path fill-rule="evenodd" clip-rule="evenodd" d="M131.944 8.01001C133.695 7.87544 135.596 8.14022 137.171 8.9409C138.423 9.57606 139.584 10.6372 139.784 12.0924C139.821 12.3569 139.823 12.6249 139.791 12.89C139.637 14.1706 138.729 15.2043 137.694 15.903C136.386 16.7854 134.759 17.2443 133.198 17.3642C131.443 17.4992 129.541 17.2233 127.966 16.4115C126.716 15.7668 125.552 14.6962 125.352 13.2393C125.314 12.9602 125.314 12.6772 125.352 12.3981C125.524 11.131 126.438 10.1195 127.471 9.43751C128.774 8.57529 130.394 8.1295 131.944 8.01001Z" fill="black"/>
<path fill-rule="evenodd" clip-rule="evenodd" d="M131.969 8.31369C135.789 8.01993 139.152 9.73048 139.483 12.1337C139.814 14.537 136.993 16.7672 133.175 17.0609C129.356 17.3547 125.985 15.6009 125.655 13.1972C125.325 10.7936 128.15 8.60745 131.969 8.31369Z" fill="black"/>
<path fill-rule="evenodd" clip-rule="evenodd" d="M139.475 12.7038H139.783L139.841 14.7998V14.8256C139.857 15.0603 139.847 15.2962 139.81 15.5286L139.804 15.6584L139.783 15.6743C139.537 16.8612 138.646 17.8056 137.653 18.4491C136.355 19.2903 134.758 19.7266 133.226 19.8445C131.475 19.979 129.574 19.7143 127.999 18.9136C126.747 18.2784 125.586 17.2173 125.386 15.7624C125.365 15.6158 125.356 15.4679 125.357 15.3198L125.309 13.4981H125.307L125.301 13.2V13.1627L125.297 12.9066L125.631 12.8864C125.598 13.136 125.598 13.389 125.631 13.6387C125.963 16.0419 129.332 17.7957 133.151 17.5019C136.902 17.2126 139.687 15.0574 139.475 12.7038Z" fill="#8B6124"/>
<path fill-rule="evenodd" clip-rule="evenodd" d="M139.497 12.2639H139.805L139.863 14.3603V14.3861C139.879 14.6208 139.868 14.8565 139.831 15.0888L139.826 15.219L139.805 15.2349C139.559 16.4214 138.668 17.3662 137.675 18.0097C136.377 18.8505 134.78 19.2867 133.248 19.4046C131.497 19.5392 129.596 19.2748 128.021 18.4737C126.769 17.8386 125.608 16.7779 125.407 15.3226C125.387 15.1759 125.378 15.028 125.378 14.88L125.331 13.0583H125.329L125.323 12.7605V12.7232L125.318 12.4668L125.653 12.4465C125.619 12.6968 125.619 12.9505 125.653 13.2008C125.984 15.6044 129.353 17.3579 133.172 17.0645C136.923 16.7723 139.711 14.6176 139.497 12.2639Z" fill="black"/>
<path fill-rule="evenodd" clip-rule="evenodd" d="M139.508 12.5684L139.557 14.3548V14.3873C139.574 14.6102 139.564 14.8342 139.527 15.0546V15.059C139.184 17.1105 136.59 18.839 133.225 19.0978C129.405 19.3911 126.042 17.681 125.711 15.2777C125.692 15.1438 125.683 15.0088 125.684 14.8736L125.636 13.0078C125.64 13.0694 125.646 13.1317 125.655 13.1936C125.661 13.2389 125.668 13.2837 125.677 13.3282V13.3318V13.3373C125.706 13.4858 125.745 13.6317 125.796 13.774V13.7788V13.7823C125.814 13.8308 125.832 13.8784 125.852 13.926C126.692 15.9347 129.746 17.2781 133.165 17.0149C136.249 16.7767 138.685 15.3079 139.335 13.4838C139.353 13.435 139.369 13.3862 139.383 13.3373C139.46 13.0879 139.502 12.8292 139.508 12.5684Z" fill="black"/>
<path fill-rule="evenodd" clip-rule="evenodd" d="M139.277 15.8502C139.255 15.8982 139.232 15.9454 139.207 15.9927L139.167 14.6033C139.191 14.5703 139.215 14.5366 139.238 14.5028L139.278 15.8506L139.277 15.8502ZM138.779 16.6358C138.756 16.6647 138.732 16.6933 138.708 16.7219L138.663 15.1864C138.688 15.1626 138.712 15.138 138.735 15.1134L138.779 16.6358ZM138.274 17.1669L138.202 17.2308L138.156 15.635C138.18 15.6159 138.204 15.5953 138.229 15.577L138.274 17.1669ZM137.766 17.5762L137.693 17.6278L137.646 16.0002L137.709 15.9605L137.719 15.9542L137.766 17.5794V17.5762ZM137.255 17.9088C137.231 17.9227 137.206 17.9374 137.182 17.9513L137.134 16.3003L137.207 16.2606L137.255 17.9088ZM136.745 18.1839L136.671 18.2189L136.623 16.5516L136.696 16.5183L136.745 18.182V18.1839ZM136.227 18.413L136.154 18.4424L136.108 16.766L136.181 16.7382L136.229 18.413H136.227ZM135.713 18.6039L135.639 18.6282L135.591 16.9438L135.664 16.9204L135.713 18.6039H135.713ZM135.195 18.7607L135.122 18.7806L135.073 17.0899L135.146 17.0708L135.195 18.7607ZM134.678 18.8874L134.604 18.9033L134.556 17.2082L134.629 17.1931L134.678 18.8874ZM134.161 18.9862C134.136 18.9906 134.112 18.9942 134.087 18.9981L134.039 17.2999L134.113 17.2884L134.162 18.9862H134.161ZM133.644 19.0589L133.57 19.0672L133.522 17.367L133.596 17.359L133.645 19.0589H133.644ZM133.126 19.1061L133.052 19.1113L133.005 17.4099L133.079 17.4055L133.128 19.1061H133.126ZM132.606 19.1295H132.532L132.483 17.4277H132.557L132.606 19.1291V19.1295ZM132.086 19.1295L132.012 19.1275L131.963 17.4261H132.037L132.086 19.1275V19.1295ZM131.564 19.1033L131.49 19.0978L131.442 17.3964L131.516 17.4019L131.564 19.1033ZM131.043 19.0513L130.968 19.0418L130.92 17.3444L130.994 17.3535L131.043 19.0513ZM130.52 18.9719L130.446 18.9584L130.397 17.2646C130.421 17.2693 130.446 17.2733 130.471 17.2777L130.52 18.9719ZM129.996 18.8636L129.922 18.8453L129.873 17.157L129.948 17.1741L129.996 18.8636ZM129.472 18.7226L129.397 18.7004L129.349 17.0188L129.424 17.0407L129.472 18.7226ZM128.947 18.5476L128.872 18.519L128.824 16.8469L128.898 16.8735L128.947 18.5476ZM128.42 18.3292C128.395 18.3177 128.37 18.3058 128.345 18.2939L128.297 16.6346L128.372 16.6675L128.42 18.3292ZM127.892 18.0597L127.816 18.0164L127.769 16.3757L127.844 16.4154L127.892 18.0593V18.0597ZM127.362 17.7235L127.286 17.6687L127.24 16.0574C127.265 16.074 127.29 16.0907 127.315 16.107L127.362 17.7235ZM126.829 17.2908C126.803 17.2669 126.778 17.2423 126.753 17.2177L126.708 15.6584C126.733 15.6799 126.758 15.7009 126.784 15.7215L126.829 17.2908ZM126.291 16.6818C126.265 16.6449 126.239 16.608 126.212 16.5707L126.172 15.1316C126.197 15.1606 126.222 15.1892 126.249 15.2174L126.291 16.6818Z" fill="white"/>
<path fill-rule="evenodd" clip-rule="evenodd" d="M131.95 8.32599C135.343 8.06478 138.377 9.3859 139.243 11.3696C138.176 9.59987 135.318 8.46175 132.147 8.70549C128.327 8.99925 125.501 11.1858 125.832 13.5882C125.869 13.856 125.943 14.1173 126.052 14.3647C125.836 14.0118 125.694 13.6184 125.635 13.2087C125.304 10.8067 128.131 8.61974 131.95 8.32599Z" fill="white"/>
<path fill-rule="evenodd" clip-rule="evenodd" d="M125.756 11.9245C125.745 12.0039 125.743 12.0861 125.729 12.1627C125.627 12.7526 125.744 13.3119 125.913 13.7704C126.249 14.6815 126.971 15.3297 127.833 15.9736C126.245 15.3091 124.724 13.7045 125.756 11.9245Z" fill="black"/>
<path fill-rule="evenodd" clip-rule="evenodd" d="M138.195 15.1055C138.957 14.5362 139.622 13.6367 139.659 12.6442C139.676 12.1873 139.44 11.7665 139.261 11.3608C139.814 13.2282 138.499 14.7514 138.195 15.1055Z" fill="black"/>
<path d="M121.807 25.4777C124.089 23.2012 124.089 19.5101 121.807 17.2335C119.525 14.957 115.826 14.957 113.544 17.2335C111.263 19.5101 111.263 23.2011 113.544 25.4777C115.826 27.7543 119.525 27.7543 121.807 25.4777Z" fill="black"/>
<path fill-rule="evenodd" clip-rule="evenodd" d="M121.13 20.401C121.355 19.4308 120.647 18.8441 119.651 18.4114L120.089 17.1078L119.293 16.8422L118.867 18.1125C118.656 18.047 118.438 17.9712 118.228 17.9081L118.657 16.6306L117.861 16.365L117.423 17.6683C117.25 17.6143 117.08 17.5611 116.915 17.5059V17.502L115.818 17.1352L115.534 17.9831C115.534 17.9831 116.125 18.1681 116.112 18.1756C116.434 18.2832 116.476 18.5047 116.453 18.6758L115.954 20.1613C115.982 20.1708 116.01 20.1821 116.036 20.195L115.952 20.1668L115.254 22.2477C115.206 22.3442 115.093 22.4859 114.867 22.4109C114.875 22.4232 114.289 22.2176 114.289 22.2176L113.812 23.1127L114.846 23.4585C115.039 23.5228 115.227 23.5895 115.413 23.653L114.971 24.9717L115.766 25.2369L116.204 23.9321C116.42 24.0115 116.631 24.0817 116.837 24.1504L116.401 25.4493L117.197 25.7145L117.639 24.3985C119.002 24.7685 120.051 24.7447 120.587 23.5307C121.02 22.5534 120.695 21.9429 119.997 21.5086C120.537 21.4292 120.963 21.1116 121.127 20.4014L121.13 20.401ZM119.071 22.8487C118.741 23.8344 117.088 23.158 116.548 22.9782L117.135 21.2315C117.674 21.4117 119.416 21.8218 119.071 22.8491V22.8487ZM119.528 20.2609C119.227 21.1569 117.852 20.5813 117.403 20.4316L117.935 18.8469C118.384 18.997 119.842 19.3233 119.528 20.2605V20.2609Z" fill="white"/>
<path fill-rule="evenodd" clip-rule="evenodd" d="M127.946 14.1015L133.397 14.9006L130.406 13.4191L130.928 11.0306L127.946 14.1015ZM128.21 14.0122L130.707 11.439L130.259 13.4886L128.21 14.0122Z" fill="white"/>
<path fill-rule="evenodd" clip-rule="evenodd" d="M131.323 11.1024L130.848 13.2726L133.567 14.6366L133.541 14.4814L133.506 14.2746V14.269L133.237 12.6296L131.412 11.2973L130.994 13.2028L133.354 12.5978L133.398 12.5871L133.451 12.5732L133.729 14.5858L136.797 11.6931L131.325 11.1012L131.323 11.1024ZM133.449 12.574L131.584 11.2584L136.507 11.7908L133.449 12.574ZM133.569 14.6382L133.543 14.483L133.237 12.6307L133.569 14.6382ZM133.508 14.2758V14.2702V14.2758Z" fill="white"/>
<path fill-rule="evenodd" clip-rule="evenodd" d="M122.927 7.8401L123.539 7.1851L125.151 7.87901L126.082 6.88102L121.692 4.99184L120.761 5.98982L122.373 6.68373L121.762 7.33793C120.4 6.82981 119.19 6.64681 118.92 6.9358C118.651 7.2248 119.411 7.88853 120.668 8.50979L118.711 10.6082L119.877 11.1099L121.835 9.01236C123.195 9.51929 124.403 9.7015 124.672 9.4129C124.942 9.1243 124.183 8.46017 122.928 7.84129L122.927 7.8401ZM122 8.83253C121.965 8.82022 121.788 8.7571 121.412 8.59435C121.111 8.46454 120.906 8.36569 120.835 8.32996C119.721 7.78413 119.033 7.2248 119.244 7.00091C119.455 6.77702 120.491 6.96121 121.693 7.41217L121.009 8.14696C121.081 8.18467 121.288 8.28987 121.586 8.41849C121.944 8.57331 122.139 8.63722 122.175 8.64873L122.859 7.91632C123.97 8.46136 124.657 9.0199 124.45 9.243C124.244 9.46609 123.205 9.28269 122.005 8.83332L122 8.83253Z" fill="white"/>
<path fill-rule="evenodd" clip-rule="evenodd" d="M131.9 20.7282C131.822 20.7384 131.744 20.7428 131.666 20.7413C131.541 20.7333 130.852 20.6734 130.796 20.6766C130.69 20.6684 130.583 20.6716 130.478 20.6861C130.236 20.7222 129.983 20.7063 129.738 20.7452C129.335 20.8088 129.382 20.7186 129.506 20.6515C129.927 20.4225 131.097 20.5392 131.508 20.5924C131.576 20.6011 131.649 20.6214 131.712 20.6269C131.745 20.6297 132.133 20.6869 131.9 20.7282H131.9ZM132.889 20.218C132.665 20.3145 132.426 20.3683 132.182 20.3768C131.778 20.3856 131.307 20.2931 130.918 20.2244C130.727 20.1906 130.484 20.1815 130.372 20.1307C130.26 20.0799 130.139 19.9806 130.377 19.9993C130.625 20.0148 130.871 20.0448 131.115 20.089C131.238 20.1156 131.517 20.1362 131.662 20.1501C131.752 20.1585 131.978 20.1815 132.063 20.1819C132.194 20.1819 132.495 20.1799 132.637 20.1497C132.789 20.1172 132.938 20.0787 133.09 20.0489C133.345 19.9981 132.939 20.1962 132.889 20.218Z" fill="black"/>
<path fill-rule="evenodd" clip-rule="evenodd" d="M117.479 29.2261C117.487 29.2015 117.623 29.2296 117.694 29.236C117.858 29.2507 118.549 29.2717 118.527 29.3039C118.471 29.3904 118.117 29.3833 118.004 29.3757C117.82 29.3662 117.471 29.2523 117.479 29.2261ZM114.933 28.6997C114.878 28.5977 115.906 28.5726 115.967 28.5715C116.139 28.5687 116.795 28.6651 117.431 28.7302C117.551 28.7422 118.742 28.8037 118.751 28.8223C118.76 28.841 118.708 28.8847 118.601 28.9077C118.473 28.9355 118.268 28.9399 118.029 28.9434C117.795 28.947 117.523 28.901 117.246 28.8819C116.783 28.8501 116.327 28.7164 115.914 28.6866C115.808 28.6782 114.933 28.6993 114.934 28.6997H114.933Z" fill="black"/>
<path fill-rule="evenodd" clip-rule="evenodd" d="M110.907 18.9938C110.992 19.2816 110.33 20.3248 110.815 21.8662C110.854 21.9897 110.842 22.0746 110.77 21.9738C110.016 20.9238 110.807 18.9624 110.907 18.9938Z" fill="black"/>
<path fill-rule="evenodd" clip-rule="evenodd" d="M126.795 23.9702C126.541 24.1385 126.231 24.2802 125.92 24.2945C125.656 24.3068 125.382 24.2187 125.246 23.9769C125.052 23.6312 125.271 23.2556 125.53 23.0179C125.776 22.7904 126.224 22.5391 126.365 22.2291C126.468 22.0006 126.63 21.8036 126.835 21.6586C127.115 21.4732 127.579 21.393 127.805 21.7071C127.846 21.7657 127.873 21.8327 127.885 21.9032C127.897 21.9736 127.894 22.0459 127.874 22.1147C127.847 22.2227 127.87 22.3926 127.878 22.5058C127.901 22.7887 127.82 23.0705 127.65 23.2977C127.423 23.6046 127.105 23.765 126.795 23.9702Z" fill="black"/>
<path fill-rule="evenodd" clip-rule="evenodd" d="M126.627 23.7161C127.042 23.4414 127.619 23.1818 127.575 22.5252C127.562 22.3267 127.544 22.1838 127.58 22.0405C127.644 21.7821 127.298 21.7178 127.004 21.9119C126.848 22.0258 126.725 22.1782 126.646 22.3541C126.467 22.7511 125.988 23.0119 125.74 23.2405C125.113 23.8157 125.705 24.3243 126.627 23.7161Z" fill="white"/>
<path fill-rule="evenodd" clip-rule="evenodd" d="M123.748 16.6024C123.482 16.4785 123.267 16.1947 123.282 15.8934C123.29 15.7235 123.362 15.5639 123.521 15.4869C123.771 15.3678 124.032 15.5405 124.217 15.6985C124.328 15.792 124.43 15.8965 124.52 16.0105C124.572 16.0811 124.616 16.1572 124.65 16.2376C124.72 16.3996 124.749 16.5857 124.643 16.7413C124.549 16.8799 124.392 16.9287 124.231 16.9128C124.091 16.8993 124.024 16.8537 123.918 16.7739C123.859 16.7268 123.806 16.6736 123.759 16.6151C123.755 16.6106 123.751 16.6064 123.748 16.6024Z" fill="black"/>
<path fill-rule="evenodd" clip-rule="evenodd" d="M123.586 15.9093C123.578 16.0621 123.699 16.2451 123.877 16.3273C123.983 16.3769 124.011 16.4631 124.102 16.5313C124.145 16.5747 124.201 16.6026 124.261 16.6107C124.54 16.6381 124.346 16.2864 124.276 16.1939C124.178 16.0621 123.608 15.4778 123.586 15.9093Z" fill="white"/>
<path fill-rule="evenodd" clip-rule="evenodd" d="M108.831 24.6585C108.929 24.6276 109.027 24.5958 109.127 24.5704C109.375 24.5069 109.67 24.4688 109.888 24.6355C110.061 24.7685 110.114 24.9745 110.097 25.1833C110.047 25.8228 109.52 26.0733 108.998 26.2881C108.685 26.4274 108.364 26.5632 108.082 26.7616C107.954 26.8522 107.828 26.9788 107.706 27.0792C107.478 27.2674 107.188 27.4674 106.878 27.4178C106.765 27.3997 106.66 27.3502 106.574 27.2749L106.544 27.2487L106.522 27.2158C106.484 27.1603 106.452 27.1011 106.427 27.0391C106.185 26.4492 106.536 25.749 106.951 25.3294C107.233 25.044 107.603 24.8189 108.006 24.7637H108.013H108.019C108.293 24.7403 108.561 24.7006 108.831 24.6585Z" fill="black"/>
<path fill-rule="evenodd" clip-rule="evenodd" d="M107.907 26.5132C108.176 26.323 108.424 26.2095 108.877 26.0082C109.3 25.8347 109.752 25.6486 109.792 25.1591C109.832 24.6315 109.233 24.8522 108.9 24.9555C108.608 25.0027 108.343 25.0396 108.048 25.0666C107.15 25.1889 106.341 26.408 106.775 27.0463C107.109 27.3357 107.611 26.722 107.907 26.5132Z" fill="white"/>
<path fill-rule="evenodd" clip-rule="evenodd" d="M108.941 24.9412C108.946 24.9412 108.339 25.0384 108.047 25.0654C106.582 25.2639 106.242 27.5477 107.207 27.0555C106.535 27.1134 106.978 25.3755 108.139 25.2167C108.402 25.1924 108.67 24.986 108.932 24.9439L108.941 24.9412Z" fill="#E8A33C"/>
<path fill-rule="evenodd" clip-rule="evenodd" d="M108.218 32.7147C108.04 32.6067 107.843 32.4654 107.878 32.2256C107.918 31.9477 108.258 31.8656 108.478 31.7675C109.004 31.5328 109.53 31.2989 110.056 31.0661C110.096 31.0466 110.136 31.0287 110.178 31.0109C110.043 30.9404 109.926 30.8399 109.836 30.7172C109.746 30.5945 109.685 30.4528 109.659 30.3031C109.616 30.0349 109.679 29.7608 109.834 29.5373C110.028 29.2416 110.34 29.0272 110.653 28.8728C111.54 28.4361 112.766 28.6989 113.658 29.0109C113.885 29.0903 114.191 29.2817 114.393 29.4139C114.56 29.5198 114.718 29.6393 114.866 29.7711C115.025 29.9184 115.184 30.1209 115.1 30.3527C115.076 30.4119 115.04 30.4649 114.992 30.5071C114.944 30.5494 114.887 30.5797 114.826 30.5956C113.213 31.263 111.625 31.985 110.045 32.7286L110.039 32.7313L110.032 32.7341L109.331 33.0243L109.309 33.0338L109.285 33.0394C108.918 33.1267 108.744 33.0565 108.437 32.8655L108.432 32.8623L108.427 32.8588L108.218 32.7147Z" fill="black"/>
<path fill-rule="evenodd" clip-rule="evenodd" d="M108.381 32.4586L108.597 32.6059C108.836 32.7548 108.93 32.8087 109.212 32.7417L109.913 32.4515C111.526 31.6936 113.077 30.9866 114.724 30.3054C115.171 30.1963 113.839 29.3976 113.555 29.2983C112.812 29.0383 111.61 28.7402 110.786 29.1459C109.132 29.9605 110.362 31.2264 110.796 30.6254C110.955 30.4043 111.199 30.2733 111.333 30.3475C111.888 30.6591 110.346 31.2605 110.184 31.3399L108.601 32.0446C108.19 32.2296 108.007 32.2331 108.381 32.4586Z" fill="white"/>
<path fill-rule="evenodd" clip-rule="evenodd" d="M114.836 30.2058C114.803 29.9608 113.816 29.3781 113.576 29.2927C112.833 29.0331 111.631 28.735 110.807 29.1403C109.773 29.6496 109.866 30.3348 110.187 30.6305C110.028 30.2875 110.131 29.7639 110.963 29.3547C111.787 28.949 112.988 29.2471 113.731 29.5071C113.915 29.573 114.541 29.9319 114.836 30.2058Z" fill="#E8A33C"/>
<path fill-rule="evenodd" clip-rule="evenodd" d="M111.832 30.5885C111.892 30.5464 111.901 30.2368 111.881 30.1518C111.856 30.0494 111.707 29.993 111.678 30.0474C111.645 30.1089 111.671 30.1578 111.69 30.201C111.717 30.2587 111.735 30.3208 111.741 30.3844C111.745 30.4098 111.706 30.6774 111.832 30.5893V30.5885ZM112.811 30.5532C112.847 30.5202 112.862 30.5012 112.859 30.4626C112.861 30.434 112.854 30.4054 112.84 30.3809C112.796 30.2915 112.732 30.3737 112.71 30.4059C112.652 30.4916 112.392 30.7179 112.456 30.8053C112.491 30.8525 112.589 30.7171 112.625 30.6905C112.728 30.6135 112.79 30.5714 112.811 30.5532ZM112.493 30.2638C112.487 30.3523 112.36 30.6369 112.313 30.6774C112.265 30.7179 112.164 30.6774 112.209 30.604C112.224 30.5798 112.239 30.5563 112.251 30.5309C112.291 30.4336 112.313 30.3299 112.315 30.2248C112.315 30.1391 112.371 30.1327 112.439 30.1653C112.457 30.174 112.472 30.1882 112.482 30.2058C112.492 30.2235 112.495 30.2438 112.493 30.2638Z" fill="black"/>
<path fill-rule="evenodd" clip-rule="evenodd" d="M115.157 30.7175C114.968 30.8381 114.763 30.9324 114.549 30.9977C114.312 31.0664 114.472 31.1454 114.613 31.1216C114.976 31.0597 115.755 30.575 115.591 30.3134C115.546 30.2403 115.544 30.3312 115.487 30.417C115.416 30.5234 115.232 30.6726 115.157 30.7175ZM109.372 29.9053C109.491 29.3733 110.02 28.7612 110.537 28.61C110.911 28.5008 110.421 28.5175 110.148 28.6362C109.621 28.8656 109.222 29.4011 109.195 29.9748C109.188 30.1335 109.222 30.1855 109.275 30.1335C109.321 30.0919 109.348 30.0089 109.372 29.9053Z" fill="black"/>
<path fill-rule="evenodd" clip-rule="evenodd" d="M127.339 23.1957C127.423 23.1068 127.488 23.001 127.529 22.8853C127.569 22.7696 127.585 22.6466 127.574 22.5244C127.56 22.3279 127.543 22.183 127.579 22.0397C127.643 21.7813 127.298 21.717 127.004 21.9111C126.898 21.985 126.808 22.0783 126.738 22.1858C126.787 22.1297 126.843 22.0802 126.905 22.0385C127.198 21.8444 127.545 21.9087 127.48 22.1671C127.444 22.3105 127.462 22.4554 127.475 22.6519C127.492 22.8433 127.444 23.0349 127.339 23.1957ZM126.463 22.6217C126.241 22.8754 125.923 23.0675 125.736 23.2398C125.669 23.2993 125.611 23.3671 125.562 23.4414C125.585 23.4168 125.609 23.3922 125.637 23.3672C125.856 23.1667 126.25 22.9405 126.465 22.6217H126.463Z" fill="#E8A33C"/>
<path fill-rule="evenodd" clip-rule="evenodd" d="M147.602 25.9092L113.66 38.2451C112.112 38.8074 110.986 38.9039 111 40.9019L111.047 47.3437C111.065 49.6912 111.272 50 113.706 50H150.341C151.046 49.9984 151.721 49.718 152.219 49.2202C152.718 48.7224 152.998 48.0477 153 47.3437L152.965 27.5824C152.958 23.6933 149.703 25.1454 147.602 25.9092Z" fill="white"/>
<path fill-rule="evenodd" clip-rule="evenodd" d="M114 47.7444V39.9802C114.294 39.8775 114.592 39.7728 114.907 39.6643C114.907 40.2146 114.907 40.7634 114.904 41.3117C115.045 40.6091 115.202 40.0704 115.39 39.6966C115.579 39.3229 115.811 39.0803 116.084 38.9839C116.298 38.9086 116.488 38.9318 116.658 39.0548C116.829 39.1777 116.964 39.3923 117.075 39.7024C117.169 39.9706 117.233 40.3173 117.271 40.7306C117.309 41.1439 117.329 41.7843 117.327 42.6355C117.327 43.4794 117.326 44.3246 117.324 45.1711C117.324 46.0112 117.32 46.8508 117.32 47.687C116.907 47.6947 116.511 47.7005 116.13 47.7082V45.4566C116.13 44.7024 116.133 43.9443 116.133 43.1901C116.133 42.512 116.092 42.0327 116.007 41.7433C115.922 41.454 115.796 41.3387 115.615 41.3869C115.383 41.4491 115.226 41.7129 115.125 42.1793C115.023 42.6456 114.972 43.3661 114.974 44.3528C114.974 44.9204 114.974 45.4846 114.974 46.0483C114.974 46.6121 114.97 47.172 114.97 47.7299L114 47.7473V47.7444ZM121.485 41.2167C121.461 40.6433 121.361 40.2001 121.191 39.8948C121.021 39.5896 120.816 39.4767 120.578 39.5443C120.323 39.6163 120.123 39.8252 119.979 40.1712C119.838 40.516 119.734 40.9963 119.685 41.615C120.263 41.4877 120.855 41.3541 121.485 41.2172V41.2167ZM123.198 42.9764C121.925 43.1765 120.739 43.3593 119.646 43.5329C119.646 44.2737 119.727 44.835 119.891 45.2208C120.055 45.6066 120.294 45.7947 120.609 45.7696C120.731 45.7592 120.848 45.7226 120.955 45.6622C121.061 45.6017 121.153 45.5188 121.226 45.419C121.395 45.1991 121.524 44.8818 121.615 44.4685C122.046 44.7887 122.476 45.1162 122.932 45.4494C122.764 46.2745 122.482 46.914 122.081 47.3562C121.687 47.7902 121.219 47.9986 120.69 48C119.93 48 119.347 47.5549 118.928 46.6685C118.707 46.1848 118.552 45.6719 118.469 45.1446C118.363 44.4997 118.312 43.8464 118.319 43.1925C118.321 42.5217 118.375 41.8523 118.48 41.1902C118.574 40.589 118.73 39.9997 118.946 39.4324C119.376 38.314 119.933 37.6254 120.634 37.379C121.388 37.1128 122.019 37.4388 122.487 38.3844C122.727 38.8696 122.915 39.4811 123.03 40.217C123.145 40.9529 123.205 41.819 123.201 42.7961C123.201 42.8568 123.198 42.9161 123.198 42.975V42.9764ZM129.997 34.5154C130.175 35.4162 130.351 36.3248 130.536 37.241C130.721 38.1573 130.913 39.0909 131.107 40.0279C131.117 40.0641 131.128 40.0964 131.135 40.1307C131.306 40.9235 131.412 41.5707 131.457 42.0597C131.489 41.7703 131.531 41.467 131.583 41.1492C131.636 40.8314 131.711 40.4104 131.814 39.903C132.027 38.8561 132.252 37.7971 132.474 36.7279C132.698 35.6448 132.919 34.5486 133.143 33.4438C134.247 33.0667 135.408 32.6712 136.628 32.2575C136.268 33.6232 135.909 34.9685 135.553 36.2934C135.197 37.6183 134.847 38.9204 134.502 40.1996C134.168 41.4385 133.831 42.6591 133.512 43.8647C133.193 45.0703 132.878 46.2533 132.569 47.4174L130.52 47.4536C130.334 46.4779 130.152 45.5101 129.973 44.5505C129.797 43.5966 129.62 42.6512 129.441 41.7144C129.379 41.3922 129.331 41.0739 129.287 40.7499C129.243 40.4258 129.203 40.1041 129.168 39.7854C129.115 40.2999 129.018 40.9476 128.881 41.7284C128.874 41.7631 128.87 41.7915 128.866 41.8219C128.684 42.7932 128.506 43.7562 128.324 44.7058C128.141 45.6553 127.97 46.5803 127.798 47.4999C127.245 47.5115 126.709 47.5192 126.184 47.5288C125.973 46.5764 125.763 45.6278 125.56 44.6923C125.357 43.7567 125.158 42.8293 124.958 41.9111C124.762 41.0122 124.572 40.1225 124.383 39.2409C124.194 38.3594 124.006 37.4865 123.823 36.6218C124.495 36.3932 125.19 36.155 125.917 35.9071C126.061 36.727 126.216 37.5468 126.366 38.3705C126.517 39.2043 126.675 40.0443 126.828 40.8883C126.896 41.2635 126.947 41.5875 126.989 41.873C127.032 42.1585 127.059 42.4334 127.087 42.7039C127.129 42.2998 127.221 41.7361 127.353 41.0026C127.372 40.8999 127.386 40.828 127.395 40.7778C127.565 39.8455 127.734 38.9053 127.904 37.9572C128.074 37.0004 128.253 36.0282 128.436 35.0463C128.944 34.8732 129.459 34.6996 129.998 34.5158L129.997 34.5154ZM137.271 46.0604C137.405 45.3689 137.533 44.6696 137.667 43.967C137.802 43.2643 137.94 42.552 138.084 41.8373C138.662 42.4681 139.304 42.9499 140.011 43.2566C140.736 43.5792 141.528 43.7108 142.315 43.6395C142.907 43.5874 143.353 43.4273 143.664 43.1539C143.975 42.8804 144.141 42.5024 144.147 42.0298C144.158 41.2529 143.531 40.7561 142.305 40.5632C141.895 40.4986 141.597 40.4403 141.373 40.3916C140.091 40.1143 139.21 39.6441 138.669 38.9974C138.138 38.3623 137.888 37.4619 137.898 36.2968C137.912 34.7825 138.329 33.4515 139.166 32.2642C140.021 31.0504 141.238 30.1423 142.841 29.5747C143.717 29.2653 144.63 29.0789 145.555 29.0206C146.607 28.9577 147.663 29.0388 148.693 29.2617C148.487 30.1038 148.277 30.938 148.073 31.7593C147.87 32.5806 147.66 33.3956 147.457 34.2029C146.722 33.8012 146.021 33.5316 145.324 33.4182C144.649 33.3088 143.959 33.3471 143.299 33.5306C142.764 33.6753 142.356 33.8981 142.084 34.1841C141.811 34.47 141.694 34.8052 141.688 35.2011C141.68 35.7972 142.263 36.1656 143.499 36.3103C143.782 36.344 143.99 36.3749 144.126 36.3942C145.888 36.643 147.169 37.1345 147.909 37.8762C148.663 38.6318 149.026 39.7979 148.999 41.3295C148.981 42.3027 148.81 43.1891 148.487 43.9887C148.165 44.7911 147.682 45.5154 147.068 46.1144C145.86 47.3012 144.361 47.8727 142.623 47.8819C141.489 47.8881 140.496 47.7372 139.606 47.4228C138.751 47.1222 137.96 46.66 137.272 46.0604H137.271Z" fill="#222222"/>
<path fill-rule="evenodd" clip-rule="evenodd" d="M16.4914 6.35424L15.636 11.5784C14.936 10.9666 14.1327 10.4837 13.2635 10.1521C12.4107 9.83075 11.5063 9.6677 10.5947 9.67093C9.0237 9.67093 7.72695 10.2185 6.70445 11.3136C5.6862 12.409 5.17721 13.8044 5.17748 15.5C5.17748 17.0323 5.60531 18.2202 6.46097 19.0636C7.3153 19.9028 8.52505 20.3224 10.0902 20.3224C10.7908 20.3186 11.4887 20.2356 12.1706 20.0751C12.9398 19.894 13.6922 19.6486 14.4201 19.3415L13.628 24.2441C12.927 24.4636 12.2081 24.6217 11.4795 24.7165C10.6391 24.8299 9.7917 24.8846 8.9436 24.88C6.23816 24.88 4.0709 24.0439 2.4418 22.3716C0.812709 20.6993 -0.00117543 18.478 0.000150764 15.7076C-0.00648556 14.4067 0.206011 13.1139 0.628766 11.8832C1.04335 10.681 1.66987 9.56239 2.47881 8.58005C3.42571 7.42302 4.61186 6.53831 6.03725 5.92591C7.45787 5.3122 9.0493 5.006 10.8115 5.00733C11.7936 5.00413 12.7726 5.11672 13.7282 5.34276C14.6849 5.57241 15.6117 5.91183 16.4902 6.35424H16.4914ZM21.7164 24.4029H16.6752L19.6671 5.45789H24.7218C26.2483 5.45789 27.3827 5.51227 28.1251 5.62104C28.8687 5.72703 29.5148 5.91281 30.0595 6.16886C31.0199 6.61876 31.7472 7.25166 32.2414 8.06756C32.7355 8.88347 32.9826 9.85949 32.9826 10.9956C32.9826 12.5676 32.5119 13.8821 31.5706 14.9391C30.6292 15.9961 29.3361 16.6571 27.6911 16.922L32.3166 24.4029H26.523L22.8583 17.1693L21.7164 24.4029ZM23.3365 14.1214H24.9279C25.9329 14.1214 26.6984 13.8919 27.2355 13.437C27.7726 12.982 28.0412 12.3195 28.0412 11.4541C28.0412 10.6459 27.7889 10.054 27.2888 9.6876C26.7887 9.32119 25.9831 9.13938 24.881 9.13938H24.1286L23.3365 14.1221V14.1214ZM37.1521 24.4029L38.4889 15.9506L33.1465 5.45789H38.7985L40.8701 10.2977C40.9852 10.5494 41.1002 10.8321 41.2151 11.1457C41.3304 11.4593 41.4454 11.7947 41.5604 12.148C41.7908 11.605 41.9809 11.1854 42.1226 10.8853C42.2234 10.6644 42.3387 10.4505 42.4679 10.2449L45.8358 5.45789H51.6843L43.5831 16.0034L42.2598 24.4029H37.1521ZM56.381 13.7776H56.8584C58.5008 13.7776 59.6117 13.6056 60.1913 13.2615C60.7714 12.9169 61.059 12.3298 61.059 11.5037C61.059 10.8063 60.8111 10.2938 60.3154 9.97143C59.8197 9.64909 59.0363 9.48554 57.974 9.48554H57.0665L56.3806 13.778L56.381 13.7776ZM49.6401 24.4029H54.6814L55.7436 17.8052H57.8726C59.3865 17.8052 60.4975 17.7391 61.2054 17.6067C61.9181 17.4702 62.5333 17.2435 63.0511 16.9267C63.9317 16.3837 64.6295 15.6064 65.1446 14.5949C65.6618 13.5882 65.9188 12.4886 65.9188 11.3096C65.9188 10.1187 65.6801 9.09691 65.1975 8.24025C64.7149 7.38359 63.9936 6.71231 63.0244 6.22205C62.4889 5.94417 61.8559 5.74966 61.1302 5.63493C60.4045 5.52021 59.3156 5.45828 57.8726 5.45828H52.6606L49.6401 24.4029ZM69.3249 24.4029L71.6353 9.85631H67.3818L68.1079 5.45789H81.5097L80.7836 9.85631H76.7255L74.4179 24.4029H69.3249ZM92.4663 9.67093C90.9171 9.67093 89.6202 10.2273 88.5757 11.3402C87.5269 12.4485 87.0032 13.8263 87.0045 15.4734C87.0045 16.9308 87.422 18.0938 88.257 18.9624C89.0893 19.8322 90.2045 20.2696 91.5942 20.2696C93.117 20.2696 94.4109 19.694 95.4761 18.5428C96.5413 17.3916 97.0725 15.9906 97.0695 14.3397C97.0695 12.9752 96.6372 11.8565 95.7725 10.9837C94.9078 10.1109 93.8058 9.67423 92.4663 9.6737V9.67093ZM91.3086 24.9062C89.95 24.9062 88.7152 24.721 87.6041 24.3505C86.5164 23.9924 85.5092 23.4261 84.6389 22.6832C83.7314 21.8893 83.0232 20.9123 82.5143 19.7456C82.0031 18.5742 81.7422 17.3092 81.7484 16.0316C81.7484 14.6184 81.9669 13.2964 82.4037 12.0658C82.8398 10.8399 83.5018 9.7061 84.3556 8.72296C85.361 7.53585 86.6292 6.59815 88.0601 5.98387C89.5162 5.35269 91.0944 5.0363 92.7946 5.03472C95.6496 5.03472 97.9572 5.85512 99.7173 7.49593C101.477 9.13674 102.357 11.2671 102.355 13.8871C102.355 15.2916 102.134 16.6163 101.687 17.8529C101.251 19.0791 100.589 20.2131 99.7352 21.1961C98.6904 22.4148 97.454 23.3378 96.026 23.965C94.6 24.5938 93.0276 24.9075 91.3086 24.9062Z" fill="white"/>
<path fill-rule="evenodd" clip-rule="evenodd" d="M23.1472 39.2095H23.6246C25.2667 39.2095 26.3776 39.0374 26.9575 38.6934C27.5373 38.3494 27.8264 37.7634 27.8248 36.9356C27.8248 36.2381 27.5769 35.7257 27.0816 35.4033C26.5863 35.081 25.8025 34.9174 24.7402 34.9174H23.8319L23.1472 39.2095ZM16.4062 49.8348L19.4248 30.8898H24.6367C26.0794 30.8898 27.1683 30.9469 27.894 31.0664C28.6197 31.1859 29.2531 31.3753 29.7886 31.6535C30.7578 32.1438 31.4835 32.8194 31.9617 33.6717C32.4399 34.524 32.683 35.5486 32.683 36.7411C32.683 37.9201 32.4264 39.0197 31.9084 40.0264C31.3904 41.0331 30.6957 41.8152 29.8153 42.3582C29.2973 42.6758 28.682 42.9025 27.9696 43.0382C27.2614 43.1706 26.1505 43.2367 24.6367 43.2367H22.5098L21.4475 49.8344L16.4062 49.8348ZM33.2969 49.8348L36.3067 30.8898H41.4765L38.4731 49.8348H33.2969ZM40.3354 49.8348H57.2297L57.9156 45.3303H49.524L60.1993 30.8898H44.5313L43.9472 35.0496H51.2503L40.3354 49.8348ZM57.3017 49.8348L68.2162 35.0496H60.9123L61.4967 30.8898H77.1648L66.4891 45.3303H74.8811L74.1948 49.8348H57.3017ZM74.2147 49.8348H79.7338L81.5528 46.2577H88.1918L88.9577 49.8348H94.1048L90.0729 30.8898H83.7171L74.2147 49.8348ZM83.4561 42.0446L85.4697 37.7081C85.554 37.5184 85.6734 37.227 85.8238 36.8384C85.9742 36.4497 86.1421 35.9904 86.3239 35.4692C86.333 35.7741 86.3597 36.0964 86.3995 36.4406C86.4393 36.7848 86.5101 37.1782 86.594 37.62L87.4661 42.0446H83.4561Z" fill="white"/>
</svg>
