<svg width="54" height="36" viewBox="0 0 54 36" fill="none" xmlns="http://www.w3.org/2000/svg">
<path d="M14.2747 23.0744L15.0349 22.0897L13.8046 22.2744C13.2164 22.3628 12.6132 22.4089 11.9984 22.4089C5.62589 22.4089 0.499998 17.4827 0.499998 11.4547C0.499999 5.42662 5.62591 0.5 11.9984 0.5C18.371 0.500001 23.4969 5.42619 23.4969 11.4547L23.4969 11.4628L23.4971 11.471L23.5504 13.0993C23.5459 25.291 13.3179 35.2412 0.553539 35.495L0.55354 29.9481C5.07018 29.8286 9.30445 28.0922 12.5187 25.0236C13.1533 24.4182 13.7403 23.7667 14.2747 23.0744ZM44.2243 23.0745L44.9846 22.0897L43.7542 22.2744C43.166 22.3628 42.5628 22.4089 41.948 22.4089C35.5755 22.4089 30.4496 17.4827 30.4496 11.4547C30.4496 5.42662 35.5755 0.500002 41.948 0.500003C48.3206 0.500003 53.4465 5.42619 53.4465 11.4547L53.4465 11.4628L53.4467 11.471L53.5 13.0992C53.4955 25.291 43.2675 35.2412 30.5031 35.495L30.5031 29.9481C35.0198 29.8286 39.254 28.0922 42.4683 25.0235C43.1028 24.4182 43.6898 23.7666 44.2243 23.0745Z" stroke="#F07B04"/>
</svg>
