<svg width="67" height="67" viewBox="0 0 67 67" fill="none" xmlns="http://www.w3.org/2000/svg">
<path d="M7.41667 66.75H59.3333C63.4125 66.75 66.75 63.4125 66.75 59.3333V17.9854C66.75 15.0187 64.8958 12.2375 61.9292 11.125L33.375 0L4.82083 11.125C1.85417 12.2375 0 15.0187 0 17.9854V59.3333C0 63.4125 3.3375 66.75 7.41667 66.75Z" fill="#2196F3"/>
<path d="M50.0619 22.25H16.6868C14.6473 22.25 12.9785 23.9187 12.9785 25.9583V48.2083C12.9785 50.2479 14.6473 51.9167 16.6868 51.9167H50.0619C52.1014 51.9167 53.7702 50.2479 53.7702 48.2083V25.9583C53.7702 23.9187 52.1014 22.25 50.0619 22.25Z" fill="#CFD8DC"/>
<path d="M50.0619 22.25H16.6868C14.6473 22.25 12.9785 23.9188 12.9785 25.9583V27.8125L33.3743 42.6458L53.7702 27.8125V25.9583C53.7702 23.9188 52.1014 22.25 50.0619 22.25Z" fill="#8E9496"/>
<path d="M50.0619 22.25H16.6868C14.6473 22.25 12.9785 23.9187 12.9785 25.9583V27.8125L33.3743 38.9375L53.7702 27.8125V25.9583C53.7702 23.9187 52.1014 22.25 50.0619 22.25Z" fill="#EBEFF1"/>
</svg>
