<svg width="54" height="48" viewBox="0 0 54 48" fill="none" xmlns="http://www.w3.org/2000/svg">
<path d="M53.8875 2.25001L45.459 45.2835C45.459 45.2835 45.0967 47.25 42.6577 47.25C41.3617 47.25 40.6935 46.6335 40.6935 46.6335L22.437 31.4843L13.5045 26.982L2.04075 23.9333C2.04075 23.9333 0 23.3438 0 21.6563C0 20.25 2.09925 19.5795 2.09925 19.5795L50.0602 0.526508C50.058 0.524258 51.525 -0.00224281 52.5938 7.19102e-06C53.2508 7.19102e-06 54 0.281257 54 1.12501C54 1.68751 53.8875 2.25001 53.8875 2.25001Z" fill="white"/>
<path d="M29.2499 37.136L21.5414 44.7275C21.5414 44.7275 21.2061 44.9862 20.7584 44.9975C20.6031 45.002 20.4366 44.9773 20.2656 44.9008L22.4346 31.4795L29.2499 37.136Z" fill="#B0BEC5"/>
<path d="M44.7682 9.44076C44.388 8.94576 43.686 8.85576 43.191 9.23151L13.5 26.9998C13.5 26.9998 18.2385 40.2568 18.9607 42.5518C19.6852 44.849 20.2657 44.903 20.2657 44.903L22.4348 31.4818L44.5567 11.0158C45.0517 10.64 45.144 9.93576 44.7682 9.44076Z" fill="#CFD8DC"/>
</svg>
